<svg width="136" height="136" viewBox="0 0 136 136" fill="none" xmlns="http://www.w3.org/2000/svg">
<path opacity="0.4" d="M68.0002 124.666C99.2963 124.666 124.667 99.2958 124.667 67.9997C124.667 36.7035 99.2963 11.333 68.0002 11.333C36.704 11.333 11.3335 36.7035 11.3335 67.9997C11.3335 99.2958 36.704 124.666 68.0002 124.666Z" fill="#C41341"/>
<path d="M93.4435 65.7903C95.5969 63.0137 96.9569 59.5003 96.9569 55.7037C96.9569 46.9203 89.2502 39.157 80.4102 39.157H75.4235V31.167C75.4235 28.8437 73.4969 26.917 71.1735 26.917C68.8502 26.917 66.9235 28.8437 66.9235 31.167V39.2137H61.3702H60.0669V31.167C60.0669 28.8437 58.1402 26.917 55.8169 26.917C53.4935 26.917 51.6802 28.8437 51.6802 31.167V39.2137H49.7535H39.9502C37.6269 39.2137 35.7002 41.1403 35.7002 43.4637C35.7002 45.787 37.6269 47.7137 39.9502 47.7137H45.5035V68.0003V88.287H39.9502C37.6269 88.287 35.7002 90.2137 35.7002 92.537C35.7002 94.8603 37.6269 96.787 39.9502 96.787H49.7535H51.6235V104.834C51.6235 107.157 53.5502 109.084 55.8735 109.084C58.1969 109.084 60.1235 107.157 60.1235 104.834V96.787H61.4269H66.9802V104.834C66.9802 107.157 68.9069 109.084 71.2302 109.084C73.5535 109.084 75.4802 107.157 75.4802 104.834V96.787H84.8302C94.9169 96.787 103.134 89.3637 103.134 80.2403C103.134 74.007 99.1669 68.567 93.4435 65.7903ZM61.4269 47.7137H80.4669C85.0002 47.7137 88.5135 52.0203 88.5135 55.7603C88.5135 60.1803 84.8869 63.807 80.4669 63.807H54.0035V47.7137H61.4269ZM84.8302 88.287H61.4269H54.0035V72.2503H80.4669H84.8302C90.2135 72.2503 94.6335 75.877 94.6335 80.297C94.6335 84.717 90.2135 88.287 84.8302 88.287Z" fill="#C41341"/>
</svg>
