<svg width="136" height="136" viewBox="0 0 136 136" fill="none" xmlns="http://www.w3.org/2000/svg">
<path opacity="0.4" d="M124.667 51V93.2733C124.667 106.25 114.127 116.733 101.15 116.733H34.8502C21.8735 116.733 11.3335 106.25 11.3335 93.2733V51H124.667Z" fill="#C41341"/>
<path d="M124.667 42.7266V50.9999H11.3335V42.7266C11.3335 29.7499 21.8735 19.2666 34.8502 19.2666H101.15C114.127 19.2666 124.667 29.7499 124.667 42.7266Z" fill="#C41341"/>
<path d="M45.3333 97.75H34C31.6767 97.75 29.75 95.8233 29.75 93.5C29.75 91.1767 31.6767 89.25 34 89.25H45.3333C47.6567 89.25 49.5833 91.1767 49.5833 93.5C49.5833 95.8233 47.6567 97.75 45.3333 97.75Z" fill="#C41341"/>
<path d="M82.1667 97.75H59.5C57.1767 97.75 55.25 95.8233 55.25 93.5C55.25 91.1767 57.1767 89.25 59.5 89.25H82.1667C84.49 89.25 86.4167 91.1767 86.4167 93.5C86.4167 95.8233 84.49 97.75 82.1667 97.75Z" fill="#C41341"/>
</svg>
