<svg width="136" height="136" viewBox="0 0 136 136" fill="none" xmlns="http://www.w3.org/2000/svg">
<path opacity="0.4" fill-rule="evenodd" clip-rule="evenodd" d="M61.2214 36.2402C61.2214 49.5723 61.1846 60.4804 61.1396 60.4804C61.045 60.4804 58.7968 59.1897 44.5132 50.9362C42.8212 49.9584 40.8162 48.8003 40.0577 48.3626C38.5444 47.4893 35.785 45.8962 30.0327 42.5746C21.3345 37.5518 19.3099 36.3894 19.1591 36.3315C19.0179 36.2774 19 39.8984 19 68.4897C19 97.4706 19.0164 100.703 19.1635 100.646C19.2534 100.612 20.1247 100.122 21.0995 99.5571C22.0744 98.9928 24.5429 97.5672 26.585 96.3894C28.6271 95.2114 32.0165 93.2548 34.117 92.0414C41.5429 87.7513 46.2269 85.0478 47.5896 84.2651C48.3481 83.8296 49.6848 83.0567 50.56 82.548C51.4352 82.0391 53.2969 80.9632 54.6973 80.157C56.0976 79.3508 58.0924 78.198 59.1302 77.5951C60.168 76.9923 61.0393 76.499 61.0662 76.499C61.0933 76.499 61.1153 87.4071 61.1153 100.739C61.1153 116.539 61.1516 124.979 61.2195 124.979C61.2769 124.979 62.0048 124.581 62.8373 124.094C63.6698 123.607 64.8999 122.896 65.5709 122.514C66.2418 122.132 67.8172 121.225 69.0716 120.499C71.6796 118.989 78.1733 115.237 83.0747 112.408C84.9126 111.348 87.6814 109.749 89.2276 108.856C90.7738 107.963 92.6355 106.889 93.3649 106.468C94.967 105.545 99.0708 103.174 100.897 102.118C102.658 101.099 106.574 98.8398 108.747 97.5881C109.71 97.0335 111.595 95.9438 112.937 95.1664C114.279 94.389 115.749 93.5406 116.203 93.2809C116.658 93.0212 117.016 92.797 116.999 92.7828C116.96 92.75 111.732 89.7297 108.376 87.8013C106.975 86.9967 105.728 86.2754 105.604 86.1985C105.48 86.1215 103.522 84.9888 101.254 83.6814C96.8251 81.1278 87.3907 75.6814 83.393 73.3699C80.779 71.8585 75.2741 68.6841 75.1002 68.5878C74.9609 68.5108 75.6213 68.0876 78.1766 66.6168C81.8023 64.5297 87.3009 61.3558 91.5614 58.8905C93.1076 57.9958 94.9694 56.9218 95.6987 56.5037C96.428 56.0857 98.9104 54.6536 101.215 53.3213C103.52 51.989 106.479 50.2793 107.792 49.522C109.105 48.7646 110.776 47.8005 111.505 47.3794C112.235 46.9584 113.762 46.0773 114.9 45.4216C116.038 44.7658 116.983 44.2158 117 44.1992C117.017 44.1828 115.704 43.404 114.083 42.4688C109.014 39.5457 103.235 36.2109 98.8812 33.6965C96.5765 32.3656 92.9962 30.2981 90.9249 29.1022C88.8536 27.9064 85.4881 25.9631 83.446 24.7838C81.4039 23.6044 76.7972 20.9448 73.2089 18.8734C69.6206 16.8019 65.4758 14.408 63.9982 13.5536C62.5205 12.6991 61.2913 12 61.2665 12C61.2417 12 61.2214 22.9081 61.2214 36.2402ZM74.8002 44.1965C74.8002 48.835 74.8224 52.6302 74.8497 52.6302C74.8945 52.6302 77.4288 51.1738 84.0825 47.3248C85.3661 46.5823 87.1213 45.5685 87.9829 45.0718L89.5494 44.1689L85.9143 42.0702C83.9149 40.9159 80.6417 39.0246 78.6403 37.8672C76.639 36.7097 74.9563 35.7628 74.9008 35.7628C74.8381 35.7628 74.8002 38.9446 74.8002 44.1965ZM32.7909 68.4946V76.9407L33.1357 76.7342C33.5145 76.5075 37.0312 74.4758 40.429 72.5209C42.6767 71.2276 47.3594 68.5232 47.401 68.4943C47.414 68.4852 47.0082 68.2385 46.4993 67.9459C44.6481 66.8815 38.4025 63.2762 35.8673 61.8084C34.4379 60.9809 33.1608 60.2463 33.0296 60.1762L32.7909 60.0486V68.4946ZM74.9062 92.7766V101.224L75.1449 101.1C75.3592 100.989 77.4545 99.7827 81.5895 97.3905C82.3772 96.9347 84.4299 95.7501 86.1511 94.7578C87.8724 93.7655 89.3409 92.9152 89.4145 92.8683C89.5024 92.8122 88.7926 92.3481 87.3459 91.5156C83.8417 89.4994 75.9625 84.9513 75.4101 84.6259L74.9062 84.3291V92.7766Z" fill="#C41341"/>
<path fill-rule="evenodd" clip-rule="evenodd" d="M19.0012 68.4722L19 100.704L19.4509 100.449C19.6989 100.308 21.1429 99.4748 22.6599 98.597C24.1769 97.7193 26.0387 96.6448 26.7972 96.2092C27.5557 95.7735 29.2742 94.7802 30.6162 94.0018C31.9582 93.2233 33.6528 92.245 34.3822 91.8277C35.1115 91.4105 36.6152 90.5432 37.7238 89.9006C40.5694 88.2511 47.7995 84.0768 49.8174 82.9184C50.7509 82.3825 52.6127 81.308 53.9547 80.5305C55.2966 79.7531 57.421 78.525 58.6754 77.8015C59.9298 77.0779 60.9895 76.4531 61.0301 76.413C61.0708 76.3727 59.3283 75.3165 57.1581 74.0655C54.9878 72.8146 52.0292 71.1064 50.5836 70.2695C49.138 69.4325 47.8464 68.6983 47.7136 68.6377C47.4341 68.5104 47.7791 68.3192 36.3978 74.9102C34.8516 75.8056 33.3837 76.6528 33.1357 76.7929L32.6848 77.0477V68.4834V59.9191L31.975 58.6881C31.5845 58.011 30.7425 56.55 30.1038 55.4414C29.0141 53.5503 28.1111 51.9847 25.3624 47.2199C24.7397 46.1405 23.6905 44.3265 23.031 43.1887C22.3714 42.051 21.4624 40.4756 21.0111 39.688C20.5599 38.9003 19.9233 37.8023 19.5965 37.248L19.0023 36.2402L19.0012 68.4722ZM85.7798 46.3813C83.6794 47.6008 80.3735 49.5126 78.4335 50.6298L74.9062 52.6611V60.5527V68.4441L75.1449 68.3169C75.4186 68.1711 76.4137 67.5975 86.2572 61.9115C86.9865 61.4902 88.6812 60.5119 90.0232 59.7375C91.3652 58.9631 94.1578 57.3504 96.2291 56.1537C100.693 53.5748 105.99 50.5161 111.611 47.2725C115.938 44.7755 116.836 44.2525 116.907 44.1853C116.931 44.1623 110.797 44.1482 103.275 44.1538L89.5989 44.1641L85.7798 46.3813ZM88.9624 93.1764C88.6706 93.3547 87.334 94.1331 85.992 94.9063C84.6501 95.6794 82.6928 96.8089 81.6426 97.4162C80.5923 98.0234 78.6351 99.1536 77.2931 99.9278L74.8532 101.335L74.412 102.098C74.1694 102.518 73.2818 104.054 72.4398 105.513C71.5977 106.972 69.9293 109.86 68.7324 111.931C66.703 115.443 61.347 124.73 61.2573 124.893C61.2102 124.979 61.6766 124.711 73.4741 117.892C75.7496 116.577 78.2081 115.158 78.9374 114.74C79.6668 114.321 81.3495 113.351 82.6769 112.584C84.0043 111.816 86.1525 110.575 87.4507 109.826C88.7488 109.077 90.5987 108.009 91.5614 107.454C92.5241 106.898 94.6962 105.644 96.3882 104.668C98.0803 103.692 100.228 102.451 101.162 101.91C103.459 100.58 106.443 98.8569 109.065 97.3454C110.261 96.6561 112.123 95.5806 113.203 94.9555C114.282 94.3303 115.547 93.5986 116.014 93.3293L116.862 92.8398L103.178 92.8461L89.4928 92.8524L88.9624 93.1764Z" fill="#C41341"/>
</svg>
