<svg width="136" height="136" viewBox="0 0 136 136" fill="none" xmlns="http://www.w3.org/2000/svg">
<path opacity="0.4" d="M102.227 76.7836C99.8465 79.1069 98.4865 82.4503 98.8265 86.0203C99.3365 92.1403 104.946 96.6169 111.066 96.6169H121.833V103.36C121.833 115.09 112.256 124.667 100.526 124.667H35.4732C23.7432 124.667 14.1665 115.09 14.1665 103.36V65.2237C14.1665 53.4937 23.7432 43.917 35.4732 43.917H100.526C112.256 43.917 121.833 53.4937 121.833 65.2237V73.3837H110.386C107.213 73.3837 104.323 74.6303 102.227 76.7836Z" fill="#231F36"/>
<path d="M84.1498 22.3835V43.9168H35.4732C23.7432 43.9168 14.1665 53.4935 14.1665 65.2235V44.427C14.1665 37.6836 18.3032 31.6767 24.5932 29.2967L69.5865 12.2967C76.6132 9.69004 84.1498 14.8469 84.1498 22.3835Z" fill="#231F36"/>
<path d="M127.84 79.1631V90.8367C127.84 93.9534 125.347 96.5032 122.173 96.6165H111.067C104.947 96.6165 99.3366 92.1399 98.8266 86.0199C98.4866 82.4499 99.8466 79.1065 102.227 76.7832C104.323 74.6298 107.213 73.3833 110.387 73.3833H122.173C125.347 73.4966 127.84 76.0464 127.84 79.1631Z" fill="#231F36"/>
<path d="M79.3332 72.25H39.6665C37.3432 72.25 35.4165 70.3233 35.4165 68C35.4165 65.6767 37.3432 63.75 39.6665 63.75H79.3332C81.6565 63.75 83.5832 65.6767 83.5832 68C83.5832 70.3233 81.6565 72.25 79.3332 72.25Z" fill="#231F36"/>
</svg>
