<svg width="48" height="48" viewBox="0 0 48 48" fill="none" xmlns="http://www.w3.org/2000/svg">
<rect width="48" height="48" rx="16" fill="#3BC76B" fill-opacity="0.2"/>
<path d="M14.6666 28C11.72 28 9.33331 30.3867 9.33331 33.3333C9.33331 34.3333 9.61331 35.28 10.1066 36.08C11.0266 37.6267 12.72 38.6667 14.6666 38.6667C16.6133 38.6667 18.3066 37.6267 19.2266 36.08C19.72 35.28 20 34.3333 20 33.3333C20 30.3867 17.6133 28 14.6666 28ZM16.6533 34.3067H15.6666V35.3467C15.6666 35.8933 15.2133 36.3467 14.6666 36.3467C14.12 36.3467 13.6666 35.8933 13.6666 35.3467V34.3067H12.68C12.1333 34.3067 11.68 33.8533 11.68 33.3067C11.68 32.76 12.1333 32.3067 12.68 32.3067H13.6666V31.36C13.6666 30.8133 14.12 30.36 14.6666 30.36C15.2133 30.36 15.6666 30.8133 15.6666 31.36V32.3067H16.6533C17.2 32.3067 17.6533 32.76 17.6533 33.3067C17.6533 33.8533 17.2133 34.3067 16.6533 34.3067Z" fill="#3BC76B"/>
<path d="M36.6667 24.6666H33.3334C31.8667 24.6666 30.6667 25.8666 30.6667 27.3333C30.6667 28.8 31.8667 30 33.3334 30H36.6667C37.04 30 37.3334 29.7066 37.3334 29.3333V25.3333C37.3334 24.96 37.04 24.6666 36.6667 24.6666Z" fill="#3BC76B"/>
<path d="M30.04 15.2C30.44 15.5867 30.1067 16.1867 29.5467 16.1867L18.5067 16.1733C17.8667 16.1733 17.5467 15.4 18 14.9467L20.3333 12.6C22.3067 10.64 25.4933 10.64 27.4667 12.6L29.9867 15.1467C30 15.16 30.0267 15.1867 30.04 15.2Z" fill="#3BC76B"/>
<path d="M37.16 32.88C36.3467 35.6267 34 37.3334 30.8 37.3334H22.1334C21.6134 37.3334 21.28 36.76 21.4934 36.28C21.8934 35.3467 22.1467 34.2934 22.1467 33.3334C22.1467 29.2934 18.8534 26 14.8134 26C13.8 26 12.8134 26.2134 11.9067 26.6134C11.4134 26.8267 10.8134 26.4934 10.8134 25.96V24C10.8134 20.3734 13 17.84 16.4 17.4134C16.7334 17.36 17.0934 17.3334 17.4667 17.3334H30.8C31.1467 17.3334 31.48 17.3467 31.8 17.4C34.4934 17.7067 36.44 19.3467 37.16 21.7867C37.2934 22.2267 36.9734 22.6667 36.52 22.6667H33.4667C30.5734 22.6667 28.28 25.3067 28.9067 28.3067C29.3467 30.4934 31.3734 32 33.6 32H36.52C36.9867 32 37.2934 32.4534 37.16 32.88Z" fill="#3BC76B"/>
</svg>
