<svg width="48" height="48" viewBox="0 0 48 48" fill="none" xmlns="http://www.w3.org/2000/svg">
<rect width="48" height="48" rx="16" fill="#98072D" fill-opacity="0.2"/>
<path d="M29.5867 10.6666H18.4134C13.56 10.6666 10.6667 13.56 10.6667 18.4133V29.5733C10.6667 34.44 13.56 37.3333 18.4134 37.3333H29.5734C34.4267 37.3333 37.32 34.44 37.32 29.5866V18.4133C37.3334 13.56 34.44 10.6666 29.5867 10.6666ZM30.5067 27.1066C30.5067 27.2266 30.48 27.3466 30.44 27.4666C30.3467 27.6933 30.16 27.88 29.9334 27.9733C29.8134 28.0266 29.6934 28.04 29.5734 28.04H27.0934C26.5734 28.04 26.16 27.6266 26.16 27.1066C26.16 26.5866 26.5734 26.1733 27.0934 26.1733H27.3334L24.52 23.36L23.16 25.3866C23 25.6133 22.76 25.7733 22.48 25.8C22.2 25.8266 21.9334 25.7333 21.7334 25.5333L17.76 21.56C17.4 21.2 17.4 20.6133 17.76 20.24C18.12 19.8666 18.7067 19.88 19.08 20.24L22.2534 23.4133L23.6134 21.3866C23.7734 21.16 24.0134 21 24.2934 20.9733C24.5867 20.9466 24.84 21.04 25.04 21.24L28.6667 24.8666V24.6266C28.6667 24.1066 29.08 23.6933 29.6 23.6933C30.12 23.6933 30.5334 24.1066 30.5334 24.6266V27.1066H30.5067Z" fill="#98072D"/>
</svg>
