<svg width="48" height="48" viewBox="0 0 48 48" fill="none" xmlns="http://www.w3.org/2000/svg">
<rect width="48" height="48" rx="16" fill="#C41341" fill-opacity="0.2"/>
<path d="M31.0533 13.52L30.96 18.5734C30.9467 19.2667 31.3867 20.1867 31.9467 20.6L35.2533 23.1067C37.3733 24.7067 37.0267 26.6667 34.4933 27.4667L30.1867 28.8134C29.4667 29.04 28.7067 29.8267 28.52 30.56L27.4933 34.48C26.68 37.5734 24.6533 37.88 22.9733 35.16L20.6267 31.36C20.2 30.6667 19.1867 30.1467 18.3867 30.1867L13.9333 30.4134C10.7467 30.5734 9.84 28.7334 11.92 26.3067L14.56 23.24C15.0533 22.6667 15.28 21.6 15.0533 20.88L13.6933 16.56C12.9067 14.0267 14.32 12.6267 16.84 13.4534L20.7733 14.7467C21.44 14.96 22.44 14.8134 23 14.4L27.1067 11.44C29.3333 9.85335 31.1067 10.7867 31.0533 13.52Z" fill="#C41341"/>
<path d="M36.5867 35.2934L32.5467 31.2534C32.16 30.8667 31.52 30.8667 31.1333 31.2534C30.7467 31.64 30.7467 32.28 31.1333 32.6667L35.1733 36.7067C35.3733 36.9067 35.6267 37 35.88 37C36.1333 37 36.3867 36.9067 36.5867 36.7067C36.9733 36.32 36.9733 35.68 36.5867 35.2934Z" fill="#C41341"/>
</svg>
