<svg width="48" height="48" viewBox="0 0 48 48" fill="none" xmlns="http://www.w3.org/2000/svg">
<rect width="48" height="48" rx="16" fill="#3BC76B" fill-opacity="0.2"/>
<path d="M23.92 10.9466L20.7067 18.4266H17.4933C16.96 18.4266 16.44 18.4666 15.9333 18.5733L17.2667 15.3733L17.32 15.2533L17.4 15.04C17.44 14.9466 17.4667 14.8666 17.5067 14.8C19.0533 11.2133 20.7867 10.0933 23.92 10.9466Z" fill="#3BC76B"/>
<path d="M32.9733 18.7867L32.9467 18.7733C32.1467 18.5467 31.3333 18.4267 30.5067 18.4267H22.16L25.16 11.4533L25.2 11.36C25.3867 11.4267 25.5867 11.52 25.7867 11.5867L28.7333 12.8267C30.3733 13.5067 31.52 14.2133 32.2267 15.0667C32.3467 15.2267 32.4533 15.3733 32.56 15.5467C32.68 15.7333 32.7733 15.92 32.8267 16.12C32.88 16.24 32.92 16.3467 32.9467 16.4667C33.1467 17.1467 33.16 17.92 32.9733 18.7867Z" fill="#3BC76B"/>
<path d="M24.6933 31.5466H25.0267C25.4267 31.5466 25.76 31.1866 25.76 30.7466C25.76 30.1866 25.6 30.1066 25.2533 29.9733L24.6933 29.7733V31.5466Z" fill="#3BC76B"/>
<path d="M32.3867 20.6933C31.7867 20.52 31.16 20.4266 30.5067 20.4266H17.4933C16.5867 20.4266 15.7333 20.6 14.9333 20.9466C12.6133 21.9466 10.9867 24.2533 10.9867 26.9333V29.5333C10.9867 29.8533 11.0133 30.16 11.0533 30.48C11.3467 34.72 13.6133 36.9866 17.8533 37.2666C18.16 37.3066 18.4667 37.3333 18.8 37.3333H29.2C34.1333 37.3333 36.7333 34.9866 36.9867 30.32C37 30.0666 37.0133 29.8 37.0133 29.5333V26.9333C37.0133 23.9866 35.0533 21.5066 32.3867 20.6933ZM25.7067 28.6666C26.32 28.88 27.1467 29.3333 27.1467 30.7466C27.1467 31.96 26.2 32.9333 25.0267 32.9333H24.6933V33.2266C24.6933 33.6133 24.3867 33.92 24 33.92C23.6133 33.92 23.3067 33.6133 23.3067 33.2266V32.9333H23.1867C21.9067 32.9333 20.8533 31.8533 20.8533 30.52C20.8533 30.1333 21.16 29.8266 21.5467 29.8266C21.9333 29.8266 22.24 30.1333 22.24 30.52C22.24 31.08 22.6667 31.5466 23.1867 31.5466H23.3067V29.2933L22.2933 28.9333C21.68 28.72 20.8533 28.2666 20.8533 26.8533C20.8533 25.64 21.8 24.6666 22.9733 24.6666H23.3067V24.3733C23.3067 23.9866 23.6133 23.68 24 23.68C24.3867 23.68 24.6933 23.9866 24.6933 24.3733V24.6666H24.8133C26.0933 24.6666 27.1467 25.7466 27.1467 27.08C27.1467 27.4666 26.84 27.7733 26.4533 27.7733C26.0667 27.7733 25.76 27.4666 25.76 27.08C25.76 26.52 25.3333 26.0533 24.8133 26.0533H24.6933V28.3066L25.7067 28.6666Z" fill="#3BC76B"/>
<path d="M22.24 26.8533C22.24 27.4133 22.4 27.4933 22.7467 27.6267L23.3067 27.8267V26.0533H22.9733C22.56 26.0533 22.24 26.4133 22.24 26.8533Z" fill="#3BC76B"/>
</svg>
