<svg width="48" height="48" viewBox="0 0 48 48" fill="none" xmlns="http://www.w3.org/2000/svg">
<rect width="48" height="48" rx="16" fill="#FFDF34" fill-opacity="0.2"/>
<path d="M33.7867 27.32L32.4533 25.1066C32.1733 24.6133 31.92 23.68 31.92 23.1333V19.76C31.92 16.6266 30.08 13.92 27.4267 12.6533C26.7333 11.4266 25.4533 10.6666 23.9867 10.6666C22.5333 10.6666 21.2267 11.4533 20.5333 12.6933C17.9333 13.9866 16.1333 16.6666 16.1333 19.76V23.1333C16.1333 23.68 15.88 24.6133 15.6 25.0933L14.2533 27.32C13.72 28.2133 13.6 29.2 13.9333 30.1066C14.2533 31 15.0133 31.6933 16 32.0266C18.5867 32.9066 21.3067 33.3333 24.0267 33.3333C26.7467 33.3333 29.4667 32.9066 32.0533 32.04C32.9867 31.7333 33.7067 31.0266 34.0533 30.1066C34.4 29.1866 34.3067 28.1733 33.7867 27.32Z" fill="#FFDF34"/>
<path d="M27.7733 34.68C27.2133 36.2266 25.7333 37.3333 24 37.3333C22.9467 37.3333 21.9067 36.9066 21.1733 36.1466C20.7467 35.7466 20.4267 35.2133 20.24 34.6666C20.4133 34.6933 20.5867 34.7066 20.7733 34.7333C21.08 34.7733 21.4 34.8133 21.72 34.84C22.48 34.9066 23.2533 34.9466 24.0267 34.9466C24.7867 34.9466 25.5467 34.9066 26.2933 34.84C26.5733 34.8133 26.8533 34.8 27.12 34.76C27.3333 34.7333 27.5467 34.7066 27.7733 34.68Z" fill="#FFDF34"/>
</svg>
