<svg width="24" height="24" viewBox="0 0 24 24" fill="none" xmlns="http://www.w3.org/2000/svg">
<path fill-rule="evenodd" clip-rule="evenodd" d="M12.2268 0.0512874C11.4402 0.224885 10.9477 0.961521 11.0706 1.78098C11.1143 2.07193 11.2332 2.34496 11.3432 2.40643C11.6324 2.56828 11.3203 2.89459 10.8764 2.89459C10.0566 2.89459 9.35245 3.57973 8.55933 5.14911C8.06903 6.11939 7.94207 6.28468 7.64815 6.3357C7.33335 6.3904 7.27152 6.49459 6.85657 7.67061C6.60893 8.37224 6.44221 8.94798 6.48612 8.95011C6.5299 8.95237 6.68535 9.05394 6.83154 9.17592C7.08641 9.38856 7.09021 9.41799 6.92196 9.89464C6.82549 10.168 6.61925 10.5431 6.46357 10.7281C6.30801 10.9131 6.08137 11.3404 5.9601 11.6776C5.80775 12.1013 5.63794 12.3435 5.41107 12.4609C5.16521 12.588 5.0825 12.7185 5.0825 12.9794C5.0825 13.1712 5.02033 13.8753 4.94427 14.5442L4.80591 15.7603L4.21119 16.355C3.39055 17.1757 1.61529 20.7879 1.57637 21.7163C1.55893 22.1316 1.44692 22.5012 1.22218 22.8847C0.81126 23.5857 0.89325 23.6556 2.13015 23.6581L3.03422 23.6599L3.10778 23.2149C3.14825 22.9703 3.18195 22.568 3.18266 22.3212C3.18384 21.9278 3.31378 21.7223 4.23315 20.66C6.893 17.5863 6.9146 17.5554 7.82186 15.5318C8.68155 13.6144 8.83106 13.3366 9.00383 13.3366C9.05627 13.3366 9.50065 13.9174 9.99142 14.6272C10.4823 15.337 11.0292 16.0237 11.2068 16.1532L11.5298 16.3884L11.0145 17.3247C10.6203 18.0408 10.4067 18.6514 10.106 19.9221C9.88973 20.8358 9.63212 21.8754 9.53352 22.2322C9.43491 22.589 9.35423 23.0334 9.35423 23.2197V23.5583L11.1449 23.5201C12.8895 23.4829 12.9416 23.4743 13.1749 23.1859L13.4145 22.8898L12.8379 22.7112C11.6436 22.3414 11.3694 21.9649 11.8947 21.4165C12.0647 21.2391 12.5516 20.2696 12.9768 19.2622C13.4019 18.2546 13.8462 17.2167 13.964 16.9557C14.3173 16.1732 14.2056 15.7362 13.1955 13.9502C12.6909 13.058 12.1542 12.142 12.0028 11.9148C11.6432 11.3751 11.6117 10.428 11.9505 10.3395C12.0843 10.3045 12.3906 9.86319 12.7154 9.23774C13.1531 8.39443 13.2332 8.14988 13.1329 7.96251C13.035 7.77966 13.0595 7.68011 13.2485 7.49096L13.4883 7.25127L14.0372 7.57296C14.885 8.0699 15.4561 7.83484 15.8784 6.8152C16.0473 6.40749 16.2364 6.33855 16.2364 6.68468C16.2364 6.81141 16.2764 6.93837 16.3254 6.96709C16.416 7.02001 17.5023 6.77071 17.5979 6.67495C17.6269 6.64611 17.5793 6.3166 17.4924 5.94282C17.4056 5.56905 17.374 5.2387 17.4224 5.2088C17.4708 5.17889 17.5449 4.93956 17.5868 4.67709L17.6632 4.19984H19.6196H21.5761V3.84386V3.48789H22.288C22.8418 3.48789 23 3.44837 23 3.3099C23 3.17024 22.8365 3.13191 22.2399 3.13191C21.5381 3.13191 21.4844 3.11364 21.5417 2.89459C21.615 2.61444 21.4306 2.58157 21.2186 2.83716C21.0907 2.9913 20.6018 3.01242 17.7927 2.98548C15.7083 2.96543 14.5159 2.91073 14.5159 2.83526C14.5159 2.77 14.6296 2.70035 14.7684 2.68053C14.9549 2.65395 15.0386 2.53553 15.0885 2.22737C15.1423 1.8962 15.0819 1.68949 14.7953 1.22364C14.2319 0.308185 13.1991 -0.163248 12.2268 0.0512874Z" fill="#C41341"/>
</svg>
