<svg width="24" height="24" viewBox="0 0 24 24" fill="none" xmlns="http://www.w3.org/2000/svg">
<path fill-rule="evenodd" clip-rule="evenodd" d="M11.256 0.0396359C9.89675 0.0592186 9.80412 0.0690102 9.80412 0.193225C9.80412 0.409779 9.61914 0.50076 9.1058 0.536638C8.83923 0.555221 8.51122 0.619758 8.37693 0.680007C8.20765 0.755979 7.87663 0.792358 7.2979 0.79879C6.47834 0.807867 6.45848 0.804222 6.21916 0.603963L5.97539 0.399916L4.86058 0.447301C4.24743 0.473316 2.98164 0.505692 2.04765 0.519199C1.11366 0.532636 0.31833 0.562939 0.280188 0.586381C0.13701 0.674575 0.112849 1.43537 0.237959 1.91579C0.388952 2.49541 0.346363 3.55524 0.119946 4.85113C-0.0759281 5.97271 -0.0368532 6.82327 0.273735 8.19507C0.44509 8.95193 0.483017 9.24989 0.443225 9.52734C0.337975 10.2614 0.378628 10.6443 0.61329 11.1283C0.823217 11.5614 0.829525 11.5987 0.732018 11.8314C0.675378 11.9665 0.52367 12.21 0.394975 12.3725L0.160957 12.6678L0.18519 13.9377L0.209424 15.2075L0.44681 15.4441C0.652005 15.6487 0.691295 15.7467 0.736463 16.1675C0.838631 17.1187 0.714812 17.7058 0.265132 18.4015C0.127332 18.6148 0.118442 18.7441 0.11034 20.6528L0.101808 22.6778L0.346507 22.8444C0.520658 22.963 0.65559 23.0008 0.815043 22.9755C0.964387 22.9517 1.11853 22.9881 1.27813 23.0849C1.49365 23.2155 1.55452 23.2216 1.89307 23.1461C2.0997 23.1 2.45596 23.0646 2.68467 23.0675C2.91338 23.0703 3.60059 23.0594 4.2118 23.0432C4.94189 23.0239 5.35543 23.0402 5.41738 23.0907C5.58084 23.224 6.79301 23.1895 7.06919 23.0436C7.33217 22.9047 7.81533 22.9305 8.29849 23.1093C8.64264 23.2366 9.2441 23.2972 9.3705 23.2175C9.4485 23.1683 9.51855 23.2179 9.64961 23.4151C9.94242 23.8558 10.1052 24 10.3102 24C10.4384 24 10.5446 23.9392 10.622 23.8213C10.7234 23.667 10.7927 23.6426 11.1288 23.6426C11.3429 23.6426 11.6003 23.68 11.7007 23.7256C11.8258 23.7824 11.9341 23.7864 12.0446 23.7383C12.1587 23.6886 12.2585 23.6954 12.3852 23.7614C12.602 23.8746 12.7789 23.8815 12.9616 23.7841C13.2602 23.6248 13.935 23.5622 15.7145 23.5292C17.3549 23.4987 17.6112 23.4782 17.89 23.3553C18.1282 23.2503 18.2402 23.2342 18.3449 23.2901C18.703 23.4811 21.073 23.6426 21.4194 23.4995C21.619 23.4171 21.6263 23.4025 21.5097 23.3165C21.3946 23.2317 21.4093 23.2121 21.6699 23.1026C22.1011 22.9212 22.9042 23.0037 23.4454 23.2849C23.6727 23.4031 23.8905 23.4997 23.9294 23.4997C23.975 23.4997 24 21.7718 24 18.604V13.7083H23.6415C23.4444 13.7083 23.283 13.6863 23.283 13.6593C23.283 13.6324 23.3546 13.5344 23.4421 13.4416C23.5861 13.2888 23.606 13.1707 23.6533 12.1863C23.684 11.5458 23.6776 10.9935 23.6375 10.8412C23.6001 10.699 23.4082 10.365 23.2111 10.0988C23.0141 9.83273 22.8529 9.56779 22.8529 9.51004C22.8529 9.4523 22.9349 9.30786 23.0351 9.18907C23.1908 9.00468 23.2107 8.92864 23.1715 8.6682L23.1257 8.36331L23.509 8.22094L23.8925 8.07857L23.9479 7.26639C24.0217 6.18748 23.952 4.14494 23.8077 3.1563C23.7 2.41815 23.7002 2.3384 23.8099 2.06495C23.875 1.90271 23.9283 1.60819 23.9283 1.41043C23.9283 1.06266 23.9196 1.04722 23.66 0.939157C23.5125 0.877693 23.2956 0.746688 23.1779 0.647988C22.975 0.477819 22.9298 0.470386 22.2974 0.503333C21.7395 0.532421 21.5901 0.516412 21.3817 0.405062C21.2447 0.331877 21.1018 0.271985 21.0642 0.271985C21.0265 0.271985 20.8938 0.419642 20.7692 0.600032C20.5208 0.959954 20.4416 0.949234 20.3015 0.536852C20.225 0.311793 20.2136 0.306791 19.6562 0.255262C19.3441 0.226388 18.8252 0.221957 18.5031 0.245399C18.1125 0.273772 17.6027 0.245041 16.9731 0.159277C16.3172 0.0699399 15.9925 0.0527156 15.9099 0.102887C15.8443 0.142625 15.7101 0.32816 15.6115 0.515197C15.3954 0.92522 15.2728 1.00155 14.8763 0.972891C14.6328 0.95531 14.5557 0.914857 14.4855 0.768129C14.4132 0.616899 14.3022 0.562724 13.8447 0.455234C13.2985 0.326874 13.2939 0.323872 13.4857 0.223743C13.7783 0.0708685 13.6475 -0.0158245 13.1517 0.00240033C12.9076 0.0114055 12.0545 0.0281292 11.256 0.0396359ZM4.2118 4.44904C4.07379 4.50236 3.76728 4.62886 3.53069 4.73006C3.29409 4.83134 3.04121 4.91489 2.9688 4.91581C2.88291 4.91696 3.45634 5.55304 4.61782 6.74502C5.59719 7.7501 6.41467 8.61045 6.43439 8.65684C6.49856 8.80771 7.15623 9.50683 8.19475 10.5279C8.75441 11.0782 9.68353 12.0469 10.2595 12.6806C10.8353 13.3143 11.3892 13.8867 11.4902 13.9527C11.5912 14.0187 11.7683 14.2238 11.8838 14.4087C12.0745 14.7136 13.0476 15.6692 13.5409 16.0359C13.6503 16.1172 13.8845 16.3744 14.0615 16.6076C14.2385 16.8409 15.0226 17.6824 15.804 18.4778L17.2247 19.9239L17.7855 19.9965C18.094 20.0365 18.6823 20.0692 19.0929 20.0692C20.1034 20.0692 20.1447 20.0308 20.6337 18.6398C20.9907 17.6244 21.296 16.5361 21.3879 15.9516L21.4341 15.6577L20.2615 14.8727C19.6165 14.441 19.0012 14.0664 18.8941 14.0402C18.7847 14.0136 18.7124 13.954 18.729 13.9042C18.7758 13.7634 18.2654 13.4007 13.84 10.4299C8.93831 7.13917 8.08656 6.58943 7.72019 6.48C7.53772 6.42554 7.42115 6.33664 7.36838 6.21192C7.32299 6.10457 6.93612 5.76724 6.45762 5.41782C4.91199 4.28917 4.77663 4.2307 4.2118 4.44904ZM16.9738 4.88294C16.402 5.05425 15.7799 5.19648 15.5912 5.19891C15.1425 5.20477 14.4663 5.52638 14.6163 5.6626C14.6708 5.71206 15.6249 6.44913 16.7365 7.30048C18.3652 8.54777 18.8008 8.84838 18.9792 8.84838H19.2007L19.1908 8.43742C19.1852 8.21144 19.2166 7.93592 19.2602 7.82528C19.304 7.71465 19.3397 7.5512 19.3397 7.46207C19.3397 7.37302 19.4078 7.08385 19.4911 6.81956C19.6106 6.43991 19.6322 6.24601 19.594 5.89624L19.5456 5.45355L18.8696 5.00687C18.4978 4.76123 18.1531 4.56275 18.1035 4.56583C18.0539 4.5689 17.5455 4.71163 16.9738 4.88294ZM4.76558 14.8265C4.64334 15.0256 3.72348 17.3003 3.49814 17.9608L3.22992 18.747L4.24091 19.5415L5.25197 20.336L6.14789 20.3024C6.94064 20.2727 7.07292 20.2493 7.29654 20.099C7.43556 20.0055 7.6614 19.9078 7.79841 19.8818C8.05974 19.8323 9.29737 19.3688 9.39445 19.2841C9.42542 19.2571 8.66723 18.4839 7.70958 17.566C6.75193 16.648 5.70617 15.6424 5.38576 15.3312C5.06527 15.02 4.78623 14.7929 4.76558 14.8265Z" fill="#C41341"/>
</svg>
