<svg width="24" height="24" viewBox="0 0 24 24" fill="none" xmlns="http://www.w3.org/2000/svg">
<g clip-path="url(#clip0_278_10047)">
<path fill-rule="evenodd" clip-rule="evenodd" d="M0 12.0001V24.0002L12.0117 23.9884L24.0234 23.9766L24.0353 11.9883L24.0471 0H12.0235H0V12.0001ZM0.0230625 12.0234C0.0230625 18.6234 0.0285 21.3165 0.0351562 18.008C0.0418125 14.6994 0.0418125 9.29944 0.0351562 6.00797C0.0285 2.71645 0.0230625 5.42344 0.0230625 12.0234ZM10.2345 3.92578C10.2499 4.02248 10.4161 5.04548 10.6039 6.19913L10.9453 8.29669L12.47 8.29678L13.9948 8.29688L14.3588 6.05859C14.559 4.82752 14.7219 3.80447 14.7208 3.78516C14.7197 3.76584 13.7035 3.75 12.4626 3.75H10.2065L10.2345 3.92578ZM10.9688 9.82031V10.5938H12.4688H13.9688V9.82031V9.04688H12.4688H10.9688V9.82031ZM3.75 12.4626C3.75 13.7035 3.76584 14.7196 3.78516 14.7208C3.80447 14.7218 4.82756 14.5588 6.05859 14.3583L8.29688 13.9939V12.4696V10.9453L6.19922 10.6037C5.04553 10.4158 4.02248 10.2495 3.92578 10.2343L3.75 10.2065V12.4626ZM9.04688 12.4688V13.9688H9.82031H10.5938V12.4688V10.9688H9.82031H9.04688V12.4688ZM11.9294 11.9534L11.4151 12.4693L11.9419 12.9961L12.4688 13.5229L12.9956 12.9961L13.5224 12.4693L13.0081 11.9534C12.7252 11.6697 12.4825 11.4375 12.4688 11.4375C12.455 11.4375 12.2123 11.6697 11.9294 11.9534ZM13.8159 13.8169L12.7496 14.8839L13.2892 15.422L13.8288 15.96L14.8947 14.8942L15.9606 13.8283L15.4214 13.2891L14.8822 12.7499L13.8159 13.8169ZM15.405 15.4153C14.8241 15.9967 14.3883 16.469 14.3977 16.5071C14.4067 16.5441 15.0026 17.4033 15.722 18.4165L17.0299 20.2587L18.6389 18.6502C19.5239 17.7655 20.2326 17.0267 20.2138 17.0084C20.0976 16.8951 16.5297 14.3906 16.4845 14.3906C16.4539 14.3906 15.9682 14.8517 15.405 15.4153Z" fill="#C41341"/>
</g>
<defs>
<clipPath id="clip0_278_10047">
<rect width="24" height="24" fill="white"/>
</clipPath>
</defs>
</svg>
