<svg width="24" height="24" viewBox="0 0 24 24" fill="none" xmlns="http://www.w3.org/2000/svg">
<path fill-rule="evenodd" clip-rule="evenodd" d="M10.0753 0.193645C7.61735 0.625952 5.5945 1.62726 3.82981 3.2852C2.46839 4.5642 1.33651 6.28981 0.733801 8.00513L0.504268 8.65834L0.717819 8.72346C0.83538 8.7593 2.44859 8.95513 4.30289 9.15851L7.67422 9.52834L7.97602 9.14235C8.52509 8.43989 9.15829 7.91887 9.90298 7.55667C10.3074 7.35995 10.6584 7.18419 10.6829 7.16608C10.7074 7.14806 10.9091 5.52654 11.1309 3.5629C11.5315 0.0197431 11.533 -0.00728233 11.3316 0.000551088C11.2199 0.00485947 10.6546 0.0918105 10.0753 0.193645ZM14.5754 3.79085C14.3696 5.6602 14.1827 7.25734 14.1601 7.34017C14.133 7.43966 14.3369 7.63373 14.7616 7.9126C15.5039 8.40004 16.0861 9.08556 16.4963 9.95575C16.655 10.2923 16.8204 10.5677 16.8637 10.5677C16.9071 10.5677 18.5183 10.7464 20.4441 10.965C22.3699 11.1834 23.9646 11.3432 23.9879 11.3199C24.0717 11.2363 23.7024 9.22852 23.4645 8.47416C22.3555 4.95852 19.703 2.12811 16.3065 0.835888C15.8314 0.655229 15.3319 0.481425 15.1963 0.4497L14.9498 0.392124L14.5754 3.79085ZM0 12.3273C0 12.4334 0.0703012 12.9952 0.156192 13.5758C0.749194 17.5833 3.1114 20.8742 6.67294 22.6547C7.63853 23.1374 8.78992 23.5692 8.86728 23.4775C8.88278 23.459 9.05642 21.9898 9.25311 20.2126C9.4497 18.4354 9.63305 16.8446 9.6605 16.6773C9.70482 16.4075 9.6657 16.3437 9.31243 16.1102C8.41214 15.5152 7.69383 14.575 7.34909 13.5404C7.23496 13.1979 7.12848 12.9178 7.1125 12.9178C7.09651 12.9178 5.50635 12.7415 3.5788 12.5261C1.65125 12.3107 0.0575551 12.1344 0.0371608 12.1344C0.0166685 12.1344 0 12.2212 0 12.3273ZM16.276 14.4588C15.8937 15.1828 15.0252 15.9853 14.1894 16.3868C13.7889 16.5791 13.3886 16.7366 13.2999 16.7366C13.2112 16.7366 13.1352 16.7476 13.1311 16.761C13.1269 16.7745 12.9375 18.4088 12.71 20.3927L12.2967 24L12.8401 23.9339C13.9803 23.7955 15.0649 23.5744 15.7796 23.3349C18.7618 22.3356 21.2594 20.1809 22.7013 17.3634C23.1395 16.5071 23.7039 14.9174 23.6049 14.8184C23.5639 14.7776 16.9568 13.9997 16.6192 13.9959C16.5651 13.9954 16.4107 14.2036 16.276 14.4588Z" fill="#C41341"/>
</svg>
