<svg width="164" height="164" viewBox="0 0 164 164" fill="none" xmlns="http://www.w3.org/2000/svg">
<path d="M52.1821 9.93945C53.5545 9.93945 54.667 11.052 54.667 12.4243C54.667 13.7967 53.5545 14.9092 52.1821 14.9092C50.8098 14.9092 49.6973 13.7967 49.6973 12.4243C49.6973 11.052 50.8098 9.93945 52.1821 9.93945Z" fill="#F6F4F9"/>
<path d="M57.1514 9.93945C58.5238 9.93945 59.6362 11.052 59.6362 12.4243C59.6362 13.7967 58.5238 14.9092 57.1514 14.9092C55.779 14.9092 54.6665 13.7967 54.6665 12.4243C54.6665 11.052 55.779 9.93945 57.1514 9.93945Z" fill="#F6F4F9"/>
<path d="M62.1211 9.93945C63.4935 9.93945 64.6059 11.052 64.6059 12.4243C64.6059 13.7967 63.4935 14.9092 62.1211 14.9092C60.7487 14.9092 59.6362 13.7967 59.6362 12.4243C59.6362 11.052 60.7487 9.93945 62.1211 9.93945Z" fill="#F6F4F9"/>
<path d="M77.0303 9.93945C78.4027 9.93945 79.5151 11.052 79.5151 12.4243C79.5151 13.7967 78.4027 14.9092 77.0303 14.9092C75.6579 14.9092 74.5454 13.7967 74.5454 12.4243C74.5454 11.052 75.6579 9.93945 77.0303 9.93945Z" fill="#F6F4F9"/>
<path d="M82 9.93945C83.3724 9.93945 84.4848 11.052 84.4848 12.4243C84.4848 13.7967 83.3724 14.9092 82 14.9092C80.6277 14.9092 79.5151 13.7967 79.5151 12.4243C79.5151 11.052 80.6277 9.93945 82 9.93945Z" fill="#F6F4F9"/>
<path d="M86.9697 9.93945C88.3421 9.93945 89.4546 11.052 89.4546 12.4243C89.4546 13.7967 88.3421 14.9092 86.9697 14.9092C85.5974 14.9092 84.4849 13.7967 84.4849 12.4243C84.4849 11.052 85.5974 9.93945 86.9697 9.93945Z" fill="#F6F4F9"/>
<path d="M101.879 9.93945C103.251 9.93945 104.364 11.052 104.364 12.4243C104.364 13.7967 103.251 14.9092 101.879 14.9092C100.507 14.9092 99.394 13.7967 99.394 12.4243C99.394 11.052 100.507 9.93945 101.879 9.93945Z" fill="#F6F4F9"/>
<path d="M52.1821 14.9092C53.5545 14.9092 54.667 16.0217 54.667 17.394C54.667 18.7664 53.5545 19.8789 52.1821 19.8789C50.8098 19.8789 49.6973 18.7664 49.6973 17.394C49.6973 16.0217 50.8098 14.9092 52.1821 14.9092Z" fill="#F6F4F9"/>
<path d="M57.1514 14.9092C58.5238 14.9092 59.6362 16.0217 59.6362 17.394C59.6362 18.7664 58.5238 19.8789 57.1514 19.8789C55.779 19.8789 54.6665 18.7664 54.6665 17.394C54.6665 16.0217 55.779 14.9092 57.1514 14.9092Z" fill="#F6F4F9"/>
<path d="M62.1211 14.9092C63.4935 14.9092 64.6059 16.0217 64.6059 17.394C64.6059 18.7664 63.4935 19.8789 62.1211 19.8789C60.7487 19.8789 59.6362 18.7664 59.6362 17.394C59.6362 16.0217 60.7487 14.9092 62.1211 14.9092Z" fill="#F6F4F9"/>
<path d="M67.0908 14.9092C68.4632 14.9092 69.5757 16.0217 69.5757 17.394C69.5757 18.7664 68.4632 19.8789 67.0908 19.8789C65.7185 19.8789 64.606 18.7664 64.606 17.394C64.606 16.0217 65.7185 14.9092 67.0908 14.9092Z" fill="#F6F4F9"/>
<path d="M72.0605 14.9092C73.4329 14.9092 74.5454 16.0217 74.5454 17.394C74.5454 18.7664 73.4329 19.8789 72.0605 19.8789C70.6882 19.8789 69.5757 18.7664 69.5757 17.394C69.5757 16.0217 70.6882 14.9092 72.0605 14.9092Z" fill="#F6F4F9"/>
<path d="M77.0303 14.9092C78.4027 14.9092 79.5151 16.0217 79.5151 17.394C79.5151 18.7664 78.4027 19.8789 77.0303 19.8789C75.6579 19.8789 74.5454 18.7664 74.5454 17.394C74.5454 16.0217 75.6579 14.9092 77.0303 14.9092Z" fill="#F6F4F9"/>
<path d="M82 14.9092C83.3724 14.9092 84.4848 16.0217 84.4848 17.394C84.4848 18.7664 83.3724 19.8789 82 19.8789C80.6277 19.8789 79.5151 18.7664 79.5151 17.394C79.5151 16.0217 80.6277 14.9092 82 14.9092Z" fill="#F6F4F9"/>
<path d="M86.9697 14.9092C88.3421 14.9092 89.4546 16.0217 89.4546 17.394C89.4546 18.7664 88.3421 19.8789 86.9697 19.8789C85.5974 19.8789 84.4849 18.7664 84.4849 17.394C84.4849 16.0217 85.5974 14.9092 86.9697 14.9092Z" fill="#F6F4F9"/>
<path d="M96.9092 14.9092C98.2816 14.9092 99.394 16.0217 99.394 17.394C99.394 18.7664 98.2816 19.8789 96.9092 19.8789C95.5368 19.8789 94.4243 18.7664 94.4243 17.394C94.4243 16.0217 95.5368 14.9092 96.9092 14.9092Z" fill="#F6F4F9"/>
<path d="M101.879 14.9092C103.251 14.9092 104.364 16.0217 104.364 17.394C104.364 18.7664 103.251 19.8789 101.879 19.8789C100.507 19.8789 99.394 18.7664 99.394 17.394C99.394 16.0217 100.507 14.9092 101.879 14.9092Z" fill="#F6F4F9"/>
<path d="M106.849 14.9092C108.221 14.9092 109.333 16.0217 109.333 17.394C109.333 18.7664 108.221 19.8789 106.849 19.8789C105.476 19.8789 104.364 18.7664 104.364 17.394C104.364 16.0217 105.476 14.9092 106.849 14.9092Z" fill="#F6F4F9"/>
<path d="M111.818 14.9092C113.191 14.9092 114.303 16.0217 114.303 17.394C114.303 18.7664 113.191 19.8789 111.818 19.8789C110.446 19.8789 109.333 18.7664 109.333 17.394C109.333 16.0217 110.446 14.9092 111.818 14.9092Z" fill="#F6F4F9"/>
<path d="M52.1821 19.8789C53.5545 19.8789 54.667 20.9914 54.667 22.3638C54.667 23.7362 53.5545 24.8486 52.1821 24.8486C50.8098 24.8486 49.6973 23.7362 49.6973 22.3638C49.6973 20.9914 50.8098 19.8789 52.1821 19.8789Z" fill="#F6F4F9"/>
<path d="M57.1514 19.8789C58.5238 19.8789 59.6362 20.9914 59.6362 22.3638C59.6362 23.7362 58.5238 24.8486 57.1514 24.8486C55.779 24.8486 54.6665 23.7362 54.6665 22.3638C54.6665 20.9914 55.779 19.8789 57.1514 19.8789Z" fill="#F6F4F9"/>
<path d="M62.1211 19.8789C63.4935 19.8789 64.6059 20.9914 64.6059 22.3638C64.6059 23.7362 63.4935 24.8486 62.1211 24.8486C60.7487 24.8486 59.6362 23.7362 59.6362 22.3638C59.6362 20.9914 60.7487 19.8789 62.1211 19.8789Z" fill="#F6F4F9"/>
<path d="M67.0908 19.8789C68.4632 19.8789 69.5757 20.9914 69.5757 22.3638C69.5757 23.7362 68.4632 24.8486 67.0908 24.8486C65.7185 24.8486 64.606 23.7362 64.606 22.3638C64.606 20.9914 65.7185 19.8789 67.0908 19.8789Z" fill="#F6F4F9"/>
<path d="M77.0303 19.8789C78.4027 19.8789 79.5151 20.9914 79.5151 22.3638C79.5151 23.7362 78.4027 24.8486 77.0303 24.8486C75.6579 24.8486 74.5454 23.7362 74.5454 22.3638C74.5454 20.9914 75.6579 19.8789 77.0303 19.8789Z" fill="#F6F4F9"/>
<path d="M82 19.8789C83.3724 19.8789 84.4848 20.9914 84.4848 22.3638C84.4848 23.7362 83.3724 24.8486 82 24.8486C80.6277 24.8486 79.5151 23.7362 79.5151 22.3638C79.5151 20.9914 80.6277 19.8789 82 19.8789Z" fill="#F6F4F9"/>
<path d="M111.818 19.8789C113.191 19.8789 114.303 20.9914 114.303 22.3638C114.303 23.7362 113.191 24.8486 111.818 24.8486C110.446 24.8486 109.333 23.7362 109.333 22.3638C109.333 20.9914 110.446 19.8789 111.818 19.8789Z" fill="#F6F4F9"/>
<path d="M57.1514 24.8486C58.5238 24.8486 59.6362 25.9611 59.6362 27.3335C59.6362 28.7059 58.5238 29.8183 57.1514 29.8183C55.779 29.8183 54.6665 28.7059 54.6665 27.3335C54.6665 25.9611 55.779 24.8486 57.1514 24.8486Z" fill="#F6F4F9"/>
<path d="M62.1211 24.8486C63.4935 24.8486 64.6059 25.9611 64.6059 27.3335C64.6059 28.7059 63.4935 29.8183 62.1211 29.8183C60.7487 29.8183 59.6362 28.7059 59.6362 27.3335C59.6362 25.9611 60.7487 24.8486 62.1211 24.8486Z" fill="#F6F4F9"/>
<path d="M67.0908 24.8486C68.4632 24.8486 69.5757 25.9611 69.5757 27.3335C69.5757 28.7059 68.4632 29.8183 67.0908 29.8183C65.7185 29.8183 64.606 28.7059 64.606 27.3335C64.606 25.9611 65.7185 24.8486 67.0908 24.8486Z" fill="#F6F4F9"/>
<path d="M72.0605 24.8486C73.4329 24.8486 74.5454 25.9611 74.5454 27.3335C74.5454 28.7059 73.4329 29.8183 72.0605 29.8183C70.6882 29.8183 69.5757 28.7059 69.5757 27.3335C69.5757 25.9611 70.6882 24.8486 72.0605 24.8486Z" fill="#F6F4F9"/>
<path d="M82 24.8486C83.3724 24.8486 84.4848 25.9611 84.4848 27.3335C84.4848 28.7059 83.3724 29.8183 82 29.8183C80.6277 29.8183 79.5151 28.7059 79.5151 27.3335C79.5151 25.9611 80.6277 24.8486 82 24.8486Z" fill="#F6F4F9"/>
<path d="M86.9697 24.8486C88.3421 24.8486 89.4546 25.9611 89.4546 27.3335C89.4546 28.7059 88.3421 29.8183 86.9697 29.8183C85.5974 29.8183 84.4849 28.7059 84.4849 27.3335C84.4849 25.9611 85.5974 24.8486 86.9697 24.8486Z" fill="#F6F4F9"/>
<path d="M96.9092 24.8486C98.2816 24.8486 99.394 25.9611 99.394 27.3335C99.394 28.7059 98.2816 29.8183 96.9092 29.8183C95.5368 29.8183 94.4243 28.7059 94.4243 27.3335C94.4243 25.9611 95.5368 24.8486 96.9092 24.8486Z" fill="#F6F4F9"/>
<path d="M106.849 24.8486C108.221 24.8486 109.333 25.9611 109.333 27.3335C109.333 28.7059 108.221 29.8183 106.849 29.8183C105.476 29.8183 104.364 28.7059 104.364 27.3335C104.364 25.9611 105.476 24.8486 106.849 24.8486Z" fill="#F6F4F9"/>
<path d="M111.818 24.8486C113.191 24.8486 114.303 25.9611 114.303 27.3335C114.303 28.7059 113.191 29.8183 111.818 29.8183C110.446 29.8183 109.333 28.7059 109.333 27.3335C109.333 25.9611 110.446 24.8486 111.818 24.8486Z" fill="#F6F4F9"/>
<path d="M52.1821 29.8184C53.5545 29.8184 54.667 30.9309 54.667 32.3032C54.667 33.6756 53.5545 34.7881 52.1821 34.7881C50.8098 34.7881 49.6973 33.6756 49.6973 32.3032C49.6973 30.9309 50.8098 29.8184 52.1821 29.8184Z" fill="#F6F4F9"/>
<path d="M57.1514 29.8184C58.5238 29.8184 59.6362 30.9309 59.6362 32.3032C59.6362 33.6756 58.5238 34.7881 57.1514 34.7881C55.779 34.7881 54.6665 33.6756 54.6665 32.3032C54.6665 30.9309 55.779 29.8184 57.1514 29.8184Z" fill="#F6F4F9"/>
<path d="M62.1211 29.8184C63.4935 29.8184 64.6059 30.9309 64.6059 32.3032C64.6059 33.6756 63.4935 34.7881 62.1211 34.7881C60.7487 34.7881 59.6362 33.6756 59.6362 32.3032C59.6362 30.9309 60.7487 29.8184 62.1211 29.8184Z" fill="#F6F4F9"/>
<path d="M72.0605 29.8184C73.4329 29.8184 74.5454 30.9309 74.5454 32.3032C74.5454 33.6756 73.4329 34.7881 72.0605 34.7881C70.6882 34.7881 69.5757 33.6756 69.5757 32.3032C69.5757 30.9309 70.6882 29.8184 72.0605 29.8184Z" fill="#F6F4F9"/>
<path d="M77.0303 29.8184C78.4027 29.8184 79.5151 30.9309 79.5151 32.3032C79.5151 33.6756 78.4027 34.7881 77.0303 34.7881C75.6579 34.7881 74.5454 33.6756 74.5454 32.3032C74.5454 30.9309 75.6579 29.8184 77.0303 29.8184Z" fill="#F6F4F9"/>
<path d="M86.9697 29.8184C88.3421 29.8184 89.4546 30.9309 89.4546 32.3032C89.4546 33.6756 88.3421 34.7881 86.9697 34.7881C85.5974 34.7881 84.4849 33.6756 84.4849 32.3032C84.4849 30.9309 85.5974 29.8184 86.9697 29.8184Z" fill="#F6F4F9"/>
<path d="M96.9092 29.8184C98.2816 29.8184 99.394 30.9309 99.394 32.3032C99.394 33.6756 98.2816 34.7881 96.9092 34.7881C95.5368 34.7881 94.4243 33.6756 94.4243 32.3032C94.4243 30.9309 95.5368 29.8184 96.9092 29.8184Z" fill="#F6F4F9"/>
<path d="M101.879 29.8184C103.251 29.8184 104.364 30.9309 104.364 32.3032C104.364 33.6756 103.251 34.7881 101.879 34.7881C100.507 34.7881 99.394 33.6756 99.394 32.3032C99.394 30.9309 100.507 29.8184 101.879 29.8184Z" fill="#F6F4F9"/>
<path d="M106.849 29.8184C108.221 29.8184 109.333 30.9309 109.333 32.3032C109.333 33.6756 108.221 34.7881 106.849 34.7881C105.476 34.7881 104.364 33.6756 104.364 32.3032C104.364 30.9309 105.476 29.8184 106.849 29.8184Z" fill="#F6F4F9"/>
<path d="M57.1514 34.7881C58.5238 34.7881 59.6362 35.9006 59.6362 37.2729C59.6362 38.6453 58.5238 39.7578 57.1514 39.7578C55.779 39.7578 54.6665 38.6453 54.6665 37.2729C54.6665 35.9006 55.779 34.7881 57.1514 34.7881Z" fill="#F6F4F9"/>
<path d="M77.0303 34.7881C78.4027 34.7881 79.5151 35.9006 79.5151 37.2729C79.5151 38.6453 78.4027 39.7578 77.0303 39.7578C75.6579 39.7578 74.5454 38.6453 74.5454 37.2729C74.5454 35.9006 75.6579 34.7881 77.0303 34.7881Z" fill="#F6F4F9"/>
<path d="M82 34.7881C83.3724 34.7881 84.4848 35.9006 84.4848 37.2729C84.4848 38.6453 83.3724 39.7578 82 39.7578C80.6277 39.7578 79.5151 38.6453 79.5151 37.2729C79.5151 35.9006 80.6277 34.7881 82 34.7881Z" fill="#F6F4F9"/>
<path d="M96.9092 34.7881C98.2816 34.7881 99.394 35.9006 99.394 37.2729C99.394 38.6453 98.2816 39.7578 96.9092 39.7578C95.5368 39.7578 94.4243 38.6453 94.4243 37.2729C94.4243 35.9006 95.5368 34.7881 96.9092 34.7881Z" fill="#F6F4F9"/>
<path d="M111.818 34.7881C113.191 34.7881 114.303 35.9006 114.303 37.2729C114.303 38.6453 113.191 39.7578 111.818 39.7578C110.446 39.7578 109.333 38.6453 109.333 37.2729C109.333 35.9006 110.446 34.7881 111.818 34.7881Z" fill="#F6F4F9"/>
<path d="M52.1821 39.7578C53.5545 39.7578 54.667 40.8703 54.667 42.2427C54.667 43.6151 53.5545 44.7275 52.1821 44.7275C50.8098 44.7275 49.6973 43.6151 49.6973 42.2427C49.6973 40.8703 50.8098 39.7578 52.1821 39.7578Z" fill="#F6F4F9"/>
<path d="M62.1211 39.7578C63.4935 39.7578 64.6059 40.8703 64.6059 42.2427C64.6059 43.6151 63.4935 44.7275 62.1211 44.7275C60.7487 44.7275 59.6362 43.6151 59.6362 42.2427C59.6362 40.8703 60.7487 39.7578 62.1211 39.7578Z" fill="#F6F4F9"/>
<path d="M72.0605 39.7578C73.4329 39.7578 74.5454 40.8703 74.5454 42.2427C74.5454 43.6151 73.4329 44.7275 72.0605 44.7275C70.6882 44.7275 69.5757 43.6151 69.5757 42.2427C69.5757 40.8703 70.6882 39.7578 72.0605 39.7578Z" fill="#F6F4F9"/>
<path d="M82 39.7578C83.3724 39.7578 84.4848 40.8703 84.4848 42.2427C84.4848 43.6151 83.3724 44.7275 82 44.7275C80.6277 44.7275 79.5151 43.6151 79.5151 42.2427C79.5151 40.8703 80.6277 39.7578 82 39.7578Z" fill="#F6F4F9"/>
<path d="M91.9394 39.7578C93.3118 39.7578 94.4243 40.8703 94.4243 42.2427C94.4243 43.6151 93.3118 44.7275 91.9394 44.7275C90.5671 44.7275 89.4546 43.6151 89.4546 42.2427C89.4546 40.8703 90.5671 39.7578 91.9394 39.7578Z" fill="#F6F4F9"/>
<path d="M101.879 39.7578C103.251 39.7578 104.364 40.8703 104.364 42.2427C104.364 43.6151 103.251 44.7275 101.879 44.7275C100.507 44.7275 99.394 43.6151 99.394 42.2427C99.394 40.8703 100.507 39.7578 101.879 39.7578Z" fill="#F6F4F9"/>
<path d="M111.818 39.7578C113.191 39.7578 114.303 40.8703 114.303 42.2427C114.303 43.6151 113.191 44.7275 111.818 44.7275C110.446 44.7275 109.333 43.6151 109.333 42.2427C109.333 40.8703 110.446 39.7578 111.818 39.7578Z" fill="#F6F4F9"/>
<path d="M57.1514 44.7275C58.5238 44.7275 59.6362 45.8401 59.6362 47.2124C59.6362 48.5848 58.5238 49.6972 57.1514 49.6972C55.779 49.6972 54.6665 48.5848 54.6665 47.2124C54.6665 45.8401 55.779 44.7275 57.1514 44.7275Z" fill="#F6F4F9"/>
<path d="M72.0605 44.7275C73.4329 44.7275 74.5454 45.8401 74.5454 47.2124C74.5454 48.5848 73.4329 49.6972 72.0605 49.6972C70.6882 49.6972 69.5757 48.5848 69.5757 47.2124C69.5757 45.8401 70.6882 44.7275 72.0605 44.7275Z" fill="#F6F4F9"/>
<path d="M82 44.7275C83.3724 44.7275 84.4848 45.8401 84.4848 47.2124C84.4848 48.5848 83.3724 49.6972 82 49.6972C80.6277 49.6972 79.5151 48.5848 79.5151 47.2124C79.5151 45.8401 80.6277 44.7275 82 44.7275Z" fill="#F6F4F9"/>
<path d="M12.4243 49.6973C13.7967 49.6973 14.9092 50.8098 14.9092 52.1821C14.9092 53.5545 13.7967 54.667 12.4243 54.667C11.052 54.667 9.93945 53.5545 9.93945 52.1821C9.93945 50.8098 11.052 49.6973 12.4243 49.6973Z" fill="#F6F4F9"/>
<path d="M27.3335 49.6973C28.7059 49.6973 29.8183 50.8098 29.8183 52.1821C29.8183 53.5545 28.7059 54.667 27.3335 54.667C25.9611 54.667 24.8486 53.5545 24.8486 52.1821C24.8486 50.8098 25.9611 49.6973 27.3335 49.6973Z" fill="#F6F4F9"/>
<path d="M32.3032 49.6973C33.6756 49.6973 34.7881 50.8098 34.7881 52.1821C34.7881 53.5545 33.6756 54.667 32.3032 54.667C30.9309 54.667 29.8184 53.5545 29.8184 52.1821C29.8184 50.8098 30.9309 49.6973 32.3032 49.6973Z" fill="#F6F4F9"/>
<path d="M37.2729 49.6973C38.6453 49.6973 39.7578 50.8098 39.7578 52.1821C39.7578 53.5545 38.6453 54.667 37.2729 54.667C35.9006 54.667 34.7881 53.5545 34.7881 52.1821C34.7881 50.8098 35.9006 49.6973 37.2729 49.6973Z" fill="#F6F4F9"/>
<path d="M42.2427 49.6973C43.6151 49.6973 44.7275 50.8098 44.7275 52.1821C44.7275 53.5545 43.6151 54.667 42.2427 54.667C40.8703 54.667 39.7578 53.5545 39.7578 52.1821C39.7578 50.8098 40.8703 49.6973 42.2427 49.6973Z" fill="#F6F4F9"/>
<path d="M47.2124 49.6973C48.5848 49.6973 49.6972 50.8098 49.6972 52.1821C49.6972 53.5545 48.5848 54.667 47.2124 54.667C45.8401 54.667 44.7275 53.5545 44.7275 52.1821C44.7275 50.8098 45.8401 49.6973 47.2124 49.6973Z" fill="#F6F4F9"/>
<path d="M52.1821 49.6973C53.5545 49.6973 54.667 50.8098 54.667 52.1821C54.667 53.5545 53.5545 54.667 52.1821 54.667C50.8098 54.667 49.6973 53.5545 49.6973 52.1821C49.6973 50.8098 50.8098 49.6973 52.1821 49.6973Z" fill="#F6F4F9"/>
<path d="M57.1514 49.6973C58.5238 49.6973 59.6362 50.8098 59.6362 52.1821C59.6362 53.5545 58.5238 54.667 57.1514 54.667C55.779 54.667 54.6665 53.5545 54.6665 52.1821C54.6665 50.8098 55.779 49.6973 57.1514 49.6973Z" fill="#F6F4F9"/>
<path d="M72.0605 49.6973C73.4329 49.6973 74.5454 50.8098 74.5454 52.1821C74.5454 53.5545 73.4329 54.667 72.0605 54.667C70.6882 54.667 69.5757 53.5545 69.5757 52.1821C69.5757 50.8098 70.6882 49.6973 72.0605 49.6973Z" fill="#F6F4F9"/>
<path d="M77.0303 49.6973C78.4027 49.6973 79.5151 50.8098 79.5151 52.1821C79.5151 53.5545 78.4027 54.667 77.0303 54.667C75.6579 54.667 74.5454 53.5545 74.5454 52.1821C74.5454 50.8098 75.6579 49.6973 77.0303 49.6973Z" fill="#F6F4F9"/>
<path d="M82 49.6973C83.3724 49.6973 84.4848 50.8098 84.4848 52.1821C84.4848 53.5545 83.3724 54.667 82 54.667C80.6277 54.667 79.5151 53.5545 79.5151 52.1821C79.5151 50.8098 80.6277 49.6973 82 49.6973Z" fill="#F6F4F9"/>
<path d="M86.9697 49.6973C88.3421 49.6973 89.4546 50.8098 89.4546 52.1821C89.4546 53.5545 88.3421 54.667 86.9697 54.667C85.5974 54.667 84.4849 53.5545 84.4849 52.1821C84.4849 50.8098 85.5974 49.6973 86.9697 49.6973Z" fill="#F6F4F9"/>
<path d="M91.9394 49.6973C93.3118 49.6973 94.4243 50.8098 94.4243 52.1821C94.4243 53.5545 93.3118 54.667 91.9394 54.667C90.5671 54.667 89.4546 53.5545 89.4546 52.1821C89.4546 50.8098 90.5671 49.6973 91.9394 49.6973Z" fill="#F6F4F9"/>
<path d="M96.9092 49.6973C98.2816 49.6973 99.394 50.8098 99.394 52.1821C99.394 53.5545 98.2816 54.667 96.9092 54.667C95.5368 54.667 94.4243 53.5545 94.4243 52.1821C94.4243 50.8098 95.5368 49.6973 96.9092 49.6973Z" fill="#F6F4F9"/>
<path d="M116.788 49.6973C118.16 49.6973 119.273 50.8098 119.273 52.1821C119.273 53.5545 118.16 54.667 116.788 54.667C115.416 54.667 114.303 53.5545 114.303 52.1821C114.303 50.8098 115.416 49.6973 116.788 49.6973Z" fill="#F6F4F9"/>
<path d="M131.697 49.6973C133.07 49.6973 134.182 50.8098 134.182 52.1821C134.182 53.5545 133.07 54.667 131.697 54.667C130.325 54.667 129.212 53.5545 129.212 52.1821C129.212 50.8098 130.325 49.6973 131.697 49.6973Z" fill="#F6F4F9"/>
<path d="M141.636 49.6973C143.009 49.6973 144.121 50.8098 144.121 52.1821C144.121 53.5545 143.009 54.667 141.636 54.667C140.264 54.667 139.151 53.5545 139.151 52.1821C139.151 50.8098 140.264 49.6973 141.636 49.6973Z" fill="#F6F4F9"/>
<path d="M146.606 49.6973C147.978 49.6973 149.091 50.8098 149.091 52.1821C149.091 53.5545 147.978 54.667 146.606 54.667C145.234 54.667 144.121 53.5545 144.121 52.1821C144.121 50.8098 145.234 49.6973 146.606 49.6973Z" fill="#F6F4F9"/>
<path d="M151.576 49.6973C152.948 49.6973 154.061 50.8098 154.061 52.1821C154.061 53.5545 152.948 54.667 151.576 54.667C150.203 54.667 149.091 53.5545 149.091 52.1821C149.091 50.8098 150.203 49.6973 151.576 49.6973Z" fill="#F6F4F9"/>
<path d="M12.4243 54.6665C13.7967 54.6665 14.9092 55.779 14.9092 57.1514C14.9092 58.5238 13.7967 59.6362 12.4243 59.6362C11.052 59.6362 9.93945 58.5238 9.93945 57.1514C9.93945 55.779 11.052 54.6665 12.4243 54.6665Z" fill="#F6F4F9"/>
<path d="M22.3638 54.6665C23.7362 54.6665 24.8486 55.779 24.8486 57.1514C24.8486 58.5238 23.7362 59.6362 22.3638 59.6362C20.9914 59.6362 19.8789 58.5238 19.8789 57.1514C19.8789 55.779 20.9914 54.6665 22.3638 54.6665Z" fill="#F6F4F9"/>
<path d="M52.1821 54.6665C53.5545 54.6665 54.667 55.779 54.667 57.1514C54.667 58.5238 53.5545 59.6362 52.1821 59.6362C50.8098 59.6362 49.6973 58.5238 49.6973 57.1514C49.6973 55.779 50.8098 54.6665 52.1821 54.6665Z" fill="#F6F4F9"/>
<path d="M72.0605 54.6665C73.4329 54.6665 74.5454 55.779 74.5454 57.1514C74.5454 58.5238 73.4329 59.6362 72.0605 59.6362C70.6882 59.6362 69.5757 58.5238 69.5757 57.1514C69.5757 55.779 70.6882 54.6665 72.0605 54.6665Z" fill="#F6F4F9"/>
<path d="M82 54.6665C83.3724 54.6665 84.4848 55.779 84.4848 57.1514C84.4848 58.5238 83.3724 59.6362 82 59.6362C80.6277 59.6362 79.5151 58.5238 79.5151 57.1514C79.5151 55.779 80.6277 54.6665 82 54.6665Z" fill="#F6F4F9"/>
<path d="M96.9092 54.6665C98.2816 54.6665 99.394 55.779 99.394 57.1514C99.394 58.5238 98.2816 59.6362 96.9092 59.6362C95.5368 59.6362 94.4243 58.5238 94.4243 57.1514C94.4243 55.779 95.5368 54.6665 96.9092 54.6665Z" fill="#F6F4F9"/>
<path d="M106.849 54.6665C108.221 54.6665 109.333 55.779 109.333 57.1514C109.333 58.5238 108.221 59.6362 106.849 59.6362C105.476 59.6362 104.364 58.5238 104.364 57.1514C104.364 55.779 105.476 54.6665 106.849 54.6665Z" fill="#F6F4F9"/>
<path d="M116.788 54.6665C118.16 54.6665 119.273 55.779 119.273 57.1514C119.273 58.5238 118.16 59.6362 116.788 59.6362C115.416 59.6362 114.303 58.5238 114.303 57.1514C114.303 55.779 115.416 54.6665 116.788 54.6665Z" fill="#F6F4F9"/>
<path d="M126.728 54.6665C128.1 54.6665 129.212 55.779 129.212 57.1514C129.212 58.5238 128.1 59.6362 126.728 59.6362C125.355 59.6362 124.243 58.5238 124.243 57.1514C124.243 55.779 125.355 54.6665 126.728 54.6665Z" fill="#F6F4F9"/>
<path d="M131.697 54.6665C133.07 54.6665 134.182 55.779 134.182 57.1514C134.182 58.5238 133.07 59.6362 131.697 59.6362C130.325 59.6362 129.212 58.5238 129.212 57.1514C129.212 55.779 130.325 54.6665 131.697 54.6665Z" fill="#F6F4F9"/>
<path d="M141.636 54.6665C143.009 54.6665 144.121 55.779 144.121 57.1514C144.121 58.5238 143.009 59.6362 141.636 59.6362C140.264 59.6362 139.151 58.5238 139.151 57.1514C139.151 55.779 140.264 54.6665 141.636 54.6665Z" fill="#F6F4F9"/>
<path d="M146.606 54.6665C147.978 54.6665 149.091 55.779 149.091 57.1514C149.091 58.5238 147.978 59.6362 146.606 59.6362C145.234 59.6362 144.121 58.5238 144.121 57.1514C144.121 55.779 145.234 54.6665 146.606 54.6665Z" fill="#F6F4F9"/>
<path d="M17.394 59.6362C18.7664 59.6362 19.8789 60.7487 19.8789 62.1211C19.8789 63.4935 18.7664 64.6059 17.394 64.6059C16.0217 64.6059 14.9092 63.4935 14.9092 62.1211C14.9092 60.7487 16.0217 59.6362 17.394 59.6362Z" fill="#F6F4F9"/>
<path d="M22.3638 59.6362C23.7362 59.6362 24.8486 60.7487 24.8486 62.1211C24.8486 63.4935 23.7362 64.6059 22.3638 64.6059C20.9914 64.6059 19.8789 63.4935 19.8789 62.1211C19.8789 60.7487 20.9914 59.6362 22.3638 59.6362Z" fill="#F6F4F9"/>
<path d="M32.3032 59.6362C33.6756 59.6362 34.7881 60.7487 34.7881 62.1211C34.7881 63.4935 33.6756 64.6059 32.3032 64.6059C30.9309 64.6059 29.8184 63.4935 29.8184 62.1211C29.8184 60.7487 30.9309 59.6362 32.3032 59.6362Z" fill="#F6F4F9"/>
<path d="M37.2729 59.6362C38.6453 59.6362 39.7578 60.7487 39.7578 62.1211C39.7578 63.4935 38.6453 64.6059 37.2729 64.6059C35.9006 64.6059 34.7881 63.4935 34.7881 62.1211C34.7881 60.7487 35.9006 59.6362 37.2729 59.6362Z" fill="#F6F4F9"/>
<path d="M42.2427 59.6362C43.6151 59.6362 44.7275 60.7487 44.7275 62.1211C44.7275 63.4935 43.6151 64.6059 42.2427 64.6059C40.8703 64.6059 39.7578 63.4935 39.7578 62.1211C39.7578 60.7487 40.8703 59.6362 42.2427 59.6362Z" fill="#F6F4F9"/>
<path d="M57.1514 59.6362C58.5238 59.6362 59.6362 60.7487 59.6362 62.1211C59.6362 63.4935 58.5238 64.6059 57.1514 64.6059C55.779 64.6059 54.6665 63.4935 54.6665 62.1211C54.6665 60.7487 55.779 59.6362 57.1514 59.6362Z" fill="#F6F4F9"/>
<path d="M62.1211 59.6362C63.4935 59.6362 64.6059 60.7487 64.6059 62.1211C64.6059 63.4935 63.4935 64.6059 62.1211 64.6059C60.7487 64.6059 59.6362 63.4935 59.6362 62.1211C59.6362 60.7487 60.7487 59.6362 62.1211 59.6362Z" fill="#F6F4F9"/>
<path d="M82 59.6362C83.3724 59.6362 84.4848 60.7487 84.4848 62.1211C84.4848 63.4935 83.3724 64.6059 82 64.6059C80.6277 64.6059 79.5151 63.4935 79.5151 62.1211C79.5151 60.7487 80.6277 59.6362 82 59.6362Z" fill="#F6F4F9"/>
<path d="M96.9092 59.6362C98.2816 59.6362 99.394 60.7487 99.394 62.1211C99.394 63.4935 98.2816 64.6059 96.9092 64.6059C95.5368 64.6059 94.4243 63.4935 94.4243 62.1211C94.4243 60.7487 95.5368 59.6362 96.9092 59.6362Z" fill="#F6F4F9"/>
<path d="M101.879 59.6362C103.251 59.6362 104.364 60.7487 104.364 62.1211C104.364 63.4935 103.251 64.6059 101.879 64.6059C100.507 64.6059 99.394 63.4935 99.394 62.1211C99.394 60.7487 100.507 59.6362 101.879 59.6362Z" fill="#F6F4F9"/>
<path d="M116.788 59.6362C118.16 59.6362 119.273 60.7487 119.273 62.1211C119.273 63.4935 118.16 64.6059 116.788 64.6059C115.416 64.6059 114.303 63.4935 114.303 62.1211C114.303 60.7487 115.416 59.6362 116.788 59.6362Z" fill="#F6F4F9"/>
<path d="M126.728 59.6362C128.1 59.6362 129.212 60.7487 129.212 62.1211C129.212 63.4935 128.1 64.6059 126.728 64.6059C125.355 64.6059 124.243 63.4935 124.243 62.1211C124.243 60.7487 125.355 59.6362 126.728 59.6362Z" fill="#F6F4F9"/>
<path d="M141.636 59.6362C143.009 59.6362 144.121 60.7487 144.121 62.1211C144.121 63.4935 143.009 64.6059 141.636 64.6059C140.264 64.6059 139.151 63.4935 139.151 62.1211C139.151 60.7487 140.264 59.6362 141.636 59.6362Z" fill="#F6F4F9"/>
<path d="M27.3335 64.606C28.7059 64.606 29.8183 65.7185 29.8183 67.0908C29.8183 68.4632 28.7059 69.5757 27.3335 69.5757C25.9611 69.5757 24.8486 68.4632 24.8486 67.0908C24.8486 65.7185 25.9611 64.606 27.3335 64.606Z" fill="#F6F4F9"/>
<path d="M32.3032 64.606C33.6756 64.606 34.7881 65.7185 34.7881 67.0908C34.7881 68.4632 33.6756 69.5757 32.3032 69.5757C30.9309 69.5757 29.8184 68.4632 29.8184 67.0908C29.8184 65.7185 30.9309 64.606 32.3032 64.606Z" fill="#F6F4F9"/>
<path d="M52.1821 64.606C53.5545 64.606 54.667 65.7185 54.667 67.0908C54.667 68.4632 53.5545 69.5757 52.1821 69.5757C50.8098 69.5757 49.6973 68.4632 49.6973 67.0908C49.6973 65.7185 50.8098 64.606 52.1821 64.606Z" fill="#F6F4F9"/>
<path d="M57.1514 64.606C58.5238 64.606 59.6362 65.7185 59.6362 67.0908C59.6362 68.4632 58.5238 69.5757 57.1514 69.5757C55.779 69.5757 54.6665 68.4632 54.6665 67.0908C54.6665 65.7185 55.779 64.606 57.1514 64.606Z" fill="#F6F4F9"/>
<path d="M62.1211 64.606C63.4935 64.606 64.6059 65.7185 64.6059 67.0908C64.6059 68.4632 63.4935 69.5757 62.1211 69.5757C60.7487 69.5757 59.6362 68.4632 59.6362 67.0908C59.6362 65.7185 60.7487 64.606 62.1211 64.606Z" fill="#F6F4F9"/>
<path d="M82 64.606C83.3724 64.606 84.4848 65.7185 84.4848 67.0908C84.4848 68.4632 83.3724 69.5757 82 69.5757C80.6277 69.5757 79.5151 68.4632 79.5151 67.0908C79.5151 65.7185 80.6277 64.606 82 64.606Z" fill="#F6F4F9"/>
<path d="M86.9697 64.606C88.3421 64.606 89.4546 65.7185 89.4546 67.0908C89.4546 68.4632 88.3421 69.5757 86.9697 69.5757C85.5974 69.5757 84.4849 68.4632 84.4849 67.0908C84.4849 65.7185 85.5974 64.606 86.9697 64.606Z" fill="#F6F4F9"/>
<path d="M96.9092 64.606C98.2816 64.606 99.394 65.7185 99.394 67.0908C99.394 68.4632 98.2816 69.5757 96.9092 69.5757C95.5368 69.5757 94.4243 68.4632 94.4243 67.0908C94.4243 65.7185 95.5368 64.606 96.9092 64.606Z" fill="#F6F4F9"/>
<path d="M111.818 64.606C113.191 64.606 114.303 65.7185 114.303 67.0908C114.303 68.4632 113.191 69.5757 111.818 69.5757C110.446 69.5757 109.333 68.4632 109.333 67.0908C109.333 65.7185 110.446 64.606 111.818 64.606Z" fill="#F6F4F9"/>
<path d="M116.788 64.606C118.16 64.606 119.273 65.7185 119.273 67.0908C119.273 68.4632 118.16 69.5757 116.788 69.5757C115.416 69.5757 114.303 68.4632 114.303 67.0908C114.303 65.7185 115.416 64.606 116.788 64.606Z" fill="#F6F4F9"/>
<path d="M121.758 64.606C123.13 64.606 124.243 65.7185 124.243 67.0908C124.243 68.4632 123.13 69.5757 121.758 69.5757C120.385 69.5757 119.273 68.4632 119.273 67.0908C119.273 65.7185 120.385 64.606 121.758 64.606Z" fill="#F6F4F9"/>
<path d="M136.666 64.606C138.039 64.606 139.151 65.7185 139.151 67.0908C139.151 68.4632 138.039 69.5757 136.666 69.5757C135.294 69.5757 134.182 68.4632 134.182 67.0908C134.182 65.7185 135.294 64.606 136.666 64.606Z" fill="#F6F4F9"/>
<path d="M151.576 64.606C152.948 64.606 154.061 65.7185 154.061 67.0908C154.061 68.4632 152.948 69.5757 151.576 69.5757C150.203 69.5757 149.091 68.4632 149.091 67.0908C149.091 65.7185 150.203 64.606 151.576 64.606Z" fill="#F6F4F9"/>
<path d="M12.4243 69.5757C13.7967 69.5757 14.9092 70.6882 14.9092 72.0605C14.9092 73.4329 13.7967 74.5454 12.4243 74.5454C11.052 74.5454 9.93945 73.4329 9.93945 72.0605C9.93945 70.6882 11.052 69.5757 12.4243 69.5757Z" fill="#F6F4F9"/>
<path d="M17.394 69.5757C18.7664 69.5757 19.8789 70.6882 19.8789 72.0605C19.8789 73.4329 18.7664 74.5454 17.394 74.5454C16.0217 74.5454 14.9092 73.4329 14.9092 72.0605C14.9092 70.6882 16.0217 69.5757 17.394 69.5757Z" fill="#F6F4F9"/>
<path d="M22.3638 69.5757C23.7362 69.5757 24.8486 70.6882 24.8486 72.0605C24.8486 73.4329 23.7362 74.5454 22.3638 74.5454C20.9914 74.5454 19.8789 73.4329 19.8789 72.0605C19.8789 70.6882 20.9914 69.5757 22.3638 69.5757Z" fill="#F6F4F9"/>
<path d="M27.3335 69.5757C28.7059 69.5757 29.8183 70.6882 29.8183 72.0605C29.8183 73.4329 28.7059 74.5454 27.3335 74.5454C25.9611 74.5454 24.8486 73.4329 24.8486 72.0605C24.8486 70.6882 25.9611 69.5757 27.3335 69.5757Z" fill="#F6F4F9"/>
<path d="M42.2427 69.5757C43.6151 69.5757 44.7275 70.6882 44.7275 72.0605C44.7275 73.4329 43.6151 74.5454 42.2427 74.5454C40.8703 74.5454 39.7578 73.4329 39.7578 72.0605C39.7578 70.6882 40.8703 69.5757 42.2427 69.5757Z" fill="#F6F4F9"/>
<path d="M62.1211 69.5757C63.4935 69.5757 64.6059 70.6882 64.6059 72.0605C64.6059 73.4329 63.4935 74.5454 62.1211 74.5454C60.7487 74.5454 59.6362 73.4329 59.6362 72.0605C59.6362 70.6882 60.7487 69.5757 62.1211 69.5757Z" fill="#F6F4F9"/>
<path d="M72.0605 69.5757C73.4329 69.5757 74.5454 70.6882 74.5454 72.0605C74.5454 73.4329 73.4329 74.5454 72.0605 74.5454C70.6882 74.5454 69.5757 73.4329 69.5757 72.0605C69.5757 70.6882 70.6882 69.5757 72.0605 69.5757Z" fill="#F6F4F9"/>
<path d="M77.0303 69.5757C78.4027 69.5757 79.5151 70.6882 79.5151 72.0605C79.5151 73.4329 78.4027 74.5454 77.0303 74.5454C75.6579 74.5454 74.5454 73.4329 74.5454 72.0605C74.5454 70.6882 75.6579 69.5757 77.0303 69.5757Z" fill="#F6F4F9"/>
<path d="M82 69.5757C83.3724 69.5757 84.4848 70.6882 84.4848 72.0605C84.4848 73.4329 83.3724 74.5454 82 74.5454C80.6277 74.5454 79.5151 73.4329 79.5151 72.0605C79.5151 70.6882 80.6277 69.5757 82 69.5757Z" fill="#F6F4F9"/>
<path d="M101.879 69.5757C103.251 69.5757 104.364 70.6882 104.364 72.0605C104.364 73.4329 103.251 74.5454 101.879 74.5454C100.507 74.5454 99.394 73.4329 99.394 72.0605C99.394 70.6882 100.507 69.5757 101.879 69.5757Z" fill="#F6F4F9"/>
<path d="M111.818 69.5757C113.191 69.5757 114.303 70.6882 114.303 72.0605C114.303 73.4329 113.191 74.5454 111.818 74.5454C110.446 74.5454 109.333 73.4329 109.333 72.0605C109.333 70.6882 110.446 69.5757 111.818 69.5757Z" fill="#F6F4F9"/>
<path d="M121.758 69.5757C123.13 69.5757 124.243 70.6882 124.243 72.0605C124.243 73.4329 123.13 74.5454 121.758 74.5454C120.385 74.5454 119.273 73.4329 119.273 72.0605C119.273 70.6882 120.385 69.5757 121.758 69.5757Z" fill="#F6F4F9"/>
<path d="M126.728 69.5757C128.1 69.5757 129.212 70.6882 129.212 72.0605C129.212 73.4329 128.1 74.5454 126.728 74.5454C125.355 74.5454 124.243 73.4329 124.243 72.0605C124.243 70.6882 125.355 69.5757 126.728 69.5757Z" fill="#F6F4F9"/>
<path d="M151.576 69.5757C152.948 69.5757 154.061 70.6882 154.061 72.0605C154.061 73.4329 152.948 74.5454 151.576 74.5454C150.203 74.5454 149.091 73.4329 149.091 72.0605C149.091 70.6882 150.203 69.5757 151.576 69.5757Z" fill="#F6F4F9"/>
<path d="M22.3638 74.5454C23.7362 74.5454 24.8486 75.6579 24.8486 77.0303C24.8486 78.4027 23.7362 79.5151 22.3638 79.5151C20.9914 79.5151 19.8789 78.4027 19.8789 77.0303C19.8789 75.6579 20.9914 74.5454 22.3638 74.5454Z" fill="#F6F4F9"/>
<path d="M67.0908 74.5454C68.4632 74.5454 69.5757 75.6579 69.5757 77.0303C69.5757 78.4027 68.4632 79.5151 67.0908 79.5151C65.7185 79.5151 64.606 78.4027 64.606 77.0303C64.606 75.6579 65.7185 74.5454 67.0908 74.5454Z" fill="#F6F4F9"/>
<path d="M72.0605 74.5454C73.4329 74.5454 74.5454 75.6579 74.5454 77.0303C74.5454 78.4027 73.4329 79.5151 72.0605 79.5151C70.6882 79.5151 69.5757 78.4027 69.5757 77.0303C69.5757 75.6579 70.6882 74.5454 72.0605 74.5454Z" fill="#F6F4F9"/>
<path d="M96.9092 74.5454C98.2816 74.5454 99.394 75.6579 99.394 77.0303C99.394 78.4027 98.2816 79.5151 96.9092 79.5151C95.5368 79.5151 94.4243 78.4027 94.4243 77.0303C94.4243 75.6579 95.5368 74.5454 96.9092 74.5454Z" fill="#F6F4F9"/>
<path d="M101.879 74.5454C103.251 74.5454 104.364 75.6579 104.364 77.0303C104.364 78.4027 103.251 79.5151 101.879 79.5151C100.507 79.5151 99.394 78.4027 99.394 77.0303C99.394 75.6579 100.507 74.5454 101.879 74.5454Z" fill="#F6F4F9"/>
<path d="M116.788 74.5454C118.16 74.5454 119.273 75.6579 119.273 77.0303C119.273 78.4027 118.16 79.5151 116.788 79.5151C115.416 79.5151 114.303 78.4027 114.303 77.0303C114.303 75.6579 115.416 74.5454 116.788 74.5454Z" fill="#F6F4F9"/>
<path d="M121.758 74.5454C123.13 74.5454 124.243 75.6579 124.243 77.0303C124.243 78.4027 123.13 79.5151 121.758 79.5151C120.385 79.5151 119.273 78.4027 119.273 77.0303C119.273 75.6579 120.385 74.5454 121.758 74.5454Z" fill="#F6F4F9"/>
<path d="M131.697 74.5454C133.07 74.5454 134.182 75.6579 134.182 77.0303C134.182 78.4027 133.07 79.5151 131.697 79.5151C130.325 79.5151 129.212 78.4027 129.212 77.0303C129.212 75.6579 130.325 74.5454 131.697 74.5454Z" fill="#F6F4F9"/>
<path d="M136.666 74.5454C138.039 74.5454 139.151 75.6579 139.151 77.0303C139.151 78.4027 138.039 79.5151 136.666 79.5151C135.294 79.5151 134.182 78.4027 134.182 77.0303C134.182 75.6579 135.294 74.5454 136.666 74.5454Z" fill="#F6F4F9"/>
<path d="M141.636 74.5454C143.009 74.5454 144.121 75.6579 144.121 77.0303C144.121 78.4027 143.009 79.5151 141.636 79.5151C140.264 79.5151 139.151 78.4027 139.151 77.0303C139.151 75.6579 140.264 74.5454 141.636 74.5454Z" fill="#F6F4F9"/>
<path d="M146.606 74.5454C147.978 74.5454 149.091 75.6579 149.091 77.0303C149.091 78.4027 147.978 79.5151 146.606 79.5151C145.234 79.5151 144.121 78.4027 144.121 77.0303C144.121 75.6579 145.234 74.5454 146.606 74.5454Z" fill="#F6F4F9"/>
<path d="M151.576 74.5454C152.948 74.5454 154.061 75.6579 154.061 77.0303C154.061 78.4027 152.948 79.5151 151.576 79.5151C150.203 79.5151 149.091 78.4027 149.091 77.0303C149.091 75.6579 150.203 74.5454 151.576 74.5454Z" fill="#F6F4F9"/>
<path d="M17.394 79.5151C18.7664 79.5151 19.8789 80.6277 19.8789 82C19.8789 83.3724 18.7664 84.4848 17.394 84.4848C16.0217 84.4848 14.9092 83.3724 14.9092 82C14.9092 80.6277 16.0217 79.5151 17.394 79.5151Z" fill="#F6F4F9"/>
<path d="M37.2729 79.5151C38.6453 79.5151 39.7578 80.6277 39.7578 82C39.7578 83.3724 38.6453 84.4848 37.2729 84.4848C35.9006 84.4848 34.7881 83.3724 34.7881 82C34.7881 80.6277 35.9006 79.5151 37.2729 79.5151Z" fill="#F6F4F9"/>
<path d="M42.2427 79.5151C43.6151 79.5151 44.7275 80.6277 44.7275 82C44.7275 83.3724 43.6151 84.4848 42.2427 84.4848C40.8703 84.4848 39.7578 83.3724 39.7578 82C39.7578 80.6277 40.8703 79.5151 42.2427 79.5151Z" fill="#F6F4F9"/>
<path d="M47.2124 79.5151C48.5848 79.5151 49.6972 80.6277 49.6972 82C49.6972 83.3724 48.5848 84.4848 47.2124 84.4848C45.8401 84.4848 44.7275 83.3724 44.7275 82C44.7275 80.6277 45.8401 79.5151 47.2124 79.5151Z" fill="#F6F4F9"/>
<path d="M52.1821 79.5151C53.5545 79.5151 54.667 80.6277 54.667 82C54.667 83.3724 53.5545 84.4848 52.1821 84.4848C50.8098 84.4848 49.6973 83.3724 49.6973 82C49.6973 80.6277 50.8098 79.5151 52.1821 79.5151Z" fill="#F6F4F9"/>
<path d="M62.1211 79.5151C63.4935 79.5151 64.6059 80.6277 64.6059 82C64.6059 83.3724 63.4935 84.4848 62.1211 84.4848C60.7487 84.4848 59.6362 83.3724 59.6362 82C59.6362 80.6277 60.7487 79.5151 62.1211 79.5151Z" fill="#F6F4F9"/>
<path d="M82 79.5151C83.3724 79.5151 84.4848 80.6277 84.4848 82C84.4848 83.3724 83.3724 84.4848 82 84.4848C80.6277 84.4848 79.5151 83.3724 79.5151 82C79.5151 80.6277 80.6277 79.5151 82 79.5151Z" fill="#F6F4F9"/>
<path d="M86.9697 79.5151C88.3421 79.5151 89.4546 80.6277 89.4546 82C89.4546 83.3724 88.3421 84.4848 86.9697 84.4848C85.5974 84.4848 84.4849 83.3724 84.4849 82C84.4849 80.6277 85.5974 79.5151 86.9697 79.5151Z" fill="#F6F4F9"/>
<path d="M96.9092 79.5151C98.2816 79.5151 99.394 80.6277 99.394 82C99.394 83.3724 98.2816 84.4848 96.9092 84.4848C95.5368 84.4848 94.4243 83.3724 94.4243 82C94.4243 80.6277 95.5368 79.5151 96.9092 79.5151Z" fill="#F6F4F9"/>
<path d="M106.849 79.5151C108.221 79.5151 109.333 80.6277 109.333 82C109.333 83.3724 108.221 84.4848 106.849 84.4848C105.476 84.4848 104.364 83.3724 104.364 82C104.364 80.6277 105.476 79.5151 106.849 79.5151Z" fill="#F6F4F9"/>
<path d="M111.818 79.5151C113.191 79.5151 114.303 80.6277 114.303 82C114.303 83.3724 113.191 84.4848 111.818 84.4848C110.446 84.4848 109.333 83.3724 109.333 82C109.333 80.6277 110.446 79.5151 111.818 79.5151Z" fill="#F6F4F9"/>
<path d="M116.788 79.5151C118.16 79.5151 119.273 80.6277 119.273 82C119.273 83.3724 118.16 84.4848 116.788 84.4848C115.416 84.4848 114.303 83.3724 114.303 82C114.303 80.6277 115.416 79.5151 116.788 79.5151Z" fill="#F6F4F9"/>
<path d="M121.758 79.5151C123.13 79.5151 124.243 80.6277 124.243 82C124.243 83.3724 123.13 84.4848 121.758 84.4848C120.385 84.4848 119.273 83.3724 119.273 82C119.273 80.6277 120.385 79.5151 121.758 79.5151Z" fill="#F6F4F9"/>
<path d="M126.728 79.5151C128.1 79.5151 129.212 80.6277 129.212 82C129.212 83.3724 128.1 84.4848 126.728 84.4848C125.355 84.4848 124.243 83.3724 124.243 82C124.243 80.6277 125.355 79.5151 126.728 79.5151Z" fill="#F6F4F9"/>
<path d="M141.636 79.5151C143.009 79.5151 144.121 80.6277 144.121 82C144.121 83.3724 143.009 84.4848 141.636 84.4848C140.264 84.4848 139.151 83.3724 139.151 82C139.151 80.6277 140.264 79.5151 141.636 79.5151Z" fill="#F6F4F9"/>
<path d="M151.576 79.5151C152.948 79.5151 154.061 80.6277 154.061 82C154.061 83.3724 152.948 84.4848 151.576 84.4848C150.203 84.4848 149.091 83.3724 149.091 82C149.091 80.6277 150.203 79.5151 151.576 79.5151Z" fill="#F6F4F9"/>
<path d="M12.4243 84.4849C13.7967 84.4849 14.9092 85.5974 14.9092 86.9697C14.9092 88.3421 13.7967 89.4546 12.4243 89.4546C11.052 89.4546 9.93945 88.3421 9.93945 86.9697C9.93945 85.5974 11.052 84.4849 12.4243 84.4849Z" fill="#F6F4F9"/>
<path d="M17.394 84.4849C18.7664 84.4849 19.8789 85.5974 19.8789 86.9697C19.8789 88.3421 18.7664 89.4546 17.394 89.4546C16.0217 89.4546 14.9092 88.3421 14.9092 86.9697C14.9092 85.5974 16.0217 84.4849 17.394 84.4849Z" fill="#F6F4F9"/>
<path d="M32.3032 84.4849C33.6756 84.4849 34.7881 85.5974 34.7881 86.9697C34.7881 88.3421 33.6756 89.4546 32.3032 89.4546C30.9309 89.4546 29.8184 88.3421 29.8184 86.9697C29.8184 85.5974 30.9309 84.4849 32.3032 84.4849Z" fill="#F6F4F9"/>
<path d="M47.2124 84.4849C48.5848 84.4849 49.6972 85.5974 49.6972 86.9697C49.6972 88.3421 48.5848 89.4546 47.2124 89.4546C45.8401 89.4546 44.7275 88.3421 44.7275 86.9697C44.7275 85.5974 45.8401 84.4849 47.2124 84.4849Z" fill="#F6F4F9"/>
<path d="M57.1514 84.4849C58.5238 84.4849 59.6362 85.5974 59.6362 86.9697C59.6362 88.3421 58.5238 89.4546 57.1514 89.4546C55.779 89.4546 54.6665 88.3421 54.6665 86.9697C54.6665 85.5974 55.779 84.4849 57.1514 84.4849Z" fill="#F6F4F9"/>
<path d="M62.1211 84.4849C63.4935 84.4849 64.6059 85.5974 64.6059 86.9697C64.6059 88.3421 63.4935 89.4546 62.1211 89.4546C60.7487 89.4546 59.6362 88.3421 59.6362 86.9697C59.6362 85.5974 60.7487 84.4849 62.1211 84.4849Z" fill="#F6F4F9"/>
<path d="M77.0303 84.4849C78.4027 84.4849 79.5151 85.5974 79.5151 86.9697C79.5151 88.3421 78.4027 89.4546 77.0303 89.4546C75.6579 89.4546 74.5454 88.3421 74.5454 86.9697C74.5454 85.5974 75.6579 84.4849 77.0303 84.4849Z" fill="#F6F4F9"/>
<path d="M82 84.4849C83.3724 84.4849 84.4848 85.5974 84.4848 86.9697C84.4848 88.3421 83.3724 89.4546 82 89.4546C80.6277 89.4546 79.5151 88.3421 79.5151 86.9697C79.5151 85.5974 80.6277 84.4849 82 84.4849Z" fill="#F6F4F9"/>
<path d="M91.9394 84.4849C93.3118 84.4849 94.4243 85.5974 94.4243 86.9697C94.4243 88.3421 93.3118 89.4546 91.9394 89.4546C90.5671 89.4546 89.4546 88.3421 89.4546 86.9697C89.4546 85.5974 90.5671 84.4849 91.9394 84.4849Z" fill="#F6F4F9"/>
<path d="M101.879 84.4849C103.251 84.4849 104.364 85.5974 104.364 86.9697C104.364 88.3421 103.251 89.4546 101.879 89.4546C100.507 89.4546 99.394 88.3421 99.394 86.9697C99.394 85.5974 100.507 84.4849 101.879 84.4849Z" fill="#F6F4F9"/>
<path d="M126.728 84.4849C128.1 84.4849 129.212 85.5974 129.212 86.9697C129.212 88.3421 128.1 89.4546 126.728 89.4546C125.355 89.4546 124.243 88.3421 124.243 86.9697C124.243 85.5974 125.355 84.4849 126.728 84.4849Z" fill="#F6F4F9"/>
<path d="M131.697 84.4849C133.07 84.4849 134.182 85.5974 134.182 86.9697C134.182 88.3421 133.07 89.4546 131.697 89.4546C130.325 89.4546 129.212 88.3421 129.212 86.9697C129.212 85.5974 130.325 84.4849 131.697 84.4849Z" fill="#F6F4F9"/>
<path d="M141.636 84.4849C143.009 84.4849 144.121 85.5974 144.121 86.9697C144.121 88.3421 143.009 89.4546 141.636 89.4546C140.264 89.4546 139.151 88.3421 139.151 86.9697C139.151 85.5974 140.264 84.4849 141.636 84.4849Z" fill="#F6F4F9"/>
<path d="M151.576 84.4849C152.948 84.4849 154.061 85.5974 154.061 86.9697C154.061 88.3421 152.948 89.4546 151.576 89.4546C150.203 89.4546 149.091 88.3421 149.091 86.9697C149.091 85.5974 150.203 84.4849 151.576 84.4849Z" fill="#F6F4F9"/>
<path d="M32.3032 89.4546C33.6756 89.4546 34.7881 90.5671 34.7881 91.9394C34.7881 93.3118 33.6756 94.4243 32.3032 94.4243C30.9309 94.4243 29.8184 93.3118 29.8184 91.9394C29.8184 90.5671 30.9309 89.4546 32.3032 89.4546Z" fill="#F6F4F9"/>
<path d="M42.2427 89.4546C43.6151 89.4546 44.7275 90.5671 44.7275 91.9394C44.7275 93.3118 43.6151 94.4243 42.2427 94.4243C40.8703 94.4243 39.7578 93.3118 39.7578 91.9394C39.7578 90.5671 40.8703 89.4546 42.2427 89.4546Z" fill="#F6F4F9"/>
<path d="M72.0605 89.4546C73.4329 89.4546 74.5454 90.5671 74.5454 91.9394C74.5454 93.3118 73.4329 94.4243 72.0605 94.4243C70.6882 94.4243 69.5757 93.3118 69.5757 91.9394C69.5757 90.5671 70.6882 89.4546 72.0605 89.4546Z" fill="#F6F4F9"/>
<path d="M86.9697 89.4546C88.3421 89.4546 89.4546 90.5671 89.4546 91.9394C89.4546 93.3118 88.3421 94.4243 86.9697 94.4243C85.5974 94.4243 84.4849 93.3118 84.4849 91.9394C84.4849 90.5671 85.5974 89.4546 86.9697 89.4546Z" fill="#F6F4F9"/>
<path d="M106.849 89.4546C108.221 89.4546 109.333 90.5671 109.333 91.9394C109.333 93.3118 108.221 94.4243 106.849 94.4243C105.476 94.4243 104.364 93.3118 104.364 91.9394C104.364 90.5671 105.476 89.4546 106.849 89.4546Z" fill="#F6F4F9"/>
<path d="M111.818 89.4546C113.191 89.4546 114.303 90.5671 114.303 91.9394C114.303 93.3118 113.191 94.4243 111.818 94.4243C110.446 94.4243 109.333 93.3118 109.333 91.9394C109.333 90.5671 110.446 89.4546 111.818 89.4546Z" fill="#F6F4F9"/>
<path d="M136.666 89.4546C138.039 89.4546 139.151 90.5671 139.151 91.9394C139.151 93.3118 138.039 94.4243 136.666 94.4243C135.294 94.4243 134.182 93.3118 134.182 91.9394C134.182 90.5671 135.294 89.4546 136.666 89.4546Z" fill="#F6F4F9"/>
<path d="M12.4243 94.4243C13.7967 94.4243 14.9092 95.5368 14.9092 96.9092C14.9092 98.2816 13.7967 99.394 12.4243 99.394C11.052 99.394 9.93945 98.2816 9.93945 96.9092C9.93945 95.5368 11.052 94.4243 12.4243 94.4243Z" fill="#F6F4F9"/>
<path d="M27.3335 94.4243C28.7059 94.4243 29.8183 95.5368 29.8183 96.9092C29.8183 98.2816 28.7059 99.394 27.3335 99.394C25.9611 99.394 24.8486 98.2816 24.8486 96.9092C24.8486 95.5368 25.9611 94.4243 27.3335 94.4243Z" fill="#F6F4F9"/>
<path d="M52.1821 94.4243C53.5545 94.4243 54.667 95.5368 54.667 96.9092C54.667 98.2816 53.5545 99.394 52.1821 99.394C50.8098 99.394 49.6973 98.2816 49.6973 96.9092C49.6973 95.5368 50.8098 94.4243 52.1821 94.4243Z" fill="#F6F4F9"/>
<path d="M57.1514 94.4243C58.5238 94.4243 59.6362 95.5368 59.6362 96.9092C59.6362 98.2816 58.5238 99.394 57.1514 99.394C55.779 99.394 54.6665 98.2816 54.6665 96.9092C54.6665 95.5368 55.779 94.4243 57.1514 94.4243Z" fill="#F6F4F9"/>
<path d="M96.9092 94.4243C98.2816 94.4243 99.394 95.5368 99.394 96.9092C99.394 98.2816 98.2816 99.394 96.9092 99.394C95.5368 99.394 94.4243 98.2816 94.4243 96.9092C94.4243 95.5368 95.5368 94.4243 96.9092 94.4243Z" fill="#F6F4F9"/>
<path d="M101.879 94.4243C103.251 94.4243 104.364 95.5368 104.364 96.9092C104.364 98.2816 103.251 99.394 101.879 99.394C100.507 99.394 99.394 98.2816 99.394 96.9092C99.394 95.5368 100.507 94.4243 101.879 94.4243Z" fill="#F6F4F9"/>
<path d="M106.849 94.4243C108.221 94.4243 109.333 95.5368 109.333 96.9092C109.333 98.2816 108.221 99.394 106.849 99.394C105.476 99.394 104.364 98.2816 104.364 96.9092C104.364 95.5368 105.476 94.4243 106.849 94.4243Z" fill="#F6F4F9"/>
<path d="M131.697 94.4243C133.07 94.4243 134.182 95.5368 134.182 96.9092C134.182 98.2816 133.07 99.394 131.697 99.394C130.325 99.394 129.212 98.2816 129.212 96.9092C129.212 95.5368 130.325 94.4243 131.697 94.4243Z" fill="#F6F4F9"/>
<path d="M141.636 94.4243C143.009 94.4243 144.121 95.5368 144.121 96.9092C144.121 98.2816 143.009 99.394 141.636 99.394C140.264 99.394 139.151 98.2816 139.151 96.9092C139.151 95.5368 140.264 94.4243 141.636 94.4243Z" fill="#F6F4F9"/>
<path d="M146.606 94.4243C147.978 94.4243 149.091 95.5368 149.091 96.9092C149.091 98.2816 147.978 99.394 146.606 99.394C145.234 99.394 144.121 98.2816 144.121 96.9092C144.121 95.5368 145.234 94.4243 146.606 94.4243Z" fill="#F6F4F9"/>
<path d="M12.4243 99.394C13.7967 99.394 14.9092 100.507 14.9092 101.879C14.9092 103.251 13.7967 104.364 12.4243 104.364C11.052 104.364 9.93945 103.251 9.93945 101.879C9.93945 100.507 11.052 99.394 12.4243 99.394Z" fill="#F6F4F9"/>
<path d="M17.394 99.394C18.7664 99.394 19.8789 100.507 19.8789 101.879C19.8789 103.251 18.7664 104.364 17.394 104.364C16.0217 104.364 14.9092 103.251 14.9092 101.879C14.9092 100.507 16.0217 99.394 17.394 99.394Z" fill="#F6F4F9"/>
<path d="M22.3638 99.394C23.7362 99.394 24.8486 100.507 24.8486 101.879C24.8486 103.251 23.7362 104.364 22.3638 104.364C20.9914 104.364 19.8789 103.251 19.8789 101.879C19.8789 100.507 20.9914 99.394 22.3638 99.394Z" fill="#F6F4F9"/>
<path d="M42.2427 99.394C43.6151 99.394 44.7275 100.507 44.7275 101.879C44.7275 103.251 43.6151 104.364 42.2427 104.364C40.8703 104.364 39.7578 103.251 39.7578 101.879C39.7578 100.507 40.8703 99.394 42.2427 99.394Z" fill="#F6F4F9"/>
<path d="M47.2124 99.394C48.5848 99.394 49.6972 100.507 49.6972 101.879C49.6972 103.251 48.5848 104.364 47.2124 104.364C45.8401 104.364 44.7275 103.251 44.7275 101.879C44.7275 100.507 45.8401 99.394 47.2124 99.394Z" fill="#F6F4F9"/>
<path d="M57.1514 99.394C58.5238 99.394 59.6362 100.507 59.6362 101.879C59.6362 103.251 58.5238 104.364 57.1514 104.364C55.779 104.364 54.6665 103.251 54.6665 101.879C54.6665 100.507 55.779 99.394 57.1514 99.394Z" fill="#F6F4F9"/>
<path d="M62.1211 99.394C63.4935 99.394 64.6059 100.507 64.6059 101.879C64.6059 103.251 63.4935 104.364 62.1211 104.364C60.7487 104.364 59.6362 103.251 59.6362 101.879C59.6362 100.507 60.7487 99.394 62.1211 99.394Z" fill="#F6F4F9"/>
<path d="M77.0303 99.394C78.4027 99.394 79.5151 100.507 79.5151 101.879C79.5151 103.251 78.4027 104.364 77.0303 104.364C75.6579 104.364 74.5454 103.251 74.5454 101.879C74.5454 100.507 75.6579 99.394 77.0303 99.394Z" fill="#F6F4F9"/>
<path d="M82 99.394C83.3724 99.394 84.4848 100.507 84.4848 101.879C84.4848 103.251 83.3724 104.364 82 104.364C80.6277 104.364 79.5151 103.251 79.5151 101.879C79.5151 100.507 80.6277 99.394 82 99.394Z" fill="#F6F4F9"/>
<path d="M91.9394 99.394C93.3118 99.394 94.4243 100.507 94.4243 101.879C94.4243 103.251 93.3118 104.364 91.9394 104.364C90.5671 104.364 89.4546 103.251 89.4546 101.879C89.4546 100.507 90.5671 99.394 91.9394 99.394Z" fill="#F6F4F9"/>
<path d="M101.879 99.394C103.251 99.394 104.364 100.507 104.364 101.879C104.364 103.251 103.251 104.364 101.879 104.364C100.507 104.364 99.394 103.251 99.394 101.879C99.394 100.507 100.507 99.394 101.879 99.394Z" fill="#F6F4F9"/>
<path d="M106.849 99.394C108.221 99.394 109.333 100.507 109.333 101.879C109.333 103.251 108.221 104.364 106.849 104.364C105.476 104.364 104.364 103.251 104.364 101.879C104.364 100.507 105.476 99.394 106.849 99.394Z" fill="#F6F4F9"/>
<path d="M116.788 99.394C118.16 99.394 119.273 100.507 119.273 101.879C119.273 103.251 118.16 104.364 116.788 104.364C115.416 104.364 114.303 103.251 114.303 101.879C114.303 100.507 115.416 99.394 116.788 99.394Z" fill="#F6F4F9"/>
<path d="M121.758 99.394C123.13 99.394 124.243 100.507 124.243 101.879C124.243 103.251 123.13 104.364 121.758 104.364C120.385 104.364 119.273 103.251 119.273 101.879C119.273 100.507 120.385 99.394 121.758 99.394Z" fill="#F6F4F9"/>
<path d="M136.666 99.394C138.039 99.394 139.151 100.507 139.151 101.879C139.151 103.251 138.039 104.364 136.666 104.364C135.294 104.364 134.182 103.251 134.182 101.879C134.182 100.507 135.294 99.394 136.666 99.394Z" fill="#F6F4F9"/>
<path d="M151.576 99.394C152.948 99.394 154.061 100.507 154.061 101.879C154.061 103.251 152.948 104.364 151.576 104.364C150.203 104.364 149.091 103.251 149.091 101.879C149.091 100.507 150.203 99.394 151.576 99.394Z" fill="#F6F4F9"/>
<path d="M12.4243 104.364C13.7967 104.364 14.9092 105.476 14.9092 106.849C14.9092 108.221 13.7967 109.333 12.4243 109.333C11.052 109.333 9.93945 108.221 9.93945 106.849C9.93945 105.476 11.052 104.364 12.4243 104.364Z" fill="#F6F4F9"/>
<path d="M17.394 104.364C18.7664 104.364 19.8789 105.476 19.8789 106.849C19.8789 108.221 18.7664 109.333 17.394 109.333C16.0217 109.333 14.9092 108.221 14.9092 106.849C14.9092 105.476 16.0217 104.364 17.394 104.364Z" fill="#F6F4F9"/>
<path d="M32.3032 104.364C33.6756 104.364 34.7881 105.476 34.7881 106.849C34.7881 108.221 33.6756 109.333 32.3032 109.333C30.9309 109.333 29.8184 108.221 29.8184 106.849C29.8184 105.476 30.9309 104.364 32.3032 104.364Z" fill="#F6F4F9"/>
<path d="M37.2729 104.364C38.6453 104.364 39.7578 105.476 39.7578 106.849C39.7578 108.221 38.6453 109.333 37.2729 109.333C35.9006 109.333 34.7881 108.221 34.7881 106.849C34.7881 105.476 35.9006 104.364 37.2729 104.364Z" fill="#F6F4F9"/>
<path d="M47.2124 104.364C48.5848 104.364 49.6972 105.476 49.6972 106.849C49.6972 108.221 48.5848 109.333 47.2124 109.333C45.8401 109.333 44.7275 108.221 44.7275 106.849C44.7275 105.476 45.8401 104.364 47.2124 104.364Z" fill="#F6F4F9"/>
<path d="M52.1821 104.364C53.5545 104.364 54.667 105.476 54.667 106.849C54.667 108.221 53.5545 109.333 52.1821 109.333C50.8098 109.333 49.6973 108.221 49.6973 106.849C49.6973 105.476 50.8098 104.364 52.1821 104.364Z" fill="#F6F4F9"/>
<path d="M57.1514 104.364C58.5238 104.364 59.6362 105.476 59.6362 106.849C59.6362 108.221 58.5238 109.333 57.1514 109.333C55.779 109.333 54.6665 108.221 54.6665 106.849C54.6665 105.476 55.779 104.364 57.1514 104.364Z" fill="#F6F4F9"/>
<path d="M62.1211 104.364C63.4935 104.364 64.6059 105.476 64.6059 106.849C64.6059 108.221 63.4935 109.333 62.1211 109.333C60.7487 109.333 59.6362 108.221 59.6362 106.849C59.6362 105.476 60.7487 104.364 62.1211 104.364Z" fill="#F6F4F9"/>
<path d="M67.0908 104.364C68.4632 104.364 69.5757 105.476 69.5757 106.849C69.5757 108.221 68.4632 109.333 67.0908 109.333C65.7185 109.333 64.606 108.221 64.606 106.849C64.606 105.476 65.7185 104.364 67.0908 104.364Z" fill="#F6F4F9"/>
<path d="M77.0303 104.364C78.4027 104.364 79.5151 105.476 79.5151 106.849C79.5151 108.221 78.4027 109.333 77.0303 109.333C75.6579 109.333 74.5454 108.221 74.5454 106.849C74.5454 105.476 75.6579 104.364 77.0303 104.364Z" fill="#F6F4F9"/>
<path d="M86.9697 104.364C88.3421 104.364 89.4546 105.476 89.4546 106.849C89.4546 108.221 88.3421 109.333 86.9697 109.333C85.5974 109.333 84.4849 108.221 84.4849 106.849C84.4849 105.476 85.5974 104.364 86.9697 104.364Z" fill="#F6F4F9"/>
<path d="M91.9394 104.364C93.3118 104.364 94.4243 105.476 94.4243 106.849C94.4243 108.221 93.3118 109.333 91.9394 109.333C90.5671 109.333 89.4546 108.221 89.4546 106.849C89.4546 105.476 90.5671 104.364 91.9394 104.364Z" fill="#F6F4F9"/>
<path d="M106.849 104.364C108.221 104.364 109.333 105.476 109.333 106.849C109.333 108.221 108.221 109.333 106.849 109.333C105.476 109.333 104.364 108.221 104.364 106.849C104.364 105.476 105.476 104.364 106.849 104.364Z" fill="#F6F4F9"/>
<path d="M116.788 104.364C118.16 104.364 119.273 105.476 119.273 106.849C119.273 108.221 118.16 109.333 116.788 109.333C115.416 109.333 114.303 108.221 114.303 106.849C114.303 105.476 115.416 104.364 116.788 104.364Z" fill="#F6F4F9"/>
<path d="M121.758 104.364C123.13 104.364 124.243 105.476 124.243 106.849C124.243 108.221 123.13 109.333 121.758 109.333C120.385 109.333 119.273 108.221 119.273 106.849C119.273 105.476 120.385 104.364 121.758 104.364Z" fill="#F6F4F9"/>
<path d="M126.728 104.364C128.1 104.364 129.212 105.476 129.212 106.849C129.212 108.221 128.1 109.333 126.728 109.333C125.355 109.333 124.243 108.221 124.243 106.849C124.243 105.476 125.355 104.364 126.728 104.364Z" fill="#F6F4F9"/>
<path d="M131.697 104.364C133.07 104.364 134.182 105.476 134.182 106.849C134.182 108.221 133.07 109.333 131.697 109.333C130.325 109.333 129.212 108.221 129.212 106.849C129.212 105.476 130.325 104.364 131.697 104.364Z" fill="#F6F4F9"/>
<path d="M136.666 104.364C138.039 104.364 139.151 105.476 139.151 106.849C139.151 108.221 138.039 109.333 136.666 109.333C135.294 109.333 134.182 108.221 134.182 106.849C134.182 105.476 135.294 104.364 136.666 104.364Z" fill="#F6F4F9"/>
<path d="M141.636 104.364C143.009 104.364 144.121 105.476 144.121 106.849C144.121 108.221 143.009 109.333 141.636 109.333C140.264 109.333 139.151 108.221 139.151 106.849C139.151 105.476 140.264 104.364 141.636 104.364Z" fill="#F6F4F9"/>
<path d="M12.4243 109.333C13.7967 109.333 14.9092 110.446 14.9092 111.818C14.9092 113.191 13.7967 114.303 12.4243 114.303C11.052 114.303 9.93945 113.191 9.93945 111.818C9.93945 110.446 11.052 109.333 12.4243 109.333Z" fill="#F6F4F9"/>
<path d="M17.394 109.333C18.7664 109.333 19.8789 110.446 19.8789 111.818C19.8789 113.191 18.7664 114.303 17.394 114.303C16.0217 114.303 14.9092 113.191 14.9092 111.818C14.9092 110.446 16.0217 109.333 17.394 109.333Z" fill="#F6F4F9"/>
<path d="M22.3638 109.333C23.7362 109.333 24.8486 110.446 24.8486 111.818C24.8486 113.191 23.7362 114.303 22.3638 114.303C20.9914 114.303 19.8789 113.191 19.8789 111.818C19.8789 110.446 20.9914 109.333 22.3638 109.333Z" fill="#F6F4F9"/>
<path d="M37.2729 109.333C38.6453 109.333 39.7578 110.446 39.7578 111.818C39.7578 113.191 38.6453 114.303 37.2729 114.303C35.9006 114.303 34.7881 113.191 34.7881 111.818C34.7881 110.446 35.9006 109.333 37.2729 109.333Z" fill="#F6F4F9"/>
<path d="M42.2427 109.333C43.6151 109.333 44.7275 110.446 44.7275 111.818C44.7275 113.191 43.6151 114.303 42.2427 114.303C40.8703 114.303 39.7578 113.191 39.7578 111.818C39.7578 110.446 40.8703 109.333 42.2427 109.333Z" fill="#F6F4F9"/>
<path d="M57.1514 109.333C58.5238 109.333 59.6362 110.446 59.6362 111.818C59.6362 113.191 58.5238 114.303 57.1514 114.303C55.779 114.303 54.6665 113.191 54.6665 111.818C54.6665 110.446 55.779 109.333 57.1514 109.333Z" fill="#F6F4F9"/>
<path d="M62.1211 109.333C63.4935 109.333 64.6059 110.446 64.6059 111.818C64.6059 113.191 63.4935 114.303 62.1211 114.303C60.7487 114.303 59.6362 113.191 59.6362 111.818C59.6362 110.446 60.7487 109.333 62.1211 109.333Z" fill="#F6F4F9"/>
<path d="M72.0605 109.333C73.4329 109.333 74.5454 110.446 74.5454 111.818C74.5454 113.191 73.4329 114.303 72.0605 114.303C70.6882 114.303 69.5757 113.191 69.5757 111.818C69.5757 110.446 70.6882 109.333 72.0605 109.333Z" fill="#F6F4F9"/>
<path d="M77.0303 109.333C78.4027 109.333 79.5151 110.446 79.5151 111.818C79.5151 113.191 78.4027 114.303 77.0303 114.303C75.6579 114.303 74.5454 113.191 74.5454 111.818C74.5454 110.446 75.6579 109.333 77.0303 109.333Z" fill="#F6F4F9"/>
<path d="M96.9092 109.333C98.2816 109.333 99.394 110.446 99.394 111.818C99.394 113.191 98.2816 114.303 96.9092 114.303C95.5368 114.303 94.4243 113.191 94.4243 111.818C94.4243 110.446 95.5368 109.333 96.9092 109.333Z" fill="#F6F4F9"/>
<path d="M106.849 109.333C108.221 109.333 109.333 110.446 109.333 111.818C109.333 113.191 108.221 114.303 106.849 114.303C105.476 114.303 104.364 113.191 104.364 111.818C104.364 110.446 105.476 109.333 106.849 109.333Z" fill="#F6F4F9"/>
<path d="M111.818 109.333C113.191 109.333 114.303 110.446 114.303 111.818C114.303 113.191 113.191 114.303 111.818 114.303C110.446 114.303 109.333 113.191 109.333 111.818C109.333 110.446 110.446 109.333 111.818 109.333Z" fill="#F6F4F9"/>
<path d="M116.788 109.333C118.16 109.333 119.273 110.446 119.273 111.818C119.273 113.191 118.16 114.303 116.788 114.303C115.416 114.303 114.303 113.191 114.303 111.818C114.303 110.446 115.416 109.333 116.788 109.333Z" fill="#F6F4F9"/>
<path d="M121.758 109.333C123.13 109.333 124.243 110.446 124.243 111.818C124.243 113.191 123.13 114.303 121.758 114.303C120.385 114.303 119.273 113.191 119.273 111.818C119.273 110.446 120.385 109.333 121.758 109.333Z" fill="#F6F4F9"/>
<path d="M126.728 109.333C128.1 109.333 129.212 110.446 129.212 111.818C129.212 113.191 128.1 114.303 126.728 114.303C125.355 114.303 124.243 113.191 124.243 111.818C124.243 110.446 125.355 109.333 126.728 109.333Z" fill="#F6F4F9"/>
<path d="M131.697 109.333C133.07 109.333 134.182 110.446 134.182 111.818C134.182 113.191 133.07 114.303 131.697 114.303C130.325 114.303 129.212 113.191 129.212 111.818C129.212 110.446 130.325 109.333 131.697 109.333Z" fill="#F6F4F9"/>
<path d="M136.666 109.333C138.039 109.333 139.151 110.446 139.151 111.818C139.151 113.191 138.039 114.303 136.666 114.303C135.294 114.303 134.182 113.191 134.182 111.818C134.182 110.446 135.294 109.333 136.666 109.333Z" fill="#F6F4F9"/>
<path d="M141.636 109.333C143.009 109.333 144.121 110.446 144.121 111.818C144.121 113.191 143.009 114.303 141.636 114.303C140.264 114.303 139.151 113.191 139.151 111.818C139.151 110.446 140.264 109.333 141.636 109.333Z" fill="#F6F4F9"/>
<path d="M146.606 109.333C147.978 109.333 149.091 110.446 149.091 111.818C149.091 113.191 147.978 114.303 146.606 114.303C145.234 114.303 144.121 113.191 144.121 111.818C144.121 110.446 145.234 109.333 146.606 109.333Z" fill="#F6F4F9"/>
<path d="M52.1821 114.303C53.5545 114.303 54.667 115.416 54.667 116.788C54.667 118.16 53.5545 119.273 52.1821 119.273C50.8098 119.273 49.6973 118.16 49.6973 116.788C49.6973 115.416 50.8098 114.303 52.1821 114.303Z" fill="#F6F4F9"/>
<path d="M67.0908 114.303C68.4632 114.303 69.5757 115.416 69.5757 116.788C69.5757 118.16 68.4632 119.273 67.0908 119.273C65.7185 119.273 64.606 118.16 64.606 116.788C64.606 115.416 65.7185 114.303 67.0908 114.303Z" fill="#F6F4F9"/>
<path d="M77.0303 114.303C78.4027 114.303 79.5151 115.416 79.5151 116.788C79.5151 118.16 78.4027 119.273 77.0303 119.273C75.6579 119.273 74.5454 118.16 74.5454 116.788C74.5454 115.416 75.6579 114.303 77.0303 114.303Z" fill="#F6F4F9"/>
<path d="M91.9394 114.303C93.3118 114.303 94.4243 115.416 94.4243 116.788C94.4243 118.16 93.3118 119.273 91.9394 119.273C90.5671 119.273 89.4546 118.16 89.4546 116.788C89.4546 115.416 90.5671 114.303 91.9394 114.303Z" fill="#F6F4F9"/>
<path d="M96.9092 114.303C98.2816 114.303 99.394 115.416 99.394 116.788C99.394 118.16 98.2816 119.273 96.9092 119.273C95.5368 119.273 94.4243 118.16 94.4243 116.788C94.4243 115.416 95.5368 114.303 96.9092 114.303Z" fill="#F6F4F9"/>
<path d="M101.879 114.303C103.251 114.303 104.364 115.416 104.364 116.788C104.364 118.16 103.251 119.273 101.879 119.273C100.507 119.273 99.394 118.16 99.394 116.788C99.394 115.416 100.507 114.303 101.879 114.303Z" fill="#F6F4F9"/>
<path d="M111.818 114.303C113.191 114.303 114.303 115.416 114.303 116.788C114.303 118.16 113.191 119.273 111.818 119.273C110.446 119.273 109.333 118.16 109.333 116.788C109.333 115.416 110.446 114.303 111.818 114.303Z" fill="#F6F4F9"/>
<path d="M131.697 114.303C133.07 114.303 134.182 115.416 134.182 116.788C134.182 118.16 133.07 119.273 131.697 119.273C130.325 119.273 129.212 118.16 129.212 116.788C129.212 115.416 130.325 114.303 131.697 114.303Z" fill="#F6F4F9"/>
<path d="M136.666 114.303C138.039 114.303 139.151 115.416 139.151 116.788C139.151 118.16 138.039 119.273 136.666 119.273C135.294 119.273 134.182 118.16 134.182 116.788C134.182 115.416 135.294 114.303 136.666 114.303Z" fill="#F6F4F9"/>
<path d="M52.1821 119.273C53.5545 119.273 54.667 120.385 54.667 121.758C54.667 123.13 53.5545 124.243 52.1821 124.243C50.8098 124.243 49.6973 123.13 49.6973 121.758C49.6973 120.385 50.8098 119.273 52.1821 119.273Z" fill="#F6F4F9"/>
<path d="M77.0303 119.273C78.4027 119.273 79.5151 120.385 79.5151 121.758C79.5151 123.13 78.4027 124.243 77.0303 124.243C75.6579 124.243 74.5454 123.13 74.5454 121.758C74.5454 120.385 75.6579 119.273 77.0303 119.273Z" fill="#F6F4F9"/>
<path d="M86.9697 119.273C88.3421 119.273 89.4546 120.385 89.4546 121.758C89.4546 123.13 88.3421 124.243 86.9697 124.243C85.5974 124.243 84.4849 123.13 84.4849 121.758C84.4849 120.385 85.5974 119.273 86.9697 119.273Z" fill="#F6F4F9"/>
<path d="M91.9394 119.273C93.3118 119.273 94.4243 120.385 94.4243 121.758C94.4243 123.13 93.3118 124.243 91.9394 124.243C90.5671 124.243 89.4546 123.13 89.4546 121.758C89.4546 120.385 90.5671 119.273 91.9394 119.273Z" fill="#F6F4F9"/>
<path d="M106.849 119.273C108.221 119.273 109.333 120.385 109.333 121.758C109.333 123.13 108.221 124.243 106.849 124.243C105.476 124.243 104.364 123.13 104.364 121.758C104.364 120.385 105.476 119.273 106.849 119.273Z" fill="#F6F4F9"/>
<path d="M111.818 119.273C113.191 119.273 114.303 120.385 114.303 121.758C114.303 123.13 113.191 124.243 111.818 124.243C110.446 124.243 109.333 123.13 109.333 121.758C109.333 120.385 110.446 119.273 111.818 119.273Z" fill="#F6F4F9"/>
<path d="M121.758 119.273C123.13 119.273 124.243 120.385 124.243 121.758C124.243 123.13 123.13 124.243 121.758 124.243C120.385 124.243 119.273 123.13 119.273 121.758C119.273 120.385 120.385 119.273 121.758 119.273Z" fill="#F6F4F9"/>
<path d="M131.697 119.273C133.07 119.273 134.182 120.385 134.182 121.758C134.182 123.13 133.07 124.243 131.697 124.243C130.325 124.243 129.212 123.13 129.212 121.758C129.212 120.385 130.325 119.273 131.697 119.273Z" fill="#F6F4F9"/>
<path d="M136.666 119.273C138.039 119.273 139.151 120.385 139.151 121.758C139.151 123.13 138.039 124.243 136.666 124.243C135.294 124.243 134.182 123.13 134.182 121.758C134.182 120.385 135.294 119.273 136.666 119.273Z" fill="#F6F4F9"/>
<path d="M52.1821 124.243C53.5545 124.243 54.667 125.355 54.667 126.728C54.667 128.1 53.5545 129.212 52.1821 129.212C50.8098 129.212 49.6973 128.1 49.6973 126.728C49.6973 125.355 50.8098 124.243 52.1821 124.243Z" fill="#F6F4F9"/>
<path d="M57.1514 124.243C58.5238 124.243 59.6362 125.355 59.6362 126.728C59.6362 128.1 58.5238 129.212 57.1514 129.212C55.779 129.212 54.6665 128.1 54.6665 126.728C54.6665 125.355 55.779 124.243 57.1514 124.243Z" fill="#F6F4F9"/>
<path d="M62.1211 124.243C63.4935 124.243 64.6059 125.355 64.6059 126.728C64.6059 128.1 63.4935 129.212 62.1211 129.212C60.7487 129.212 59.6362 128.1 59.6362 126.728C59.6362 125.355 60.7487 124.243 62.1211 124.243Z" fill="#F6F4F9"/>
<path d="M72.0605 124.243C73.4329 124.243 74.5454 125.355 74.5454 126.728C74.5454 128.1 73.4329 129.212 72.0605 129.212C70.6882 129.212 69.5757 128.1 69.5757 126.728C69.5757 125.355 70.6882 124.243 72.0605 124.243Z" fill="#F6F4F9"/>
<path d="M77.0303 124.243C78.4027 124.243 79.5151 125.355 79.5151 126.728C79.5151 128.1 78.4027 129.212 77.0303 129.212C75.6579 129.212 74.5454 128.1 74.5454 126.728C74.5454 125.355 75.6579 124.243 77.0303 124.243Z" fill="#F6F4F9"/>
<path d="M91.9394 124.243C93.3118 124.243 94.4243 125.355 94.4243 126.728C94.4243 128.1 93.3118 129.212 91.9394 129.212C90.5671 129.212 89.4546 128.1 89.4546 126.728C89.4546 125.355 90.5671 124.243 91.9394 124.243Z" fill="#F6F4F9"/>
<path d="M96.9092 124.243C98.2816 124.243 99.394 125.355 99.394 126.728C99.394 128.1 98.2816 129.212 96.9092 129.212C95.5368 129.212 94.4243 128.1 94.4243 126.728C94.4243 125.355 95.5368 124.243 96.9092 124.243Z" fill="#F6F4F9"/>
<path d="M106.849 124.243C108.221 124.243 109.333 125.355 109.333 126.728C109.333 128.1 108.221 129.212 106.849 129.212C105.476 129.212 104.364 128.1 104.364 126.728C104.364 125.355 105.476 124.243 106.849 124.243Z" fill="#F6F4F9"/>
<path d="M111.818 124.243C113.191 124.243 114.303 125.355 114.303 126.728C114.303 128.1 113.191 129.212 111.818 129.212C110.446 129.212 109.333 128.1 109.333 126.728C109.333 125.355 110.446 124.243 111.818 124.243Z" fill="#F6F4F9"/>
<path d="M131.697 124.243C133.07 124.243 134.182 125.355 134.182 126.728C134.182 128.1 133.07 129.212 131.697 129.212C130.325 129.212 129.212 128.1 129.212 126.728C129.212 125.355 130.325 124.243 131.697 124.243Z" fill="#F6F4F9"/>
<path d="M146.606 124.243C147.978 124.243 149.091 125.355 149.091 126.728C149.091 128.1 147.978 129.212 146.606 129.212C145.234 129.212 144.121 128.1 144.121 126.728C144.121 125.355 145.234 124.243 146.606 124.243Z" fill="#F6F4F9"/>
<path d="M151.576 124.243C152.948 124.243 154.061 125.355 154.061 126.728C154.061 128.1 152.948 129.212 151.576 129.212C150.203 129.212 149.091 128.1 149.091 126.728C149.091 125.355 150.203 124.243 151.576 124.243Z" fill="#F6F4F9"/>
<path d="M52.1821 129.212C53.5545 129.212 54.667 130.325 54.667 131.697C54.667 133.07 53.5545 134.182 52.1821 134.182C50.8098 134.182 49.6973 133.07 49.6973 131.697C49.6973 130.325 50.8098 129.212 52.1821 129.212Z" fill="#F6F4F9"/>
<path d="M67.0908 129.212C68.4632 129.212 69.5757 130.325 69.5757 131.697C69.5757 133.07 68.4632 134.182 67.0908 134.182C65.7185 134.182 64.606 133.07 64.606 131.697C64.606 130.325 65.7185 129.212 67.0908 129.212Z" fill="#F6F4F9"/>
<path d="M72.0605 129.212C73.4329 129.212 74.5454 130.325 74.5454 131.697C74.5454 133.07 73.4329 134.182 72.0605 134.182C70.6882 134.182 69.5757 133.07 69.5757 131.697C69.5757 130.325 70.6882 129.212 72.0605 129.212Z" fill="#F6F4F9"/>
<path d="M77.0303 129.212C78.4027 129.212 79.5151 130.325 79.5151 131.697C79.5151 133.07 78.4027 134.182 77.0303 134.182C75.6579 134.182 74.5454 133.07 74.5454 131.697C74.5454 130.325 75.6579 129.212 77.0303 129.212Z" fill="#F6F4F9"/>
<path d="M86.9697 129.212C88.3421 129.212 89.4546 130.325 89.4546 131.697C89.4546 133.07 88.3421 134.182 86.9697 134.182C85.5974 134.182 84.4849 133.07 84.4849 131.697C84.4849 130.325 85.5974 129.212 86.9697 129.212Z" fill="#F6F4F9"/>
<path d="M91.9394 129.212C93.3118 129.212 94.4243 130.325 94.4243 131.697C94.4243 133.07 93.3118 134.182 91.9394 134.182C90.5671 134.182 89.4546 133.07 89.4546 131.697C89.4546 130.325 90.5671 129.212 91.9394 129.212Z" fill="#F6F4F9"/>
<path d="M106.849 129.212C108.221 129.212 109.333 130.325 109.333 131.697C109.333 133.07 108.221 134.182 106.849 134.182C105.476 134.182 104.364 133.07 104.364 131.697C104.364 130.325 105.476 129.212 106.849 129.212Z" fill="#F6F4F9"/>
<path d="M111.818 129.212C113.191 129.212 114.303 130.325 114.303 131.697C114.303 133.07 113.191 134.182 111.818 134.182C110.446 134.182 109.333 133.07 109.333 131.697C109.333 130.325 110.446 129.212 111.818 129.212Z" fill="#F6F4F9"/>
<path d="M116.788 129.212C118.16 129.212 119.273 130.325 119.273 131.697C119.273 133.07 118.16 134.182 116.788 134.182C115.416 134.182 114.303 133.07 114.303 131.697C114.303 130.325 115.416 129.212 116.788 129.212Z" fill="#F6F4F9"/>
<path d="M121.758 129.212C123.13 129.212 124.243 130.325 124.243 131.697C124.243 133.07 123.13 134.182 121.758 134.182C120.385 134.182 119.273 133.07 119.273 131.697C119.273 130.325 120.385 129.212 121.758 129.212Z" fill="#F6F4F9"/>
<path d="M126.728 129.212C128.1 129.212 129.212 130.325 129.212 131.697C129.212 133.07 128.1 134.182 126.728 134.182C125.355 134.182 124.243 133.07 124.243 131.697C124.243 130.325 125.355 129.212 126.728 129.212Z" fill="#F6F4F9"/>
<path d="M131.697 129.212C133.07 129.212 134.182 130.325 134.182 131.697C134.182 133.07 133.07 134.182 131.697 134.182C130.325 134.182 129.212 133.07 129.212 131.697C129.212 130.325 130.325 129.212 131.697 129.212Z" fill="#F6F4F9"/>
<path d="M136.666 129.212C138.039 129.212 139.151 130.325 139.151 131.697C139.151 133.07 138.039 134.182 136.666 134.182C135.294 134.182 134.182 133.07 134.182 131.697C134.182 130.325 135.294 129.212 136.666 129.212Z" fill="#F6F4F9"/>
<path d="M52.1821 134.182C53.5545 134.182 54.667 135.294 54.667 136.666C54.667 138.039 53.5545 139.151 52.1821 139.151C50.8098 139.151 49.6973 138.039 49.6973 136.666C49.6973 135.294 50.8098 134.182 52.1821 134.182Z" fill="#F6F4F9"/>
<path d="M72.0605 134.182C73.4329 134.182 74.5454 135.294 74.5454 136.666C74.5454 138.039 73.4329 139.151 72.0605 139.151C70.6882 139.151 69.5757 138.039 69.5757 136.666C69.5757 135.294 70.6882 134.182 72.0605 134.182Z" fill="#F6F4F9"/>
<path d="M77.0303 134.182C78.4027 134.182 79.5151 135.294 79.5151 136.666C79.5151 138.039 78.4027 139.151 77.0303 139.151C75.6579 139.151 74.5454 138.039 74.5454 136.666C74.5454 135.294 75.6579 134.182 77.0303 134.182Z" fill="#F6F4F9"/>
<path d="M82 134.182C83.3724 134.182 84.4848 135.294 84.4848 136.666C84.4848 138.039 83.3724 139.151 82 139.151C80.6277 139.151 79.5151 138.039 79.5151 136.666C79.5151 135.294 80.6277 134.182 82 134.182Z" fill="#F6F4F9"/>
<path d="M91.9394 134.182C93.3118 134.182 94.4243 135.294 94.4243 136.666C94.4243 138.039 93.3118 139.151 91.9394 139.151C90.5671 139.151 89.4546 138.039 89.4546 136.666C89.4546 135.294 90.5671 134.182 91.9394 134.182Z" fill="#F6F4F9"/>
<path d="M96.9092 134.182C98.2816 134.182 99.394 135.294 99.394 136.666C99.394 138.039 98.2816 139.151 96.9092 139.151C95.5368 139.151 94.4243 138.039 94.4243 136.666C94.4243 135.294 95.5368 134.182 96.9092 134.182Z" fill="#F6F4F9"/>
<path d="M101.879 134.182C103.251 134.182 104.364 135.294 104.364 136.666C104.364 138.039 103.251 139.151 101.879 139.151C100.507 139.151 99.394 138.039 99.394 136.666C99.394 135.294 100.507 134.182 101.879 134.182Z" fill="#F6F4F9"/>
<path d="M106.849 134.182C108.221 134.182 109.333 135.294 109.333 136.666C109.333 138.039 108.221 139.151 106.849 139.151C105.476 139.151 104.364 138.039 104.364 136.666C104.364 135.294 105.476 134.182 106.849 134.182Z" fill="#F6F4F9"/>
<path d="M111.818 134.182C113.191 134.182 114.303 135.294 114.303 136.666C114.303 138.039 113.191 139.151 111.818 139.151C110.446 139.151 109.333 138.039 109.333 136.666C109.333 135.294 110.446 134.182 111.818 134.182Z" fill="#F6F4F9"/>
<path d="M116.788 134.182C118.16 134.182 119.273 135.294 119.273 136.666C119.273 138.039 118.16 139.151 116.788 139.151C115.416 139.151 114.303 138.039 114.303 136.666C114.303 135.294 115.416 134.182 116.788 134.182Z" fill="#F6F4F9"/>
<path d="M126.728 134.182C128.1 134.182 129.212 135.294 129.212 136.666C129.212 138.039 128.1 139.151 126.728 139.151C125.355 139.151 124.243 138.039 124.243 136.666C124.243 135.294 125.355 134.182 126.728 134.182Z" fill="#F6F4F9"/>
<path d="M146.606 134.182C147.978 134.182 149.091 135.294 149.091 136.666C149.091 138.039 147.978 139.151 146.606 139.151C145.234 139.151 144.121 138.039 144.121 136.666C144.121 135.294 145.234 134.182 146.606 134.182Z" fill="#F6F4F9"/>
<path d="M62.1211 139.151C63.4935 139.151 64.6059 140.264 64.6059 141.636C64.6059 143.009 63.4935 144.121 62.1211 144.121C60.7487 144.121 59.6362 143.009 59.6362 141.636C59.6362 140.264 60.7487 139.151 62.1211 139.151Z" fill="#F6F4F9"/>
<path d="M77.0303 139.151C78.4027 139.151 79.5151 140.264 79.5151 141.636C79.5151 143.009 78.4027 144.121 77.0303 144.121C75.6579 144.121 74.5454 143.009 74.5454 141.636C74.5454 140.264 75.6579 139.151 77.0303 139.151Z" fill="#F6F4F9"/>
<path d="M91.9394 139.151C93.3118 139.151 94.4243 140.264 94.4243 141.636C94.4243 143.009 93.3118 144.121 91.9394 144.121C90.5671 144.121 89.4546 143.009 89.4546 141.636C89.4546 140.264 90.5671 139.151 91.9394 139.151Z" fill="#F6F4F9"/>
<path d="M116.788 139.151C118.16 139.151 119.273 140.264 119.273 141.636C119.273 143.009 118.16 144.121 116.788 144.121C115.416 144.121 114.303 143.009 114.303 141.636C114.303 140.264 115.416 139.151 116.788 139.151Z" fill="#F6F4F9"/>
<path d="M126.728 139.151C128.1 139.151 129.212 140.264 129.212 141.636C129.212 143.009 128.1 144.121 126.728 144.121C125.355 144.121 124.243 143.009 124.243 141.636C124.243 140.264 125.355 139.151 126.728 139.151Z" fill="#F6F4F9"/>
<path d="M131.697 139.151C133.07 139.151 134.182 140.264 134.182 141.636C134.182 143.009 133.07 144.121 131.697 144.121C130.325 144.121 129.212 143.009 129.212 141.636C129.212 140.264 130.325 139.151 131.697 139.151Z" fill="#F6F4F9"/>
<path d="M141.636 139.151C143.009 139.151 144.121 140.264 144.121 141.636C144.121 143.009 143.009 144.121 141.636 144.121C140.264 144.121 139.151 143.009 139.151 141.636C139.151 140.264 140.264 139.151 141.636 139.151Z" fill="#F6F4F9"/>
<path d="M146.606 139.151C147.978 139.151 149.091 140.264 149.091 141.636C149.091 143.009 147.978 144.121 146.606 144.121C145.234 144.121 144.121 143.009 144.121 141.636C144.121 140.264 145.234 139.151 146.606 139.151Z" fill="#F6F4F9"/>
<path d="M151.576 139.151C152.948 139.151 154.061 140.264 154.061 141.636C154.061 143.009 152.948 144.121 151.576 144.121C150.203 144.121 149.091 143.009 149.091 141.636C149.091 140.264 150.203 139.151 151.576 139.151Z" fill="#F6F4F9"/>
<path d="M67.0908 144.121C68.4632 144.121 69.5757 145.234 69.5757 146.606C69.5757 147.978 68.4632 149.091 67.0908 149.091C65.7185 149.091 64.606 147.978 64.606 146.606C64.606 145.234 65.7185 144.121 67.0908 144.121Z" fill="#F6F4F9"/>
<path d="M77.0303 144.121C78.4027 144.121 79.5151 145.234 79.5151 146.606C79.5151 147.978 78.4027 149.091 77.0303 149.091C75.6579 149.091 74.5454 147.978 74.5454 146.606C74.5454 145.234 75.6579 144.121 77.0303 144.121Z" fill="#F6F4F9"/>
<path d="M86.9697 144.121C88.3421 144.121 89.4546 145.234 89.4546 146.606C89.4546 147.978 88.3421 149.091 86.9697 149.091C85.5974 149.091 84.4849 147.978 84.4849 146.606C84.4849 145.234 85.5974 144.121 86.9697 144.121Z" fill="#F6F4F9"/>
<path d="M116.788 144.121C118.16 144.121 119.273 145.234 119.273 146.606C119.273 147.978 118.16 149.091 116.788 149.091C115.416 149.091 114.303 147.978 114.303 146.606C114.303 145.234 115.416 144.121 116.788 144.121Z" fill="#F6F4F9"/>
<path d="M126.728 144.121C128.1 144.121 129.212 145.234 129.212 146.606C129.212 147.978 128.1 149.091 126.728 149.091C125.355 149.091 124.243 147.978 124.243 146.606C124.243 145.234 125.355 144.121 126.728 144.121Z" fill="#F6F4F9"/>
<path d="M136.666 144.121C138.039 144.121 139.151 145.234 139.151 146.606C139.151 147.978 138.039 149.091 136.666 149.091C135.294 149.091 134.182 147.978 134.182 146.606C134.182 145.234 135.294 144.121 136.666 144.121Z" fill="#F6F4F9"/>
<path d="M141.636 144.121C143.009 144.121 144.121 145.234 144.121 146.606C144.121 147.978 143.009 149.091 141.636 149.091C140.264 149.091 139.151 147.978 139.151 146.606C139.151 145.234 140.264 144.121 141.636 144.121Z" fill="#F6F4F9"/>
<path d="M151.576 144.121C152.948 144.121 154.061 145.234 154.061 146.606C154.061 147.978 152.948 149.091 151.576 149.091C150.203 149.091 149.091 147.978 149.091 146.606C149.091 145.234 150.203 144.121 151.576 144.121Z" fill="#F6F4F9"/>
<path d="M52.1821 149.091C53.5545 149.091 54.667 150.203 54.667 151.576C54.667 152.948 53.5545 154.061 52.1821 154.061C50.8098 154.061 49.6973 152.948 49.6973 151.576C49.6973 150.203 50.8098 149.091 52.1821 149.091Z" fill="#F6F4F9"/>
<path d="M67.0908 149.091C68.4632 149.091 69.5757 150.203 69.5757 151.576C69.5757 152.948 68.4632 154.061 67.0908 154.061C65.7185 154.061 64.606 152.948 64.606 151.576C64.606 150.203 65.7185 149.091 67.0908 149.091Z" fill="#F6F4F9"/>
<path d="M72.0605 149.091C73.4329 149.091 74.5454 150.203 74.5454 151.576C74.5454 152.948 73.4329 154.061 72.0605 154.061C70.6882 154.061 69.5757 152.948 69.5757 151.576C69.5757 150.203 70.6882 149.091 72.0605 149.091Z" fill="#F6F4F9"/>
<path d="M96.9092 149.091C98.2816 149.091 99.394 150.203 99.394 151.576C99.394 152.948 98.2816 154.061 96.9092 154.061C95.5368 154.061 94.4243 152.948 94.4243 151.576C94.4243 150.203 95.5368 149.091 96.9092 149.091Z" fill="#F6F4F9"/>
<path d="M101.879 149.091C103.251 149.091 104.364 150.203 104.364 151.576C104.364 152.948 103.251 154.061 101.879 154.061C100.507 154.061 99.394 152.948 99.394 151.576C99.394 150.203 100.507 149.091 101.879 149.091Z" fill="#F6F4F9"/>
<path d="M106.849 149.091C108.221 149.091 109.333 150.203 109.333 151.576C109.333 152.948 108.221 154.061 106.849 154.061C105.476 154.061 104.364 152.948 104.364 151.576C104.364 150.203 105.476 149.091 106.849 149.091Z" fill="#F6F4F9"/>
<path d="M111.818 149.091C113.191 149.091 114.303 150.203 114.303 151.576C114.303 152.948 113.191 154.061 111.818 154.061C110.446 154.061 109.333 152.948 109.333 151.576C109.333 150.203 110.446 149.091 111.818 149.091Z" fill="#F6F4F9"/>
<path d="M121.758 149.091C123.13 149.091 124.243 150.203 124.243 151.576C124.243 152.948 123.13 154.061 121.758 154.061C120.385 154.061 119.273 152.948 119.273 151.576C119.273 150.203 120.385 149.091 121.758 149.091Z" fill="#F6F4F9"/>
<path d="M131.697 149.091C133.07 149.091 134.182 150.203 134.182 151.576C134.182 152.948 133.07 154.061 131.697 154.061C130.325 154.061 129.212 152.948 129.212 151.576C129.212 150.203 130.325 149.091 131.697 149.091Z" fill="#F6F4F9"/>
<path d="M136.666 149.091C138.039 149.091 139.151 150.203 139.151 151.576C139.151 152.948 138.039 154.061 136.666 154.061C135.294 154.061 134.182 152.948 134.182 151.576C134.182 150.203 135.294 149.091 136.666 149.091Z" fill="#F6F4F9"/>
<path d="M32.8504 9.94189H21.8164C16.4389 9.94189 11.8831 13.4948 10.4265 18.3508C10.2759 18.8532 10.1583 19.3694 10.0765 19.8971C9.98642 20.4795 9.93945 21.0758 9.93945 21.6828V32.9788C9.93945 39.4559 15.269 44.7232 21.8164 44.7232L27.3334 44.7242L32.8504 44.7228C39.3975 44.7228 44.7273 39.4556 44.7273 32.9784V21.6828C44.7273 15.2088 39.3978 9.94189 32.8504 9.94189ZM39.5092 32.9788C39.5092 36.5772 36.5223 39.505 32.849 39.505L27.3334 39.506L21.8178 39.5046C18.1445 39.5046 15.1576 36.5769 15.1576 32.9788V21.6828C15.1576 20.5588 15.4492 19.5006 15.9623 18.5759C16.4563 17.6864 17.1552 16.9214 17.9967 16.3422C19.0786 15.5974 20.396 15.1601 21.816 15.1601H32.8504C36.5223 15.1601 39.5092 18.0861 39.5092 21.6828V32.9788Z" fill="#F6F4F9"/>
<path d="M142.184 9.94238H131.15C125.772 9.94238 121.217 13.4953 119.76 18.3513C119.609 18.8536 119.492 19.3699 119.41 19.8976C119.32 20.48 119.273 21.0762 119.273 21.6833V32.9793C119.273 39.4564 124.602 44.7236 131.15 44.7236L136.667 44.7247L142.184 44.7233C148.731 44.7233 154.061 39.4561 154.061 32.9789V21.6833C154.061 15.2093 148.731 9.94238 142.184 9.94238ZM148.843 32.9793C148.843 36.5777 145.856 39.5055 142.183 39.5055L136.667 39.5065L131.151 39.5051C127.478 39.5051 124.491 36.5774 124.491 32.9793V21.6833C124.491 20.5593 124.783 19.501 125.296 18.5764C125.79 17.6869 126.489 16.9219 127.33 16.3427C128.412 15.5978 129.729 15.1606 131.15 15.1606H142.184C145.856 15.1606 148.843 18.0866 148.843 21.6833V32.9793Z" fill="#F6F4F9"/>
<path d="M32.8504 119.275H21.8164C16.4389 119.275 11.8831 122.828 10.4265 127.684C10.2759 128.187 10.1583 128.703 10.0765 129.231C9.98642 129.813 9.93945 130.409 9.93945 131.016V142.312C9.93945 148.789 15.269 154.057 21.8164 154.057L27.3334 154.058L32.8504 154.056C39.3975 154.056 44.7273 148.789 44.7273 142.312V131.016C44.7273 124.542 39.3978 119.275 32.8504 119.275ZM39.5092 142.312C39.5092 145.911 36.5223 148.838 32.849 148.838L27.3334 148.84L21.8178 148.838C18.1445 148.838 15.1576 145.91 15.1576 142.312V131.016C15.1576 129.892 15.4492 128.834 15.9623 127.909C16.4563 127.02 17.1552 126.255 17.9967 125.676C19.0786 124.931 20.396 124.494 21.816 124.494H32.8504C36.5223 124.494 39.5092 127.42 39.5092 131.016V142.312Z" fill="#F6F4F9"/>
<path d="M23.9568 34.788C21.707 34.788 19.877 32.9941 19.877 30.7912V23.8736C19.877 23.1854 20.0559 22.5378 20.3691 21.9711C20.6716 21.4257 21.0998 20.957 21.6155 20.6033C22.2779 20.1474 23.0854 19.8789 23.9546 19.8789H30.7124C32.9601 19.8789 34.7902 21.6707 34.7902 23.8735V30.791C34.7902 32.9938 32.9603 34.7878 30.7124 34.7878H27.3336L23.9568 34.788Z" fill="#F6F4F9"/>
<path d="M133.29 34.788C131.04 34.788 129.21 32.9941 129.21 30.7912V23.8736C129.21 23.1854 129.389 22.5378 129.702 21.9711C130.005 21.4257 130.433 20.957 130.949 20.6033C131.611 20.1474 132.418 19.8789 133.288 19.8789H140.045C142.293 19.8789 144.123 21.6707 144.123 23.8735V30.791C144.123 32.9938 142.293 34.7878 140.045 34.7878H136.667L133.29 34.788Z" fill="#F6F4F9"/>
<path d="M23.9568 144.121C21.707 144.121 19.877 142.328 19.877 140.125V133.207C19.877 132.519 20.0559 131.871 20.3691 131.305C20.6716 130.759 21.0998 130.29 21.6155 129.937C22.2779 129.481 23.0854 129.212 23.9546 129.212H30.7124C32.9601 129.212 34.7902 131.004 34.7902 133.207V140.125C34.7902 142.327 32.9603 144.121 30.7124 144.121H27.3336L23.9568 144.121Z" fill="#F6F4F9"/>
</svg>
