<svg width="178" height="14" viewBox="0 0 178 14" fill="none" xmlns="http://www.w3.org/2000/svg">
<rect x="0.333252" y="5" width="177" height="4" rx="2" fill="#0651E4"/>
<path d="M11.9226 5H175.783C176.639 5 177.333 5.69405 177.333 6.5502V7.4498C177.333 8.30595 176.639 9 175.783 9H11.9226V5Z" fill="#3BC76B"/>
<path d="M26.6726 5H175.783C176.639 5 177.333 5.69405 177.333 6.5502V7.4498C177.333 8.30595 176.639 9 175.783 9H26.6726V5Z" fill="#FFDF34"/>
<path d="M66.7083 5H175.783C176.639 5 177.333 5.69405 177.333 6.5502V7.4498C177.333 8.30595 176.639 9 175.783 9H66.7083V5Z" fill="#C41341"/>
<path d="M79.3511 5H175.333C176.438 5 177.333 5.89543 177.333 7C177.333 8.10457 176.438 9 175.333 9H79.3511V5Z" fill="#98072D"/>
<rect width="3" height="14" transform="translate(44.3333)" fill="white"/>
</svg>
