<svg width="146" height="145" viewBox="0 0 146 145" fill="none" xmlns="http://www.w3.org/2000/svg">
<g opacity="0.4" filter="url(#filter0_f_685_1793)">
<ellipse cx="73.1161" cy="72.1744" rx="24.15" ry="24.15" fill="#02C5FF"/>
</g>
<g opacity="0.5">
<path d="M43.8646 86.4727C43.9518 86.4813 44.0424 86.4955 44.1299 86.4942C44.108 87.1644 43.8154 86.8858 43.8646 86.4727Z" fill="white" fill-opacity="0.1"/>
<path d="M99.4035 37C103.695 45.2875 99.4835 54.5734 99.4826 63.141C99.4823 64.7097 99.4549 65.2407 99.8699 66.7602L100.389 68.6794C101.457 72.7258 102.679 76.9968 103.936 80.9986C105.27 85.2423 104.515 85.0483 101.409 87.2933L74.7886 107.037C74.639 107.15 74.4107 107.373 74.2103 107.348C73.8629 107.351 72.8648 106.427 72.5657 106.198L69.7792 104.065C67.7074 102.489 65.602 100.951 63.5059 99.4068L53.737 92.2052C51.2787 90.3941 48.8474 88.5497 46.3569 86.7816C45.8094 86.3928 44.1522 85.4417 43.9962 84.8849L43.9311 84.8264C43.8439 84.8277 43.7536 84.8136 43.6666 84.805C43.7806 82.9151 44.5464 81.1002 45.0691 79.2926L47.7204 70.0705C48.7309 66.5181 49.0607 66.0822 49.0598 62.4086C49.0606 54.008 45.0691 45.1296 49.0248 37.041C49.0248 37.041 54.8275 41.3069 56.8015 43.0719C59.0799 45.1496 61.8864 47.9624 64.3334 49.7744L82.0773 49.7749C84.6464 49.7755 83.9426 50.0478 85.9747 48.2226L88.1295 46.3064C91.5777 43.2045 99.4035 37 99.4035 37ZM72.5238 83.1909C68.9739 83.5614 66.2376 86.2985 66.6309 89.9619C66.9052 92.5179 72.2186 100.367 73.7814 102.629C73.9895 102.93 74.4279 102.925 74.6324 102.621C76.1195 100.413 81.0609 92.9719 81.7018 90.6522C82.3832 88.1859 81.1233 85.5492 79.0427 84.1774C77.4664 83.1381 74.4518 82.9963 72.5238 83.1909ZM62.4712 61.5952C61.0209 61.8842 60.3021 63.2213 60.5824 64.6213C60.9737 66.5756 63.464 69.2728 65.6809 68.7753C66.9579 68.6615 67.7701 67.6401 67.651 66.3678C67.4581 64.3083 64.7266 61.2574 62.4712 61.5952ZM85.3884 61.6317C81.2066 62.3113 78.6309 69.275 83.5216 68.7922C88.1223 68.1152 89.7302 61.3353 85.3884 61.6317Z" fill="white" fill-opacity="0.1"/>
</g>
<defs>
<filter id="filter0_f_685_1793" x="0.713303" y="-0.228348" width="144.806" height="144.805" filterUnits="userSpaceOnUse" color-interpolation-filters="sRGB">
<feFlood flood-opacity="0" result="BackgroundImageFix"/>
<feBlend mode="normal" in="SourceGraphic" in2="BackgroundImageFix" result="shape"/>
<feGaussianBlur stdDeviation="24.1264" result="effect1_foregroundBlur_685_1793"/>
</filter>
</defs>
</svg>
