<svg width="146" height="145" viewBox="0 0 146 145" fill="none" xmlns="http://www.w3.org/2000/svg">
<g opacity="0.4" filter="url(#filter0_f_685_1650)">
<ellipse cx="72.7828" cy="72.1744" rx="24.15" ry="24.15" fill="#FF00F5"/>
</g>
<g opacity="0.5">
<path d="M43.5312 86.4727C43.6184 86.4813 43.7091 86.4955 43.7965 86.4942C43.7746 87.1644 43.4821 86.8858 43.5312 86.4727Z" fill="white" fill-opacity="0.1"/>
<path d="M99.0702 37C103.362 45.2875 99.1502 54.5734 99.1492 63.141C99.149 64.7097 99.1215 65.2407 99.5366 66.7602L100.055 68.6794C101.123 72.7258 102.345 76.9968 103.603 80.9986C104.936 85.2423 104.182 85.0483 101.075 87.2933L74.4553 107.037C74.3056 107.15 74.0773 107.373 73.8769 107.348C73.5295 107.351 72.5314 106.427 72.2323 106.198L69.4458 104.065C67.3741 102.489 65.2686 100.951 63.1725 99.4068L53.4036 92.2052C50.9453 90.3941 48.5141 88.5497 46.0235 86.7816C45.476 86.3928 43.8188 85.4417 43.6628 84.8849L43.5977 84.8264C43.5105 84.8277 43.4202 84.8136 43.3333 84.805C43.4473 82.9151 44.2131 81.1002 44.7357 79.2926L47.387 70.0705C48.3975 66.5181 48.7273 66.0822 48.7264 62.4086C48.7272 54.008 44.7357 45.1296 48.6914 37.041C48.6914 37.041 54.4942 41.3069 56.4681 43.0719C58.7466 45.1496 61.5531 47.9624 64 49.7744L81.744 49.7749C84.3131 49.7755 83.6092 50.0478 85.6413 48.2226L87.7961 46.3064C91.2443 43.2045 99.0702 37 99.0702 37ZM72.1905 83.1909C68.6405 83.5614 65.9042 86.2985 66.2976 89.9619C66.5719 92.5179 71.8852 100.367 73.448 102.629C73.6561 102.93 74.0945 102.925 74.299 102.621C75.7862 100.413 80.7275 92.9719 81.3684 90.6522C82.0498 88.1859 80.7899 85.5492 78.7093 84.1774C77.133 83.1381 74.1184 82.9963 72.1905 83.1909ZM62.1378 61.5952C60.6875 61.8842 59.9687 63.2213 60.249 64.6213C60.6404 66.5756 63.1306 69.2728 65.3475 68.7753C66.6245 68.6615 67.4367 67.6401 67.3176 66.3678C67.1248 64.3083 64.3932 61.2574 62.1378 61.5952ZM85.0551 61.6317C80.8732 62.3113 78.2975 69.275 83.1882 68.7922C87.7889 68.1152 89.3968 61.3353 85.0551 61.6317Z" fill="white" fill-opacity="0.1"/>
</g>
<defs>
<filter id="filter0_f_685_1650" x="0.380051" y="-0.228348" width="144.806" height="144.805" filterUnits="userSpaceOnUse" color-interpolation-filters="sRGB">
<feFlood flood-opacity="0" result="BackgroundImageFix"/>
<feBlend mode="normal" in="SourceGraphic" in2="BackgroundImageFix" result="shape"/>
<feGaussianBlur stdDeviation="24.1264" result="effect1_foregroundBlur_685_1650"/>
</filter>
</defs>
</svg>
