<svg width="49" height="49" viewBox="0 0 49 49" fill="none" xmlns="http://www.w3.org/2000/svg">
<path fill-rule="evenodd" clip-rule="evenodd" d="M0.5 24.5002V49.0004L24.5234 48.9763L48.5469 48.9521L48.5705 24.4761L48.5941 0H24.5471H0.5V24.5002ZM0.546125 24.5479C0.546125 38.0229 0.557 43.5211 0.570312 36.7663C0.583625 30.0114 0.583625 18.9864 0.570312 12.2663C0.557 5.54609 0.546125 11.0729 0.546125 24.5479ZM20.969 8.01514C20.9998 8.21257 21.3323 10.3012 21.7078 12.6565L22.3906 16.9391L25.44 16.9393L28.4895 16.9395L29.2176 12.3696C29.618 9.85618 29.9439 7.76746 29.9416 7.72803C29.9394 7.6886 27.907 7.65625 25.4252 7.65625H20.9129L20.969 8.01514ZM22.4375 20.0498V21.6289H25.4375H28.4375V20.0498V18.4707H25.4375H22.4375V20.0498ZM8 25.4445C8 27.9779 8.03169 30.0526 8.07031 30.0549C8.10894 30.0571 10.1551 29.7241 12.6172 29.3149L17.0938 28.5709V25.4588V22.3467L12.8984 21.6492C10.5911 21.2655 8.54497 20.9262 8.35156 20.895L8 20.8382V25.4445ZM18.5938 25.457V28.5195H20.1406H21.6875V25.457V22.3945H20.1406H18.5938V25.457ZM24.3588 24.4049L23.3303 25.4582L24.3838 26.5337L25.4375 27.6093L26.4912 26.5337L27.5447 25.4582L26.5162 24.4049C25.9504 23.8256 25.4651 23.3516 25.4375 23.3516C25.4099 23.3516 24.9246 23.8256 24.3588 24.4049ZM28.1318 28.2095L25.9993 30.388L27.0784 31.4866L28.1576 32.5851L30.2893 30.4089L32.4211 28.2327L31.3427 27.1318L30.2644 26.031L28.1318 28.2095ZM31.3101 31.4728C30.1482 32.6598 29.2767 33.6241 29.2953 33.702C29.3133 33.7775 30.5053 35.5317 31.9439 37.6003L34.5597 41.3615L37.7778 38.0774C39.5477 36.2712 40.9651 34.7628 40.9276 34.7255C40.6952 34.4942 33.5594 29.3809 33.4691 29.3809C33.4078 29.3809 32.4363 30.3223 31.3101 31.4728Z" fill="white"/>
</svg>
