<svg width="49" height="49" viewBox="0 0 49 49" fill="none" xmlns="http://www.w3.org/2000/svg">
<path fill-rule="evenodd" clip-rule="evenodd" d="M20.6507 0.38729C15.7347 1.2519 11.689 3.25452 8.15961 6.57041C5.43678 9.12841 3.17302 12.5796 1.9676 16.0103L1.50854 17.3167L1.93564 17.4469C2.17076 17.5186 5.39717 17.9103 9.10579 18.317L15.8484 19.0567L16.452 18.2847C17.5502 16.8798 18.8166 15.8377 20.306 15.1133C21.1149 14.7199 21.8169 14.3684 21.8657 14.3322C21.9147 14.2961 22.3181 11.0531 22.7619 7.1258C23.563 0.0394863 23.5659 -0.0145647 23.1631 0.00110218C22.9398 0.00971894 21.8092 0.183621 20.6507 0.38729ZM29.6508 7.5817C29.2392 11.3204 28.8655 14.5147 28.8202 14.6803C28.766 14.8793 29.1737 15.2675 30.0232 15.8252C31.5079 16.8001 32.6721 18.1711 33.4926 19.9115C33.8101 20.5846 34.1407 21.1355 34.2274 21.1355C34.3143 21.1355 37.5365 21.4929 41.3881 21.93C45.2399 22.3669 48.4292 22.6863 48.4757 22.6399C48.6434 22.4726 47.9049 18.457 47.4289 16.9483C45.2111 9.91704 39.906 4.25622 33.113 1.67178C32.1629 1.31046 31.1637 0.962851 30.8925 0.8994L30.3995 0.784249L29.6508 7.5817ZM0.5 24.6546C0.5 24.8667 0.640602 25.9904 0.812385 27.1515C1.99839 35.1665 6.7228 41.7483 13.8459 45.3094C15.7771 46.2749 18.0798 47.1383 18.2346 46.955C18.2656 46.918 18.6128 43.9797 19.0062 40.4253C19.3994 36.8709 19.7661 33.6891 19.821 33.3546C19.9096 32.8149 19.8314 32.6874 19.1249 32.2204C17.3243 31.0305 15.8877 29.15 15.1982 27.0808C14.9699 26.3958 14.757 25.8355 14.725 25.8355C14.693 25.8355 11.5127 25.483 7.6576 25.0522C3.8025 24.6214 0.61511 24.2688 0.574322 24.2688C0.533337 24.2688 0.5 24.4424 0.5 24.6546ZM33.052 28.9176C32.2874 30.3656 30.5503 31.9707 28.8788 32.7736C28.0777 33.1582 27.2773 33.4731 27.0998 33.4731C26.9223 33.4731 26.7703 33.4952 26.7621 33.5221C26.7539 33.5489 26.375 36.8176 25.9201 40.7854L25.0933 48L26.1803 47.8678C28.4605 47.5909 30.6298 47.1489 32.0591 46.6699C38.0237 44.6712 43.0189 40.3618 45.9025 34.7269C46.7791 33.0143 47.9078 29.8349 47.7098 29.6369C47.6278 29.5552 34.4137 27.9993 33.7383 27.9919C33.6303 27.9907 33.3214 28.4072 33.052 28.9176Z" fill="white"/>
</svg>
