<svg width="24" height="24" viewBox="0 0 24 24" fill="none" xmlns="http://www.w3.org/2000/svg">
<path d="M21.49 7.80863V7.81V16.19C21.49 17.9106 20.9791 19.2238 20.0964 20.1064C19.2138 20.9891 17.9006 21.5 16.18 21.5H7.81C6.08945 21.5 4.77634 20.9891 3.89377 20.1054C3.01114 19.2217 2.5 17.9059 2.5 16.18V7.81C2.5 6.08944 3.01093 4.77618 3.89355 3.89355C4.77618 3.01093 6.08944 2.5 7.81 2.5H16.19C17.9107 2.5 19.2237 3.01097 20.105 3.89333C20.9861 4.77559 21.4947 6.08838 21.49 7.80863ZM8.11645 10.6264L8.1164 10.6264L8.11051 10.6325C7.63641 11.1229 7.62794 11.905 8.11645 12.3936L11.1164 15.3936C11.2394 15.5165 11.3746 15.5981 11.5069 15.6569L11.5155 15.6607L11.5243 15.6642C11.672 15.7233 11.8252 15.76 12 15.76C12.1653 15.76 12.335 15.7272 12.4931 15.6569C12.6254 15.5981 12.7606 15.5165 12.8836 15.3936L15.8836 12.3936C16.3688 11.9083 16.3688 11.1117 15.8836 10.6264C15.3983 10.1412 14.6017 10.1412 14.1164 10.6264L13.25 11.4929V6.51C13.25 5.82386 12.6861 5.26 12 5.26C11.3139 5.26 10.75 5.82386 10.75 6.51V11.4929L9.88355 10.6264C9.39829 10.1412 8.60171 10.1412 8.11645 10.6264ZM19.1989 16.1263L19.1967 16.1191L19.1943 16.1119C18.9753 15.4547 18.2586 15.1101 17.6119 15.3257C13.9955 16.5311 10.0177 16.5314 6.40118 15.3267C5.72975 15.0941 5.03035 15.4678 4.81566 16.1119C4.60007 16.7586 4.94473 17.4753 5.60189 17.6943C7.66324 18.3815 9.82666 18.73 12 18.73C14.1733 18.73 16.3368 18.3815 18.3981 17.6943C19.0552 17.4753 19.3933 16.7742 19.1989 16.1263Z" fill="#C41341" stroke="#C41341"/>
</svg>
