<svg width="20" height="20" viewBox="0 0 20 20" fill="none" xmlns="http://www.w3.org/2000/svg">
<path d="M16.0334 4.64997H15.7L12.8834 1.8333C12.6584 1.6083 12.2917 1.6083 12.0584 1.8333C11.8334 2.0583 11.8334 2.42497 12.0584 2.6583L14.05 4.64997H5.95002L7.94169 2.6583C8.16669 2.4333 8.16669 2.06663 7.94169 1.8333C7.71669 1.6083 7.35002 1.6083 7.11669 1.8333L4.30835 4.64997H3.97502C3.22502 4.64997 1.66669 4.64997 1.66669 6.7833C1.66669 7.59163 1.83335 8.12497 2.18335 8.47497C2.38335 8.6833 2.62502 8.79163 2.88335 8.84997C3.12502 8.9083 3.38335 8.91663 3.63335 8.91663H16.3667C16.625 8.91663 16.8667 8.89997 17.1 8.84997C17.8 8.6833 18.3334 8.1833 18.3334 6.7833C18.3334 4.64997 16.775 4.64997 16.0334 4.64997Z" fill="white"/>
<path d="M15.8749 10H4.05826C3.54159 10 3.14993 10.4583 3.23326 10.9667L3.93326 15.25C4.16659 16.6833 4.79159 18.3333 7.56659 18.3333H12.2416C15.0499 18.3333 15.5499 16.925 15.8499 15.35L16.6916 10.9917C16.7916 10.475 16.3999 10 15.8749 10ZM8.84159 15.375C8.84159 15.7 8.58326 15.9583 8.26659 15.9583C7.94159 15.9583 7.68326 15.7 7.68326 15.375V12.625C7.68326 12.3083 7.94159 12.0417 8.26659 12.0417C8.58326 12.0417 8.84159 12.3083 8.84159 12.625V15.375ZM12.4083 15.375C12.4083 15.7 12.1499 15.9583 11.8249 15.9583C11.5083 15.9583 11.2416 15.7 11.2416 15.375V12.625C11.2416 12.3083 11.5083 12.0417 11.8249 12.0417C12.1499 12.0417 12.4083 12.3083 12.4083 12.625V15.375Z" fill="white"/>
</svg>
