<svg width="24" height="24" viewBox="0 0 24 24" fill="none" xmlns="http://www.w3.org/2000/svg">
<path d="M18.4864 5.93312L18.6329 6.07957H18.84H19.24C19.7022 6.07957 20.2625 6.08872 20.7118 6.33714C20.9228 6.45381 21.1112 6.62555 21.2513 6.8922C21.394 7.16364 21.5 7.55922 21.5 8.13957C21.5 8.92335 21.3496 9.38013 21.1631 9.65108C20.9865 9.90775 20.7397 10.0524 20.4096 10.1319C20.1777 10.181 19.9274 10.1996 19.64 10.1996H4.36C4.06436 10.1996 3.80543 10.1886 3.57732 10.1335L3.57733 10.1335L3.57013 10.1318C3.32695 10.0769 3.13495 9.98399 2.98069 9.8233L2.98077 9.82323L2.97355 9.81602C2.69006 9.53252 2.5 9.05302 2.5 8.13957C2.5 7.5592 2.60601 7.1637 2.74876 6.89235C2.88897 6.62582 3.07748 6.45408 3.28904 6.33736C3.73964 6.08875 4.30249 6.07957 4.77 6.07957H5.17H5.37754L5.52408 5.9326L8.88966 2.55703C8.97814 2.47418 9.10223 2.48228 9.17337 2.55012C9.25654 2.63983 9.2468 2.76567 9.17645 2.83602L6.78645 5.22602L5.93289 6.07957H7.14H16.86H18.0671L17.2136 5.22602L14.8276 2.84009C14.7446 2.7516 14.7527 2.62739 14.8205 2.55621C14.9103 2.47303 15.0361 2.48277 15.1064 2.55312L18.4864 5.93312Z" fill="#C41341" stroke="#C41341"/>
<path d="M4.37361 13.0794L4.37357 13.0791C4.32389 12.7761 4.55596 12.5 4.87016 12.5H19.0502C19.3652 12.5 19.5997 12.7828 19.5393 13.095L19.5392 13.0952L18.5292 18.3252L18.529 18.3264C18.3496 19.268 18.1281 20.0327 17.6188 20.5772C17.1298 21.0999 16.2933 21.5 14.6902 21.5H9.08015C7.5216 21.5 6.65074 21.0415 6.12812 20.4606C5.58733 19.8595 5.34916 19.052 5.21366 18.2197L5.21361 18.2194L4.37361 13.0794ZM9.92016 19.65C10.581 19.65 11.1102 19.1114 11.1102 18.45V15.15C11.1102 14.5032 10.5856 13.95 9.92016 13.95C9.24938 13.95 8.72016 14.4985 8.72016 15.15V18.45C8.72016 19.1161 9.25401 19.65 9.92016 19.65ZM14.1902 19.65C14.8563 19.65 15.3902 19.1161 15.3902 18.45V15.15C15.3902 14.4985 14.8609 13.95 14.1902 13.95C13.534 13.95 12.9902 14.4939 12.9902 15.15V18.45C12.9902 19.1208 13.5387 19.65 14.1902 19.65Z" fill="#C41341" stroke="#C41341"/>
</svg>
