<svg width="22" height="24" viewBox="0 0 22 24" fill="none" xmlns="http://www.w3.org/2000/svg">
<path fill-rule="evenodd" clip-rule="evenodd" d="M1.64333 0.357402C1.3095 0.552236 0.878162 0.993068 0.684995 1.33707C0.339828 1.95107 0.333496 2.12024 0.333496 10.7502C0.333496 19.3276 0.341828 19.5527 0.678162 20.1442C1.42633 21.4599 1.11416 21.4061 8.5835 21.5069L15.2502 21.5969L17.9892 22.7137C19.4957 23.3281 20.8643 23.8737 21.0308 23.9266C21.3212 24.0187 21.3335 23.5744 21.3335 12.9926C21.3335 2.1484 21.3277 1.95207 20.9888 1.35624C20.7993 1.0229 20.4432 0.600235 20.1972 0.416901C19.7652 0.0947348 19.4568 0.0822353 11.0002 0.0434019C2.3425 0.00356858 2.24383 0.00690238 1.64333 0.357402ZM3.50683 15.0756C3.16033 15.4929 3.3895 15.8961 4.33516 16.5337C7.30916 18.5387 12.0433 18.8972 15.7397 17.3971C17.5877 16.6471 18.5855 15.7707 18.2315 15.2086C17.9367 14.7404 17.6102 14.7821 16.6827 15.4062C16.2033 15.7289 15.1973 16.1962 14.4472 16.4449C13.2347 16.8469 12.8342 16.8971 10.8335 16.8971C8.8415 16.8971 8.43066 16.8461 7.25016 16.4531C6.51683 16.2089 5.5165 15.7446 5.02733 15.4214C4.04483 14.7722 3.804 14.7174 3.50683 15.0756Z" fill="#FFFEFF"/>
</svg>
