<svg width="136" height="136" viewBox="0 0 136 136" fill="none" xmlns="http://www.w3.org/2000/svg">
<path opacity="0.4" d="M67.9997 124.667C99.2958 124.667 124.666 99.2968 124.666 68.0007C124.666 36.7045 99.2958 11.334 67.9997 11.334C36.7035 11.334 11.333 36.7045 11.333 68.0007C11.333 99.2968 36.7035 124.667 67.9997 124.667Z" fill="#C41341"/>
<path d="M89.0213 90.268C88.2847 90.268 87.548 90.098 86.868 89.6447L69.3013 79.1614C64.938 76.5547 61.708 70.8313 61.708 65.788V42.5547C61.708 40.2314 63.6347 38.3047 65.958 38.3047C68.2813 38.3047 70.208 40.2314 70.208 42.5547V65.788C70.208 67.828 71.908 70.8314 73.6647 71.8514L91.2313 82.3347C93.2713 83.5247 93.8947 86.1314 92.7047 88.1714C91.8547 89.5314 90.438 90.268 89.0213 90.268Z" fill="#C41341"/>
</svg>
