<svg width="136" height="136" viewBox="0 0 136 136" fill="none" xmlns="http://www.w3.org/2000/svg">
<path opacity="0.4" d="M112.143 23.9135C95.3697 7.19681 68.1697 7.19681 51.5097 23.9135C39.7797 35.5301 36.2664 52.2468 40.7997 66.9801L14.1664 93.6135C12.2964 95.5402 10.993 99.3368 11.3897 102.057L13.0897 114.41C13.713 118.49 17.5097 122.343 21.5897 122.91L33.943 124.61C36.663 125.007 40.4597 123.76 42.3864 121.777L47.033 117.13C48.1664 116.053 48.1664 114.24 47.033 113.107L36.0397 102.113C34.3964 100.47 34.3964 97.7501 36.0397 96.1068C37.683 94.4635 40.403 94.4635 42.0464 96.1068L53.0964 107.157C54.173 108.233 55.9864 108.233 57.063 107.157L69.0764 95.2001C83.753 99.7901 100.47 96.2202 112.143 84.6035C128.86 67.8868 128.86 40.6301 112.143 23.9135ZM82.1664 68.0001C74.3464 68.0001 67.9997 61.6535 67.9997 53.8335C67.9997 46.0135 74.3464 39.6668 82.1664 39.6668C89.9864 39.6668 96.333 46.0135 96.333 53.8335C96.333 61.6535 89.9864 68.0001 82.1664 68.0001Z" fill="#C41341"/>
<path d="M82.1667 68.0003C89.9907 68.0003 96.3333 61.6577 96.3333 53.8337C96.3333 46.0096 89.9907 39.667 82.1667 39.667C74.3426 39.667 68 46.0096 68 53.8337C68 61.6577 74.3426 68.0003 82.1667 68.0003Z" fill="#C41341"/>
</svg>
