<svg width="136" height="136" viewBox="0 0 136 136" fill="none" xmlns="http://www.w3.org/2000/svg">
<path opacity="0.4" d="M109.026 31.6202H106.76L87.6063 12.4668C86.0763 10.9368 83.583 10.9368 81.9963 12.4668C80.4663 13.9968 80.4663 16.4902 81.9963 18.0768L95.5397 31.6202H40.4597L54.003 18.0768C55.533 16.5468 55.533 14.0535 54.003 12.4668C52.473 10.9368 49.9797 10.9368 48.393 12.4668L29.2963 31.6202H27.0297C21.9297 31.6202 11.333 31.6202 11.333 46.1268C11.333 51.6235 12.4663 55.2502 14.8463 57.6302C16.2063 59.0468 17.8497 59.7835 19.6063 60.1802C21.2497 60.5768 23.0063 60.6335 24.7063 60.6335H111.293C113.05 60.6335 114.693 60.5202 116.28 60.1802C121.04 59.0468 124.666 55.6468 124.666 46.1268C124.666 31.6202 114.07 31.6202 109.026 31.6202Z" fill="#C41341"/>
<path d="M111.406 60.633H24.7064C23.0631 60.633 21.2498 60.5764 19.6064 60.123L26.7464 103.7C28.3898 113.446 32.6398 124.666 51.5098 124.666H83.2998C102.396 124.666 105.796 115.09 107.836 104.38L116.393 60.123C114.806 60.5197 113.106 60.633 111.406 60.633ZM84.3198 85.283L65.9031 102.283C65.1098 103.02 64.0331 103.416 63.0131 103.416C61.9364 103.416 60.8598 103.02 60.0098 102.17L51.5098 93.6697C49.8664 92.0264 49.8664 89.3064 51.5098 87.663C53.1531 86.0197 55.8731 86.0197 57.5164 87.663L63.1264 93.273L78.5398 79.0497C80.2398 77.463 82.9598 77.5764 84.5464 79.2764C86.1898 81.033 86.0764 83.6964 84.3198 85.283Z" fill="#C41341"/>
<path d="M84.3198 85.2835L65.9032 102.284C65.1098 103.02 64.0332 103.417 63.0132 103.417C61.9365 103.417 60.8598 103.02 60.0098 102.17L51.5098 93.6702C49.8665 92.0269 49.8665 89.3069 51.5098 87.6635C53.1532 86.0202 55.8732 86.0202 57.5165 87.6635L63.1265 93.2735L78.5398 79.0502C80.2398 77.4635 82.9598 77.5769 84.5465 79.2769C86.1898 81.0335 86.0765 83.6969 84.3198 85.2835Z" fill="white"/>
</svg>
