<svg width="24" height="24" viewBox="0 0 24 24" fill="none" xmlns="http://www.w3.org/2000/svg">
<path d="M21.49 7.80863V7.81V16.19C21.49 17.9106 20.9791 19.2238 20.0964 20.1064C19.2138 20.9891 17.9006 21.5 16.18 21.5H7.81C6.08945 21.5 4.77634 20.9891 3.89377 20.1054C3.01114 19.2217 2.5 17.9059 2.5 16.18V7.81C2.5 6.08944 3.01093 4.77618 3.89355 3.89355C4.77618 3.01093 6.08944 2.5 7.81 2.5H16.19C17.9107 2.5 19.2237 3.01097 20.105 3.89333C20.9861 4.77559 21.4947 6.08838 21.49 7.80863ZM8.11645 8.62645L8.1164 8.6264L8.11051 8.63249C7.64503 9.11402 7.60943 9.89654 8.10645 10.3936C8.59171 10.8788 9.38829 10.8788 9.87355 10.3936L10.74 9.52711V14.51C10.74 15.1961 11.3039 15.76 11.99 15.76C12.6761 15.76 13.24 15.1961 13.24 14.51V9.52711L14.1064 10.3936C14.3552 10.6423 14.6745 10.76 14.99 10.76C15.3055 10.76 15.6248 10.6423 15.8736 10.3936C16.3588 9.90829 16.3588 9.11171 15.8736 8.62645L12.8736 5.62645C12.7506 5.50353 12.6154 5.42189 12.4831 5.36309C12.1738 5.22564 11.8162 5.22564 11.5069 5.36309C11.3746 5.42189 11.2394 5.50353 11.1164 5.62645L8.11645 8.62645ZM19.1989 16.1263L19.1967 16.1191L19.1943 16.1119C18.9753 15.4547 18.2586 15.1101 17.6119 15.3257C13.9961 16.5309 10.0189 16.5314 6.40284 15.3272C5.74023 15.0932 5.03027 15.4681 4.81566 16.1119C4.60007 16.7586 4.94473 17.4753 5.60189 17.6943C7.66324 18.3815 9.82666 18.73 12 18.73C14.1733 18.73 16.3368 18.3815 18.3981 17.6943C19.0552 17.4753 19.3933 16.7742 19.1989 16.1263Z" fill="#C41341" stroke="#C41341"/>
</svg>
