<svg width="24" height="24" viewBox="0 0 24 24" fill="none" xmlns="http://www.w3.org/2000/svg">
<path d="M3.83008 13.32C3.83008 8.81614 7.49622 5.14999 12.0001 5.14999C16.5032 5.14999 20.1701 8.82539 20.1701 13.33C20.1701 17.8339 16.5039 21.5 12.0001 21.5C7.49697 21.5 3.83008 17.8246 3.83008 13.32ZM12.0001 14.25C12.6862 14.25 13.2501 13.6861 13.2501 13V7.99999C13.2501 7.31385 12.6862 6.74999 12.0001 6.74999C11.3139 6.74999 10.7501 7.31385 10.7501 7.99999V13C10.7501 13.6861 11.3139 14.25 12.0001 14.25Z" fill="#C41341" stroke="#C41341"/>
<path d="M14.8899 2.95H9.10989C8.98603 2.95 8.88989 2.85386 8.88989 2.73C8.88989 2.59712 8.99497 2.5 9.10989 2.5H14.8899C15.0137 2.5 15.1099 2.59614 15.1099 2.72C15.1099 2.85288 15.0048 2.95 14.8899 2.95Z" fill="#C41341" stroke="#C41341"/>
</svg>
