<svg width="145" height="145" viewBox="0 0 145 145" fill="none" xmlns="http://www.w3.org/2000/svg">
<g opacity="0.4" filter="url(#filter0_f_892_17998)">
<ellipse cx="72.4496" cy="72.1744" rx="24.15" ry="24.15" fill="#C41341"/>
</g>
<g opacity="0.5">
<path d="M43.1979 86.4727C43.2852 86.4813 43.3758 86.4955 43.4632 86.4942C43.4414 87.1644 43.1488 86.8858 43.1979 86.4727Z" fill="white" fill-opacity="0.1"/>
<path d="M98.7369 37C103.028 45.2875 98.8169 54.5734 98.816 63.141C98.8157 64.7097 98.7883 65.2407 99.2033 66.7602L99.7221 68.6794C100.79 72.7258 102.012 76.9968 103.27 80.9986C104.603 85.2423 103.849 85.0483 100.742 87.2933L74.122 107.037C73.9723 107.15 73.7441 107.373 73.5436 107.348C73.1963 107.351 72.1982 106.427 71.899 106.198L69.1126 104.065C67.0408 102.489 64.9353 100.951 62.8393 99.4068L53.0703 92.2052C50.612 90.3941 48.1808 88.5497 45.6903 86.7816C45.1427 86.3928 43.4856 85.4417 43.3296 84.8849L43.2644 84.8264C43.1773 84.8277 43.0869 84.8136 43 84.805C43.114 82.9151 43.8798 81.1002 44.4024 79.2926L47.0538 70.0705C48.0643 66.5181 48.394 66.0822 48.3932 62.4086C48.394 54.008 44.4024 45.1296 48.3582 37.041C48.3582 37.041 54.1609 41.3069 56.1348 43.0719C58.4133 45.1496 61.2198 47.9624 63.6668 49.7744L81.4107 49.7749C83.9798 49.7755 83.276 50.0478 85.3081 48.2226L87.4629 46.3064C90.9111 43.2045 98.7369 37 98.7369 37ZM71.8572 83.1909C68.3073 83.5614 65.5709 86.2985 65.9643 89.9619C66.2386 92.5179 71.5519 100.367 73.1148 102.629C73.3229 102.93 73.7612 102.925 73.9657 102.621C75.4529 100.413 80.3943 92.9719 81.0351 90.6522C81.7166 88.1859 80.4567 85.5492 78.3761 84.1774C76.7998 83.1381 73.7852 82.9963 71.8572 83.1909ZM61.8045 61.5952C60.3543 61.8842 59.6355 63.2213 59.9158 64.6213C60.3071 66.5756 62.7974 69.2728 65.0143 68.7753C66.2913 68.6615 67.1035 67.6401 66.9844 66.3678C66.7915 64.3083 64.0599 61.2574 61.8045 61.5952ZM84.7218 61.6317C80.54 62.3113 77.9642 69.275 82.8549 68.7922C87.4557 68.1152 89.0635 61.3353 84.7218 61.6317Z" fill="white" fill-opacity="0.1"/>
</g>
<defs>
<filter id="filter0_f_892_17998" x="0.0467987" y="-0.228348" width="144.806" height="144.805" filterUnits="userSpaceOnUse" color-interpolation-filters="sRGB">
<feFlood flood-opacity="0" result="BackgroundImageFix"/>
<feBlend mode="normal" in="SourceGraphic" in2="BackgroundImageFix" result="shape"/>
<feGaussianBlur stdDeviation="24.1264" result="effect1_foregroundBlur_892_17998"/>
</filter>
</defs>
</svg>
