<svg width="135" height="48" viewBox="0 0 135 48" fill="none" xmlns="http://www.w3.org/2000/svg">
<path d="M38.4392 0C41.3988 5.6546 38.4943 11.9904 38.4937 17.8361C38.4935 18.9064 38.4746 19.2687 38.7608 20.3054L39.1186 21.615C39.8551 24.3758 40.6979 27.2899 41.5652 30.0204C42.4848 32.9159 41.9645 32.7835 39.8221 34.3153L21.4634 47.7862C21.3601 47.8636 21.2027 48.0158 21.0645 47.9987C20.8249 48.001 20.1366 47.3701 19.9303 47.2143L18.0086 45.7587C16.5798 44.6832 15.1277 43.6338 13.6822 42.5804L6.94498 37.6667C5.2496 36.4309 3.57289 35.1725 1.85529 33.9661C-0.648925 32.2072 0.0246464 32.0815 0.967114 28.8563L2.79564 22.5641C3.49252 20.1403 3.71995 19.8429 3.71935 17.3364C3.71991 11.6046 0.967114 5.54685 3.69521 0.0279987C3.69521 0.0279987 7.69711 2.93858 9.05842 4.14291C10.6298 5.56048 12.5653 7.47967 14.2529 8.71604L26.4901 8.71636C28.2618 8.71674 27.7765 8.90256 29.1779 7.65724L30.664 6.34975C33.042 4.23334 38.4392 0 38.4392 0ZM19.9014 31.5162C17.4532 31.769 15.5661 33.6365 15.8374 36.1361C16.0344 37.9528 20.0026 43.6883 20.8896 44.9512C20.9758 45.0738 21.1519 45.0719 21.2364 44.9481C22.0812 43.7121 25.77 38.2582 26.231 36.6071C26.701 34.9243 25.8321 33.1253 24.3972 32.1893C23.3101 31.4802 21.2311 31.3834 19.9014 31.5162ZM12.9686 16.7814C11.9684 16.9786 11.4726 17.8909 11.666 18.8461C11.9359 20.1795 13.6533 22.0198 15.1822 21.6804C16.0629 21.6027 16.623 20.9058 16.5409 20.0377C16.4079 18.6325 14.524 16.5509 12.9686 16.7814ZM28.7736 16.8063C25.8895 17.27 24.1132 22.0214 27.4861 21.6919C30.659 21.23 31.7679 16.6041 28.7736 16.8063Z" fill="#C41341"/>
<path d="M71.7302 30.2321C72.947 30.8496 73.5646 31.8122 73.5646 33.1017V33.3196C73.5646 33.7918 73.4919 34.2096 73.3829 34.5728C73.2558 34.9542 73.0197 35.3538 72.6564 35.7352C72.2932 36.1348 71.821 36.4617 71.2216 36.7159C70.6404 36.9702 69.8776 37.17 68.8969 37.3335C67.9343 37.4788 66.7901 37.5514 65.5187 37.5514H64.3018C62.976 37.5514 61.7955 37.4606 60.8147 37.2608C59.7795 37.0429 59.0167 36.8068 58.4536 36.498C57.8724 36.1892 57.4184 35.826 57.0733 35.3901C56.7282 34.9361 56.5103 34.5546 56.4195 34.1732C56.3287 33.8282 56.2923 33.3196 56.2923 33.3015L56.2742 32.9382L61.1961 32.9564L61.2143 33.2651C61.2688 34.1006 61.7591 34.3912 64.429 34.3912H65.3916C66.1725 34.3912 66.5176 34.3549 67.0625 34.2822C67.68 34.2096 67.9706 34.1006 68.1159 34.0279C68.3702 33.9008 68.4428 33.81 68.4791 33.7737C68.5155 33.701 68.5518 33.6102 68.5518 33.5012C68.5518 33.3378 68.4973 33.2288 68.4247 33.138C68.4065 33.1198 68.2612 32.9927 67.6255 32.8656C67.1351 32.7566 66.4087 32.6839 65.4642 32.6658L63.194 32.6295C58.7261 32.5205 56.4558 31.2491 56.4558 28.8699V28.7428C56.4558 28.325 56.5103 27.9436 56.6193 27.5985C56.7464 27.2171 56.9825 26.8539 57.3457 26.5088C57.6908 26.1637 58.1449 25.855 58.7079 25.6189C59.2346 25.4009 59.9429 25.2011 60.851 25.0558C61.741 24.9105 62.7762 24.8379 63.9568 24.8379H65.1736C66.3723 24.8379 67.4621 24.9287 68.3883 25.074C69.3328 25.2193 70.1137 25.4191 70.6768 25.6552C71.258 25.9095 71.7483 26.2001 72.1297 26.5633C72.5111 26.9447 72.7654 27.3079 72.9289 27.6894C73.056 28.0526 73.1287 28.4522 73.1287 28.8699V29.215L68.2249 29.106L68.1341 28.8881C68.0251 28.6519 67.7708 28.4522 67.3894 28.3069C67.1715 28.2161 66.8264 28.1434 66.3723 28.0708C65.9001 28.0163 65.5369 27.9799 64.9194 27.9799H64.3018C63.3937 27.9799 62.7762 28.0163 62.2495 28.1252C61.6138 28.2524 61.4867 28.3614 61.4685 28.3614C61.4141 28.4158 61.3959 28.5066 61.3959 28.6338C61.3959 28.7609 61.4504 28.8336 61.4867 28.8699C61.4867 28.8881 61.6138 28.9789 62.195 29.1242C62.6128 29.215 63.2484 29.2695 64.0839 29.2876L66.2815 29.3058C68.8061 29.3603 70.586 29.6509 71.7302 30.2321Z" fill="#C41341"/>
<path d="M90.7135 24.8379L83.3759 30.7043L90.9496 37.5514H84.9924L80.0159 33.2106L79.1805 33.8645V37.5514H74.7308V24.8379H79.1805V28.6883L84.4657 24.8379H90.7135Z" fill="#C41341"/>
<path d="M96.4466 37.5514H91.6336V24.8379H96.4466V37.5514Z" fill="#C41341"/>
<path d="M111.004 31.9393V24.8379H115.762V37.5514H111.222L102.813 30.0504V37.5514H98.0542V24.8379H103.121L111.004 31.9393Z" fill="#C41341"/>
<path d="M132.389 30.2321C133.606 30.8496 134.223 31.8122 134.223 33.1017V33.3196C134.223 33.7918 134.151 34.2096 134.042 34.5728C133.915 34.9542 133.678 35.3538 133.315 35.7352C132.952 36.1348 132.48 36.4617 131.88 36.7159C131.299 36.9702 130.536 37.17 129.556 37.3335C128.593 37.4788 127.449 37.5514 126.177 37.5514H124.961C123.635 37.5514 122.454 37.4606 121.473 37.2608C120.438 37.0429 119.675 36.8068 119.112 36.498C118.531 36.1892 118.077 35.826 117.732 35.3901C117.387 34.9361 117.169 34.5546 117.078 34.1732C116.987 33.8282 116.951 33.3196 116.951 33.3015L116.933 32.9382L121.855 32.9564L121.873 33.2651C121.928 34.1006 122.418 34.3912 125.088 34.3912H126.05C126.831 34.3912 127.176 34.3549 127.721 34.2822C128.339 34.2096 128.629 34.1006 128.775 34.0279C129.029 33.9008 129.102 33.81 129.138 33.7737C129.174 33.701 129.211 33.6102 129.211 33.5012C129.211 33.3378 129.156 33.2288 129.083 33.138C129.065 33.1198 128.92 32.9927 128.284 32.8656C127.794 32.7566 127.067 32.6839 126.123 32.6658L123.853 32.6295C119.385 32.5205 117.115 31.2491 117.115 28.8699V28.7428C117.115 28.325 117.169 27.9436 117.278 27.5985C117.405 27.2171 117.641 26.8539 118.005 26.5088C118.35 26.1637 118.804 25.855 119.367 25.6189C119.893 25.4009 120.602 25.2011 121.51 25.0558C122.4 24.9105 123.435 24.8379 124.616 24.8379H125.832C127.031 24.8379 128.121 24.9287 129.047 25.074C129.992 25.2193 130.773 25.4191 131.336 25.6552C131.917 25.9095 132.407 26.2001 132.789 26.5633C133.17 26.9447 133.424 27.3079 133.588 27.6894C133.715 28.0526 133.787 28.4522 133.787 28.8699V29.215L128.884 29.106L128.793 28.8881C128.684 28.6519 128.43 28.4522 128.048 28.3069C127.83 28.2161 127.485 28.1434 127.031 28.0708C126.559 28.0163 126.196 27.9799 125.578 27.9799H124.961C124.053 27.9799 123.435 28.0163 122.908 28.1252C122.273 28.2524 122.145 28.3614 122.127 28.3614C122.073 28.4158 122.055 28.5066 122.055 28.6338C122.055 28.7609 122.109 28.8336 122.145 28.8699C122.145 28.8881 122.273 28.9789 122.854 29.1242C123.272 29.215 123.907 29.2695 124.743 29.2876L126.94 29.3058C129.465 29.3603 131.245 29.6509 132.389 30.2321Z" fill="#C41341"/>
<path d="M62.7745 11H69.2947L76.0692 23.7135H71.2199L70.0938 21.5341H61.9572L60.8311 23.7135H56L62.7745 11ZM63.7189 18.1014H68.3503L66.4614 14.4145H65.6078L63.7189 18.1014Z" fill="white"/>
<path d="M87.9016 16.9027V11.0545H92.7145V17.1206C92.7145 17.6474 92.6419 18.1741 92.5147 18.7189C92.3876 19.2456 92.1333 19.845 91.7519 20.4625C91.3705 21.08 90.862 21.6249 90.2808 22.0971C89.6814 22.5693 88.8641 22.9507 87.8289 23.2595C86.8118 23.5682 85.6313 23.7135 84.3418 23.7135H83.7061C82.7072 23.7135 81.7991 23.6409 80.9818 23.4774C80.1463 23.3321 79.438 23.1142 78.8568 22.8417C78.2756 22.5875 77.7671 22.2605 77.3312 21.8791C76.8771 21.4977 76.5139 21.0982 76.2596 20.7168C76.0053 20.3172 75.7874 19.8995 75.6058 19.4454C75.4423 19.0095 75.3333 18.5918 75.2789 18.2285C75.2244 17.8653 75.2062 17.4839 75.2062 17.1206V11.0545H80.0192V16.9027C80.0192 17.2841 80.0737 17.6474 80.1826 17.9743C80.2916 18.3012 80.4914 18.6281 80.7457 18.9369C80.9999 19.2456 81.3995 19.4817 81.9262 19.6634C82.4892 19.8631 83.1794 19.9539 83.9785 19.9539C84.7777 19.9539 85.4497 19.8631 85.9945 19.6634C86.5212 19.4817 86.9208 19.2275 87.1751 18.9369C87.4475 18.6099 87.6291 18.283 87.7381 17.9743C87.8471 17.6474 87.9016 17.2841 87.9016 16.9027Z" fill="white"/>
<path d="M94.0492 23.7135V11H108.288V14.4508H98.844V15.5042H108.288V18.9732H98.844V23.7135H94.0492Z" fill="white"/>
</svg>
