<svg width="114" height="48" viewBox="0 0 114 48" fill="none" xmlns="http://www.w3.org/2000/svg">
<path fill-rule="evenodd" clip-rule="evenodd" d="M59.9375 0.104049C58.3438 0.456236 57.3459 1.95069 57.5949 3.61316C57.6834 4.20343 57.9243 4.75734 58.1472 4.88204C58.7331 5.2104 58.1008 5.8724 57.2014 5.8724C55.5403 5.8724 54.1137 7.26237 52.5068 10.4463C51.5134 12.4147 51.2561 12.75 50.6606 12.8535C50.0228 12.9645 49.8975 13.1759 49.0568 15.5618C48.5551 16.9852 48.2173 18.1532 48.3062 18.1575C48.3949 18.1621 48.7099 18.3682 49.0061 18.6156C49.5225 19.047 49.5302 19.1067 49.1893 20.0737C48.9938 20.6284 48.576 21.3893 48.2606 21.7646C47.9454 22.1399 47.4862 23.0068 47.2405 23.6909C46.9318 24.5506 46.5877 25.0419 46.1281 25.28C45.6299 25.5378 45.4624 25.8026 45.4624 26.332C45.4624 26.721 45.3364 28.1495 45.1823 29.5065L44.902 31.9737L43.697 33.1802C42.0343 34.8451 38.4374 42.1734 38.3586 44.0569C38.3232 44.8994 38.0963 45.6493 37.6409 46.4273C36.8084 47.8495 36.9745 47.9913 39.4806 47.9964L41.3123 48L41.4614 47.0973C41.5433 46.6009 41.6116 45.7848 41.6131 45.2841C41.6155 44.4861 41.8787 44.0691 43.7415 41.9139C49.1306 35.6783 49.1744 35.6154 51.0126 31.5101C52.7544 27.6201 53.0573 27.0566 53.4074 27.0566C53.5136 27.0566 54.414 28.2349 55.4084 29.675C56.403 31.115 57.511 32.5081 57.8709 32.7708L58.5254 33.2479L57.4812 35.1475C56.6826 36.6003 56.2498 37.8391 55.6406 40.417C55.2023 42.2706 54.6804 44.3797 54.4806 45.1035C54.2808 45.8274 54.1173 46.729 54.1173 47.1069V47.7939L57.7454 47.7164C61.2803 47.6408 61.3858 47.6235 61.8585 47.0383L62.3439 46.4377L61.1757 46.0754C58.7559 45.325 58.2003 44.5612 59.2646 43.4488C59.6091 43.0889 60.5956 41.1219 61.457 39.0781C62.3184 37.0341 63.2185 34.9284 63.4572 34.3988C64.173 32.8114 63.9467 31.9248 61.9001 28.3014C60.8778 26.4913 59.7904 24.6331 59.4836 24.1722C58.7549 23.0773 58.6912 21.1558 59.3776 20.9762C59.6488 20.9052 60.2693 20.0099 60.9273 18.7411C61.8142 17.0302 61.9765 16.5341 61.7734 16.1539C61.575 15.783 61.6245 15.581 62.0075 15.1973L62.4934 14.711L63.6056 15.3636C65.3233 16.3718 66.4805 15.8949 67.3361 13.8263C67.6782 12.9992 68.0614 12.8593 68.0614 13.5615C68.0614 13.8186 68.1425 14.0762 68.2417 14.1345C68.4252 14.2418 70.6262 13.7361 70.82 13.5418C70.8786 13.4833 70.7822 12.8148 70.6062 12.0565C70.4303 11.2982 70.3663 10.628 70.4644 10.5673C70.5625 10.5067 70.7125 10.0211 70.7974 9.48864L70.9522 8.52042H74.9162H78.8801V7.79823V7.07605H80.3226C81.4447 7.07605 81.7651 6.99588 81.7651 6.71495C81.7651 6.43162 81.4338 6.35386 80.225 6.35386C78.8032 6.35386 78.6943 6.31679 78.8104 5.8724C78.959 5.30404 78.5854 5.23736 78.1558 5.75589C77.8966 6.0686 76.9061 6.11144 71.2145 6.0568C66.9913 6.01612 64.5754 5.90514 64.5754 5.75204C64.5754 5.61964 64.8057 5.47833 65.087 5.43813C65.4649 5.3842 65.6344 5.14396 65.7356 4.51878C65.8446 3.84691 65.7222 3.42756 65.1416 2.48245C64.0001 0.625229 61.9075 -0.331189 59.9375 0.104049ZM18.055 13.3273C14.4511 13.479 14.2747 13.5107 12.6906 14.2977C11.5815 14.8487 10.6064 15.5892 9.67048 16.5911C8.34146 18.0136 8.13807 18.4223 4.39095 27.1976C0.912136 35.3449 0.494288 36.4667 0.500058 37.6486C0.50679 39.0478 0.959736 40.0658 2.13056 41.3133C3.41823 42.6849 3.84569 42.7237 16.9284 42.6503C30.9078 42.572 29.2696 43.0104 31.0379 38.8756L32.1801 36.2043H20.6842C14.3612 36.2043 9.14324 36.1231 9.08867 36.0237C9.00765 35.8766 11.132 30.7506 14.3612 23.3005C15.2277 21.3017 15.2652 21.4278 13.5832 20.6941C12.737 20.3248 12.0446 19.9534 12.0446 19.8686C12.0446 19.7837 17.8054 19.7444 24.8467 19.781C36.2782 19.8407 37.7431 19.8056 38.5281 19.4536C39.295 19.1099 39.5472 18.7579 40.5023 16.6975C41.1046 15.3983 41.6655 14.0627 41.7491 13.7293L41.9008 13.1236L31.8411 13.147C26.3082 13.16 20.1045 13.2411 18.055 13.3273ZM85.1694 13.3723C82.5078 13.7539 79.7185 15.509 78.1733 17.7748C77.4968 18.7668 75.8947 22.359 75.1717 24.5046C74.4024 26.7879 75.4924 29.4598 77.6557 30.5936C78.7102 31.1463 78.7623 31.149 88.1739 31.149C95.8607 31.149 97.6326 31.2087 97.6326 31.4677C97.6326 31.6427 97.2142 32.7532 96.7031 33.9352L95.7734 36.0839L83.2999 36.1508C71.8595 36.212 70.7808 36.2524 70.2788 36.6381C69.9737 36.8725 69.2089 38.2808 68.5502 39.8212L67.3688 42.5836L81.1134 42.6457C89.6912 42.6845 95.3568 42.6158 96.185 42.4627C97.9138 42.1435 99.8266 41.1614 101.297 39.8378C102.214 39.0114 102.761 38.1828 103.763 36.0955C106.383 30.6374 106.607 29.2898 105.266 27.0614C104.717 26.1497 104.169 25.598 103.425 25.2066C102.371 24.6522 102.317 24.6493 93.087 24.6457C87.984 24.6435 83.6832 24.5619 83.53 24.4644C83.3288 24.3363 83.4165 23.8941 83.8447 22.8775C84.1712 22.1024 84.4032 21.4331 84.3604 21.3903C84.3176 21.3474 83.581 20.9798 82.7234 20.5737L81.1641 19.8352L95.3731 19.8349L109.582 19.8347L110.391 19.289C111.026 18.8605 111.447 18.177 112.35 16.108C112.982 14.6585 113.5 13.3877 113.5 13.2835C113.5 13.0206 87.0451 13.1034 85.1694 13.3723Z" fill="white"/>
</svg>
