<svg width="49" height="49" viewBox="0 0 49 49" fill="none" xmlns="http://www.w3.org/2000/svg">
<path fill-rule="evenodd" clip-rule="evenodd" d="M23.0119 0.0792717C20.2935 0.118437 20.1082 0.13802 20.1082 0.38645C20.1082 0.819557 19.7383 1.00152 18.7116 1.07328C18.1785 1.11044 17.5224 1.23952 17.2539 1.36001C16.9153 1.51196 16.2533 1.58472 15.0958 1.59758C13.4567 1.61573 13.417 1.60844 12.9383 1.20793L12.4508 0.799832L10.2212 0.894602C8.99487 0.946632 6.46327 1.01138 4.59529 1.0384C2.72732 1.06527 1.13666 1.12588 1.06038 1.17276C0.77402 1.34915 0.725699 2.87074 0.975919 3.83159C1.2779 4.99083 1.19273 7.11048 0.739893 9.70227C0.348144 11.9454 0.426294 13.6465 1.04747 16.3901C1.39018 17.9039 1.46603 18.4998 1.38645 19.0547C1.17595 20.5228 1.25726 21.2887 1.72658 22.2565C2.14643 23.1227 2.15905 23.1974 1.96404 23.6628C1.85076 23.9331 1.54734 24.4201 1.28995 24.745L0.821914 25.3356L0.870381 27.8754L0.918847 30.415L1.39362 30.8882C1.80401 31.2973 1.88259 31.4934 1.97293 32.3349C2.17726 34.2375 1.92962 35.4116 1.03026 36.8029C0.754664 37.2296 0.736883 37.4882 0.72068 41.3055L0.703616 45.3556L1.19301 45.6888C1.54132 45.9261 1.81118 46.0016 2.13009 45.951C2.42877 45.9035 2.73707 45.9763 3.05626 46.1698C3.4873 46.4311 3.60904 46.4432 4.28614 46.2922C4.6994 46.2 5.41192 46.1292 5.86934 46.1349C6.32676 46.1406 7.70118 46.1188 8.9236 46.0865C10.3838 46.0477 11.2109 46.0803 11.3348 46.1814C11.6617 46.448 14.086 46.3789 14.6384 46.0872C15.1643 45.8093 16.1307 45.8609 17.097 46.2185C17.7853 46.4731 18.9882 46.5945 19.241 46.4349C19.397 46.3366 19.5371 46.4358 19.7992 46.8302C20.3848 47.7117 20.7105 48 21.1204 48C21.3768 48 21.5892 47.8784 21.7441 47.6426C21.9468 47.334 22.0853 47.2853 22.7576 47.2853C23.1857 47.2853 23.7005 47.3599 23.9014 47.4513C24.1516 47.5649 24.3683 47.5728 24.5893 47.4766C24.8174 47.3772 25.017 47.3908 25.2704 47.5229C25.704 47.7491 26.0579 47.763 26.4231 47.5682C27.0205 47.2496 28.37 47.1245 31.929 47.0585C35.2098 46.9974 35.7224 46.9564 36.2801 46.7105C36.7564 46.5006 36.9804 46.4684 37.1899 46.5802C37.906 46.9621 42.646 47.2852 43.3387 46.999C43.7381 46.8342 43.7525 46.805 43.5194 46.6331C43.2892 46.4634 43.3185 46.4242 43.8397 46.2051C44.7022 45.8425 46.3084 46.0074 47.3909 46.5699C47.8454 46.8062 48.281 46.9994 48.3588 46.9994C48.4501 46.9994 48.5 43.5436 48.5 37.208V27.4167H47.783C47.3887 27.4167 47.0661 27.3726 47.0661 27.3186C47.0661 27.2647 47.2092 27.0689 47.3841 26.8832C47.6722 26.5776 47.7119 26.3415 47.8065 24.3726C47.8681 23.0916 47.8552 21.9871 47.775 21.6823C47.7002 21.398 47.3164 20.7299 46.9222 20.1976C46.5282 19.6655 46.2057 19.1356 46.2057 19.0201C46.2057 18.9046 46.3698 18.6157 46.5702 18.3781C46.8815 18.0094 46.9214 17.8573 46.8431 17.3364L46.7513 16.7266L47.518 16.4419L48.2849 16.1571L48.3959 14.5328C48.5434 12.375 48.4041 8.28988 48.1154 6.31259C47.9 4.83631 47.9003 4.67679 48.1199 4.1299C48.2501 3.80543 48.3566 3.21637 48.3566 2.82086C48.3566 2.12531 48.3391 2.09444 47.82 1.87831C47.5251 1.75539 47.0912 1.49338 46.8559 1.29598C46.4501 0.955637 46.3596 0.940771 45.0948 1.00667C43.979 1.06484 43.6803 1.03282 43.2634 0.810124C42.9894 0.663754 42.7036 0.54397 42.6284 0.54397C42.5529 0.54397 42.2875 0.839283 42.0384 1.20006C41.5416 1.91991 41.3833 1.89847 41.1029 1.0737C40.9499 0.623587 40.9271 0.613583 39.8124 0.510523C39.1882 0.452775 38.1505 0.443913 37.5062 0.490797C36.725 0.547545 35.7055 0.490082 34.4462 0.318555C33.1343 0.13988 32.485 0.105431 32.3197 0.205775C32.1886 0.285249 31.9202 0.656321 31.723 1.03039C31.2909 1.85044 31.0455 2.0031 30.2526 1.94578C29.7656 1.91062 29.6114 1.82971 29.4711 1.53626C29.3264 1.2338 29.1044 1.12545 28.1894 0.910467C27.0969 0.653747 27.0877 0.647744 27.4715 0.447485C28.0566 0.141737 27.7951 -0.031649 26.8034 0.00480065C26.3151 0.0228111 24.6089 0.0562584 23.0119 0.0792717ZM8.9236 8.89809C8.64757 9.00472 8.03457 9.25773 7.56137 9.46013C7.08818 9.66267 6.58243 9.82977 6.4376 9.83163C6.26582 9.83392 7.41267 11.1061 9.73563 13.49C11.6944 15.5002 13.3293 17.2209 13.3688 17.3137C13.4971 17.6154 14.8125 19.0137 16.8895 21.0558C18.0088 22.1565 19.8671 24.0939 21.0189 25.3612C22.1707 26.6286 23.2784 27.7734 23.4804 27.9054C23.6824 28.0373 24.0366 28.4477 24.2676 28.8173C24.6489 29.4273 26.5952 31.3385 27.5819 32.0718C27.8005 32.2343 28.269 32.7489 28.623 33.2153C28.9771 33.6817 30.5452 35.3648 32.1081 36.9556L34.9494 39.8479L36.071 39.9931C36.688 40.073 37.8646 40.1383 38.6858 40.1383C40.7067 40.1383 40.7895 40.0615 41.7674 37.2795C42.4814 35.2488 43.0919 33.0722 43.2758 31.9033L43.3683 31.3153L41.0229 29.7454C39.733 28.8819 38.5024 28.1328 38.2883 28.0805C38.0695 28.0272 37.9248 27.9079 37.9579 27.8083C38.0515 27.5269 37.0307 26.8014 28.18 20.8597C18.3766 14.2783 16.6731 13.1789 15.9404 12.96C15.5754 12.8511 15.3423 12.6733 15.2368 12.4238C15.146 12.2091 14.3722 11.5345 13.4152 10.8356C10.324 8.57833 10.0533 8.46141 8.9236 8.89809ZM34.4475 9.76588C33.304 10.1085 32.0597 10.393 31.6825 10.3978C30.785 10.4095 29.4326 11.0528 29.7326 11.3252C29.8416 11.4241 31.7497 12.8983 33.973 14.601C37.2305 17.0955 38.1016 17.6968 38.4585 17.6968H38.9014L38.8815 16.8748C38.8705 16.4229 38.9331 15.8718 39.0204 15.6506C39.1079 15.4293 39.1795 15.1024 39.1795 14.9241C39.1795 14.746 39.3157 14.1677 39.4822 13.6391C39.7212 12.8798 39.7644 12.492 39.6879 11.7925L39.5913 10.9071L38.2392 10.0137C37.4956 9.52245 36.8062 9.12551 36.7069 9.13165C36.6079 9.1378 35.5911 9.42325 34.4475 9.76588ZM10.0312 29.653C9.78668 30.0512 7.94696 34.6007 7.49627 35.9216L6.95984 37.4939L8.98182 39.083L11.0039 40.672L12.7958 40.6049C14.3813 40.5454 14.6458 40.4985 15.0931 40.1979C15.3711 40.0111 15.8228 39.8157 16.0968 39.7637C16.6195 39.6646 19.0947 38.7376 19.2889 38.5683C19.3508 38.5142 17.8345 36.9679 15.9192 35.132C14.0039 33.2961 11.9123 31.2848 11.2715 30.6624C10.6305 30.04 10.0725 29.5858 10.0312 29.653Z" fill="white"/>
</svg>
