<svg width="74" height="20" viewBox="0 0 74 20" fill="none" xmlns="http://www.w3.org/2000/svg">
<path fill-rule="evenodd" clip-rule="evenodd" d="M10.0157 0.01638C7.62003 0.259718 5.58135 1.19288 3.93359 2.80034C2.42742 4.26971 1.50238 5.94577 1.06657 7.99508C0.833519 9.09076 0.831767 10.9395 1.06263 12.0238C1.93059 16.1002 5.10423 19.1904 9.13029 19.8792C9.9622 20.0216 11.5184 20.0418 12.2783 19.9201C13.3423 19.7498 14.2393 19.4622 15.1837 18.9888C18.1186 17.5176 20.0701 14.8343 20.6089 11.529C20.7473 10.6797 20.7033 8.75056 20.5277 7.96556C19.6197 3.9078 16.4962 0.84863 12.553 0.155199C11.9015 0.0405959 10.521 -0.0349227 10.0157 0.01638ZM48.3482 4.28833C48.3204 4.31638 48.2976 7.03328 48.2976 10.3259V16.3124H49.3559H50.4142V13.8863C50.4142 11.637 50.4249 11.4312 50.5608 11.065C50.8807 10.2028 51.5843 9.69005 52.4494 9.68872C53.098 9.68769 53.4643 9.8168 53.815 10.1699C54.3532 10.7118 54.3767 10.8531 54.4111 13.7547L54.4415 16.3124H55.4568H56.4722L56.4716 13.7915C56.471 11.1036 56.4301 10.6095 56.1405 9.7984C55.7984 8.84021 55.1705 8.20095 54.2991 7.92368C52.9642 7.4989 51.625 7.74791 50.7689 8.58016L50.4163 8.92294L50.397 6.60048L50.3777 4.27803L49.3883 4.25764C48.8441 4.24645 48.3761 4.26022 48.3482 4.28833ZM6.03789 6.04455V7.18542H7.7166H9.39531V7.91521V8.64493L8.82965 8.69248C6.65602 8.8751 5.27261 9.2192 4.74236 9.70911C4.08861 10.3132 5.53471 10.9972 7.97205 11.2369C8.41363 11.2803 8.91447 11.3325 9.08511 11.3529L9.39531 11.39V13.7775V16.1652H10.6361H11.8769V13.7775V11.39L12.1871 11.351C12.3577 11.3297 12.76 11.2915 13.0812 11.2661C13.4023 11.2408 14.0099 11.158 14.4314 11.0821C17.657 10.5012 17.3337 9.33792 13.811 8.84978C13.3695 8.78854 12.7536 8.71743 12.4425 8.69174L11.8769 8.64493V7.91521V7.18542H13.5556H15.2343V6.04455V4.90367H10.6361H6.03789V6.04455ZM43.8454 5.54057C43.3436 5.59695 42.892 5.65783 42.8418 5.67586C42.7745 5.70008 42.7506 5.9892 42.7506 6.77831V7.84787H41.9842H41.2178V8.73112V9.61438H41.9842H42.7506L42.7511 11.3993C42.7519 14.1482 42.8818 14.8484 43.5243 15.5692C44.0321 16.1387 44.5069 16.335 45.4664 16.372C46.2193 16.401 47.1386 16.2718 47.4123 16.0985C47.494 16.0468 47.4619 15.881 47.2382 15.1985C47.0873 14.7384 46.9555 14.3517 46.9452 14.3392C46.9349 14.3266 46.7376 14.3718 46.5069 14.4394C45.812 14.6431 45.3056 14.4973 45.0099 14.0083C44.8778 13.7898 44.8677 13.6249 44.8675 11.6937L44.8672 9.61438H46.035H47.2028V8.73112V7.84787H46.035H44.8672V6.63339C44.8672 5.96542 44.8426 5.42325 44.8124 5.42855C44.7823 5.43385 44.3472 5.48427 43.8454 5.54057ZM27.8976 5.66901L27.1677 5.75013L27.1475 6.8333L27.1274 7.91654L26.3447 7.93737L25.562 7.95827V8.84153V9.72479L26.3466 9.74569L27.1312 9.7666V11.8149C27.1312 12.9416 27.1642 14.0418 27.2046 14.2599C27.3822 15.2194 27.9867 16.0017 28.7992 16.3235C29.3844 16.5554 30.5965 16.5573 31.3374 16.3277L31.8576 16.1664L31.6016 15.3378C31.4608 14.882 31.3229 14.4836 31.2952 14.4525C31.2676 14.4213 31.1034 14.4462 30.9306 14.5077C30.2674 14.7436 29.6462 14.5957 29.3431 14.1296C29.2255 13.9488 29.209 13.7045 29.189 11.8444L29.1666 9.76159H30.3385H31.5105V8.84153V7.92147H30.3427H29.1749V6.74379V5.56611L28.9012 5.57701C28.7507 5.58304 28.299 5.62441 27.8976 5.66901ZM36.1204 7.62911C33.4628 7.99721 31.9593 10.2753 32.4949 13.1225C32.7807 14.6422 33.7306 15.7346 35.2296 16.2678C35.8105 16.4744 35.9259 16.4898 36.9116 16.493C37.7005 16.4956 38.0907 16.4635 38.4443 16.3673C39.0436 16.2041 40.0023 15.7273 40.3635 15.4128L40.6404 15.1716L39.9859 14.5162L39.3313 13.8609L38.979 14.0845C38.3703 14.4708 37.922 14.5827 36.9845 14.5826C36.2346 14.5826 36.1023 14.5623 35.7433 14.3925C35.1389 14.1067 34.7409 13.6538 34.5719 13.0597L34.5132 12.853H37.7892H41.0652L41.115 12.585C41.1828 12.2212 41.0956 11.0642 40.9602 10.5294C40.5996 9.10474 39.616 8.10534 38.2215 7.74688C37.6747 7.60629 36.6854 7.5508 36.1204 7.62911ZM61.1548 7.62911C59.3838 7.87444 58.0556 9.02922 57.5949 10.7243C57.4193 11.3708 57.4198 12.717 57.596 13.3682C58.0027 14.8715 59.0667 15.9448 60.5595 16.3574C61.2226 16.5407 62.8213 16.5451 63.479 16.3653C64.1109 16.1927 65.0552 15.7278 65.3988 15.4201L65.6766 15.1716L65.0251 14.5201L64.3737 13.8687L64.0858 14.0609C63.2993 14.5858 62.0143 14.7664 61.087 14.4825C60.4936 14.3007 59.9936 13.8988 59.7627 13.4178C59.4698 12.8076 59.2061 12.8569 62.8768 12.8353L66.143 12.8162L66.1367 11.8225C66.1312 10.9468 66.1072 10.7605 65.9346 10.2527C65.3656 8.57825 64.1618 7.71486 62.2382 7.60151C61.897 7.58142 61.4094 7.59385 61.1548 7.62911ZM70.8142 7.72546C70.3186 7.89122 70.0795 8.04829 69.7354 8.43435L69.4039 8.80613L69.3427 8.34543L69.2815 7.88467L68.3144 7.86413L67.3473 7.8436V12.078V16.3124H68.3691H69.391V14.0551C69.391 12.7292 69.4245 11.6038 69.4721 11.3277C69.5807 10.6988 69.8889 10.248 70.4128 9.95179C70.7828 9.74253 70.8684 9.72479 71.5076 9.72479C72.154 9.72479 72.2291 9.74084 72.6158 9.9618L73.0305 10.1989L73.4791 9.34926C73.7258 8.88194 73.9103 8.45378 73.889 8.39769C73.8403 8.26992 73.398 7.9897 72.9673 7.81386C72.5393 7.63905 71.233 7.58546 70.8142 7.72546ZM8.44647 8.92493C8.34611 8.93957 7.9684 8.98742 7.60712 9.03129C6.35545 9.18313 5.31524 9.51825 5.20627 9.80458C5.06037 10.1881 5.99949 10.5414 7.86257 10.8041C8.89147 10.9491 12.6247 10.9279 13.6364 10.7713C15.6903 10.4533 16.4188 10.075 15.8486 9.6227C15.4853 9.33454 14.033 9.01804 12.591 8.91293L11.8818 8.86118L11.8611 9.69785L11.8404 10.5344H10.6361H9.4318L9.41115 9.70639L9.39049 8.87833L9.00971 8.88834C8.80031 8.89386 8.54683 8.91035 8.44647 8.92493ZM36.4175 9.47623C35.8697 9.56705 35.5814 9.70587 35.1952 10.065C34.8639 10.3729 34.7187 10.5879 34.6168 10.9209L34.5661 11.0865H36.8337C38.0808 11.0865 39.1012 11.0576 39.1012 11.0222C39.1012 10.8023 38.836 10.2724 38.6084 10.0372C38.1561 9.56985 37.2507 9.338 36.4175 9.47623ZM61.4931 9.4752C60.6227 9.59959 59.9854 10.1022 59.6838 10.902L59.6143 11.0865H61.8751C64.4531 11.0865 64.2923 11.1376 63.9427 10.43C63.5731 9.6821 62.6266 9.31312 61.4931 9.4752Z" fill="white" fill-opacity="0.25"/>
</svg>
