<svg width="126" height="100" viewBox="0 0 126 100" fill="none" xmlns="http://www.w3.org/2000/svg">
<path d="M38.9995 89L61.4995 119L86.9996 90.5L77.9995 63.5L40.4995 68L38.9995 89Z" fill="black"/>
<path d="M115.318 -22C124.197 -5.03621 115.483 13.9712 115.481 31.5083C115.481 34.7192 115.424 35.8062 116.283 38.9163L117.356 42.8449C119.566 51.1275 122.094 59.8698 124.696 68.0611C127.455 76.7476 125.894 76.3505 119.467 80.9458L64.3904 121.359C64.0807 121.591 63.6084 122.047 63.1937 121.996C62.475 122.003 60.41 120.11 59.7911 119.643L54.026 115.276C49.7396 112.05 45.3835 108.902 41.0468 105.741L20.8352 91C15.7491 87.2928 10.7189 83.5176 5.5661 79.8983C4.70363 79.2925 3.39132 78.466 2.22339 77.6542C0.714391 76.6052 0.0198492 74.8135 0.393247 73.0141C0.98733 70.1512 2.08719 67.3559 2.90158 64.569L8.38715 45.6923C10.4778 38.4209 11.1601 37.5286 11.1583 30.0092C11.16 12.8138 2.90158 -5.35946 11.0859 -21.916C11.0859 -21.916 23.0916 -13.1843 27.1755 -9.57128C31.8896 -5.31855 37.6962 0.439001 42.7589 4.14812L79.4704 4.14909C84.7858 4.15022 83.3296 4.70767 87.534 0.971716L91.9921 -2.95075C99.1263 -9.29998 115.318 -22 115.318 -22ZM59.7046 72.5485C52.3599 73.307 46.6985 78.9095 47.5124 86.4082C48.1036 91.8583 60.0079 109.065 62.6691 112.853C62.9275 113.221 63.4558 113.216 63.7095 112.844C66.2437 109.136 77.3101 92.7745 78.6934 87.8212C80.1033 82.7728 77.4965 77.3758 73.1919 74.5678C69.9306 72.4405 63.6934 72.1502 59.7046 72.5485ZM38.9059 28.3441C35.9054 28.9357 34.4182 31.6726 34.9982 34.5382C35.8078 38.5386 40.9601 44.0594 45.5468 43.0411C48.1889 42.8082 49.8693 40.7175 49.6228 38.1132C49.2238 33.8975 43.5723 27.6527 38.9059 28.3441ZM86.321 28.4188C77.6689 29.8099 72.3398 44.0641 82.4585 43.0757C91.9773 41.69 95.3038 27.8122 86.321 28.4188Z" fill="white"/>
<path d="M116.433 19.9961C98.9997 28.4146 29.9998 28.3404 10.4185 19.9961C10.6517 21.7981 10.8475 23.5949 10.979 25.3838C47.9997 33.4961 83.9997 33.4961 115.765 25.6426C115.934 23.771 116.167 21.8875 116.433 19.9961Z" fill="#100E19"/>
<path d="M17.243 41.0585L20.3736 28.9274C20.7362 27.5221 22.0527 26.578 23.5 26.6852L58.3131 29.2639C60.0397 29.3918 61.2999 30.9506 61.0634 32.6657L59.6264 43.0833C59.5441 43.6806 59.2837 44.2391 58.8792 44.6862L50.8284 53.5844C50.2977 54.1709 49.5569 54.5242 48.7672 54.5672L24.6634 55.882C23.3719 55.9524 22.1807 55.1872 21.7078 53.9834L17.3556 42.9051C17.1244 42.3167 17.085 41.6705 17.243 41.0585Z" fill="#100E19"/>
<path d="M111.257 41.0585L108.126 28.9274C107.764 27.5221 106.447 26.578 105 26.6852L70.1869 29.2639C68.4603 29.3918 67.2001 30.9506 67.4366 32.6657L68.8736 43.0833C68.9559 43.6806 69.2163 44.2391 69.6208 44.6862L77.6716 53.5844C78.2023 54.1709 78.9431 54.5242 79.7328 54.5672L103.837 55.882C105.128 55.9524 106.319 55.1872 106.792 53.9834L111.144 42.9051C111.376 42.3167 111.415 41.6705 111.257 41.0585Z" fill="#100E19"/>
</svg>
