<svg width="230" height="205" viewBox="0 0 230 205" fill="none" xmlns="http://www.w3.org/2000/svg">
<path d="M47.5282 160.075L60.3121 165.224L73.8307 163.606L86.3207 155.662L91.3167 144.925L94.1086 128.156L88.9656 126.979L86.3207 125.802L85.7329 120.948L93.3739 117.124L91.3167 102.856V91.2352L94.8433 81.8212L119.089 85.4985L149.799 83.8805L160.085 76.2316L119.823 56.8151L105.276 48.4308L103.66 41.6644L97.7821 37.3987H93.9616L88.5248 22.248L80.7369 2.39025L78.2389 1.06641L76.7695 4.15539L74.5654 21.0712L74.8593 30.6324L66.7775 33.7213L61.4876 24.7486L49.4384 11.9514L42.2383 7.68565L41.7975 9.74497L43.4138 27.8376L49.2915 45.636L51.7895 49.0191L48.7037 55.7855L34.5974 94.9125L30.9238 123.89L35.6259 148.014L47.5282 160.075Z" fill="#171424"/>
<path d="M203.571 185.082C203.966 185.121 204.365 185.168 204.751 185.266C205.69 185.506 207.24 186.013 207.697 186.932C207.819 187.175 207.656 187.356 207.563 187.591C207.471 187.591 207.323 187.597 207.224 187.582C206.376 187.459 204.008 186.467 203.546 185.755C203.404 185.536 203.523 185.321 203.571 185.082Z" fill="#87868C"/>
<path d="M204.899 178.412C205.649 178.538 206.412 178.659 207.15 178.843C208.178 179.1 210.347 179.725 210.778 180.773C210.939 181.167 210.767 181.328 210.576 181.658C208.741 180.799 207.353 179.822 205.279 179.613C205.007 179.586 204.89 179.576 204.684 179.374C204.64 178.924 204.717 178.814 204.899 178.412Z" fill="#87868C"/>
<path d="M202.854 172.454C205.487 172.265 210.042 173.569 212.279 174.977C212.972 175.413 213.489 175.796 213.677 176.617C213.439 176.662 213.154 176.734 212.911 176.679C211.854 176.439 209.789 174.832 208.478 174.343C206.865 173.742 204.89 173.878 203.333 173.172C202.961 173.003 202.982 172.821 202.854 172.454Z" fill="#87868C"/>
<path d="M203.051 166.113C203.307 166.113 203.544 166.119 203.799 166.149C205.944 166.403 213.142 168.521 214.262 170.44C214.531 170.902 214.395 171.064 214.256 171.534C213.757 171.525 211.465 169.845 210.827 169.493C208.232 168.063 205.72 167.913 203.514 166.743C203.142 166.546 203.163 166.502 203.051 166.113Z" fill="#87868C"/>
<path d="M206.277 153.721C206.414 153.742 206.551 153.764 206.686 153.79C209.25 154.301 216.608 157.628 217.949 159.861C218.108 160.127 217.97 160.402 217.91 160.696C216.608 160.441 215.043 158.809 213.903 158.066C212.917 157.424 211.853 156.803 210.79 156.295C209.733 155.79 206.948 155.007 206.246 154.253L206.277 153.721Z" fill="#87868C"/>
<path d="M199.895 157.572C202.196 157.906 213.004 161.887 215.196 162.915C216.056 163.318 217.118 163.854 217.776 164.551C218.106 164.9 218.079 165.114 218.083 165.578C216.681 165.514 215.292 163.924 213.965 163.388C209.476 161.577 204.777 160.239 200.287 158.418C200.135 158.356 200.112 158.344 199.979 158.209C199.821 158.049 199.893 157.783 199.895 157.572Z" fill="#87868C"/>
<path d="M78.7893 18.6992C79.7518 18.834 80.8274 19.6359 81.4428 20.3649C83.0512 22.2698 84.2647 25.6103 84.0111 28.115C83.947 28.7484 83.83 29.3156 83.3354 29.7307C82.2392 29.335 82.2037 26.5676 81.8957 25.5771C81.6459 24.7742 81.2071 24.0458 80.7916 23.32C80.269 22.5022 79.696 21.7976 79.0491 21.0751C78.9786 23.2615 79.3956 25.3908 79.3968 27.5572C79.3971 28.1871 79.3272 28.9617 78.8158 29.3983C78.6201 29.5657 78.6653 29.5083 78.3679 29.5021C78.2527 29.4103 78.1916 29.3733 78.104 29.2362C77.3035 27.982 77.128 21.2822 77.5136 19.8354C77.6673 19.2596 78.3118 18.9831 78.7893 18.6992Z" fill="#87868C"/>
<path d="M50.3345 24.6156C50.956 24.5506 51.6234 24.5206 52.2332 24.6736C54.2531 25.1802 55.6999 27.1036 56.6726 28.8381C57.3189 29.9901 58.9952 33.6722 58.6696 34.819C58.3869 35.1779 58.3472 35.2193 57.9187 35.3711C56.0352 34.7548 56.3323 29.8127 52.737 27.5596C52.3943 27.3448 51.7965 26.9215 51.4121 27.0082L51.3907 27.4289C51.6796 29.2876 52.2553 31.6617 53.1172 33.343C53.7982 34.6707 54.6857 35.9984 55.2006 37.3966C55.3643 37.8406 55.4178 38.1515 55.2211 38.5831L54.8799 38.6499C54.467 38.5298 54.1893 38.4119 53.8743 38.1109C51.902 36.2281 49.5895 29.5271 49.6145 26.7861C49.6227 25.8915 49.6885 25.2652 50.3345 24.6156Z" fill="#87868C"/>
<path d="M79.0115 0C79.795 0.0511888 80.3745 0.515712 80.9068 1.0632C84.5894 4.85146 89.8578 20.2634 90.7947 25.8283C91.0631 27.4237 92.9331 34.6033 94.4025 36.9569C94.1086 36.9569 93.8196 37.1162 93.3739 36.9569C91.4337 33.7681 87.6605 22.6719 86.3474 18.9784C85.0529 15.3375 83.4083 11.8246 82.0647 8.19698C81.2497 5.91525 80.2067 3.31403 78.4925 1.56332C76.0621 6.10618 76.3101 13.488 75.7709 18.6083C75.5628 20.5858 75.3864 25.3317 75.168 27.3057C75.0214 28.6328 75.1592 30.0723 74.8691 31.3673C74.8277 31.5532 74.868 31.4685 74.6569 31.5994C73.8567 29.9278 74.0364 15.2363 74.223 12.8578C74.3425 11.3296 74.5579 9.81511 74.8692 8.31436C75.4476 5.60929 76.5567 1.59391 79.0115 0Z" fill="#87868C"/>
<path d="M42.461 6.96094C42.7299 7.00359 42.9903 7.0539 43.2521 7.1298C45.4648 7.77113 47.5231 9.4739 49.3008 10.8901C57.1542 17.1463 62.4159 23.8897 67.2082 32.6918C69.4761 31.1244 72.7188 30.0715 75.4993 30.4457C75.9139 30.5016 76.0738 30.6075 76.318 30.9173C76.3524 31.1947 76.365 31.3633 76.2348 31.626C76.0676 31.9634 75.8519 32.1164 75.5001 32.2303C73.1358 32.9957 70.5961 32.5951 67.9262 33.7871C67.8701 33.8121 67.8145 33.8386 67.7584 33.8642C68.1763 34.7217 68.8002 35.7649 68.9316 36.7155C68.9771 37.0438 68.988 37.0688 68.789 37.3465C68.5248 37.2812 68.5163 37.3035 68.2983 37.0964C67.252 36.1024 66.3754 34.3981 65.5751 33.1773C64.4725 31.4749 63.3279 29.8012 62.1414 28.1563C58.5937 23.2402 54.6636 19.0365 50.3076 14.8472C47.9698 12.6076 45.3404 10.1476 42.563 8.48954C42.9888 19.0733 45.2535 31.8499 48.8088 41.8049C49.7531 44.4491 51.122 46.855 52.1321 49.4565C49.5341 48.0761 48.2111 45.775 46.8725 43.252C42.7202 35.4254 40.7653 24.1951 40.5934 15.378C40.5502 13.1757 40.5052 10.6436 41.2049 8.53573C41.4627 7.75936 41.728 7.33515 42.461 6.96094Z" fill="#87868C"/>
<path d="M176.349 132.855C181.442 133.164 192.949 139.186 198.26 141.339C203.635 143.518 209.139 145.429 214.555 147.51C217.294 148.563 219.991 149.737 222.694 150.877C224.484 151.633 226.511 152.309 228.144 153.365C228.942 153.881 229.608 154.424 229.999 155.305C230.023 156.29 229.576 157.402 229.195 158.302C226.246 165.273 222.51 172.046 219.133 178.819C217.53 182.048 215.907 185.267 214.264 188.476C213.462 190.056 212.72 191.792 211.767 193.282C211.412 193.836 211.068 194.243 210.453 194.492C210.065 194.457 210.081 194.456 209.813 194.171C209.713 193.833 209.626 193.519 209.712 193.163C210.097 191.561 211.179 189.742 211.866 188.225C214.999 181.306 218.916 174.645 222.672 168.043C224.519 164.796 226.561 161.535 228.072 158.115C228.273 157.661 228.834 156.453 228.589 156.013C228.311 155.513 227.468 155.125 226.963 154.88C223.203 153.056 219.173 151.656 215.299 150.077C209.602 147.748 203.933 145.351 198.293 142.888C197.131 144.443 196.166 146.078 195.196 147.756C192.797 151.937 190.975 156.22 189.145 160.668C191.36 160.701 195.83 160.021 197.746 160.734C198.253 162.82 198.252 165.103 198.381 167.246C198.681 172.246 198.768 177.252 198.995 182.256C199.212 187.038 199.848 191.873 199.909 196.647C199.646 197.044 199.387 197.422 198.996 197.703C196.113 199.78 186.145 203.367 182.449 204.394C181.348 204.7 180.184 205.002 179.033 205C177.543 204.999 176.025 204.677 174.557 204.44C165.573 202.992 156.032 199.994 148.098 195.472C147.625 195.632 147.244 195.785 146.851 196.1C146.441 196.428 146.022 196.681 145.567 196.94C145.528 196.924 145.486 196.913 145.449 196.891C144.47 196.297 143.839 192.09 143.612 190.859C142.962 187.341 142.53 183.722 142.213 180.16C141.646 173.774 141.622 167.378 141.314 160.983C141.277 160.214 140.762 155.419 140.868 155.113C140.893 155.04 140.955 154.986 140.999 154.922C143.225 153.882 151.322 153.836 154.26 153.58C157.385 153.307 160.48 152.882 163.594 152.515C164.713 152.383 165.854 152.37 166.967 152.22C167.356 152.167 167.664 152.166 167.923 151.851C168.726 150.874 169.218 149.066 169.694 147.89C171.085 144.451 174.386 135.454 176.349 132.855Z" fill="#87868C"/>
<path d="M166.783 161.316C172.73 161.897 178.617 162.784 184.579 163.261C183.616 163.523 182.624 163.712 181.649 163.926C178.538 164.711 175.456 165.671 172.371 166.558C170.679 165.079 168.003 163.125 166.783 161.316Z" fill="#171424"/>
<path d="M167.02 153.676L167.174 153.711C167.194 153.84 167.206 153.868 167.184 154.016C167.083 154.679 165.399 158.564 164.924 158.883C160.281 158.479 155.605 158.124 150.939 157.836C148.5 157.626 146.429 157.078 144.163 156.16C147.59 156.053 151.004 155.785 154.405 155.354C156.8 155.034 159.165 154.526 161.556 154.184C163.362 153.925 165.202 153.816 167.02 153.676Z" fill="#171424"/>
<path d="M176.855 134.045C180.527 135.462 183.955 137.372 187.53 139.001C190.587 140.395 193.735 141.499 196.851 142.739C193.765 147.496 189.521 154.968 188.268 160.538L184.058 160.449C184.858 158.239 185.416 155.961 186.169 153.74C186.415 153.015 187.012 152.292 187.009 151.517L186.794 151.348L186.469 151.406C184.776 153.515 183.834 157.626 182.861 160.106L182.763 160.349L179.22 160.214C179.788 157.993 180.25 155.411 181.291 153.377C181.649 152.677 182.341 152.134 182.757 151.442L182.636 151.036L182.408 150.974C181.901 151.21 181.58 151.623 181.21 152.03C179.472 154.553 178.578 157.12 177.978 160.102C176.737 160.019 175.501 159.931 174.264 159.793C175.06 156.619 177.189 151.304 179.065 148.605C180.485 146.564 181.841 147.255 183.949 146.867L183.969 146.638C183.775 146.463 183.609 146.401 183.358 146.348C182.422 146.148 180.325 146.111 179.526 146.688C177.114 148.43 173.719 156.694 173.139 159.697C171.175 159.578 169.202 159.377 167.246 159.166C168.764 154.963 170.424 150.823 171.964 146.631C173.528 142.377 174.94 138.17 176.855 134.045Z" fill="#100E19"/>
<path d="M196.482 161.861L196.888 161.855C197.246 162.22 197.217 162.95 197.233 163.441C197.584 174.536 196.57 185.828 197.895 196.923C193.258 198.88 183.474 201.898 178.507 202.654C178.361 202.332 178.6 201.809 178.689 201.462C178.409 195.789 177.479 190.072 176.889 184.415C176.301 178.788 176.056 173.157 175.291 167.544C182.275 165.313 189.344 163.519 196.482 161.861Z" fill="#171424"/>
<path d="M182.498 176.756C182.775 176.769 182.987 176.816 183.25 176.904C183.38 177.906 183.49 178.917 183.654 179.914C183.787 180.726 184.075 181.617 184.098 182.434C184.106 182.729 183.983 182.993 183.873 183.259C183.235 182.875 182.933 181.994 182.75 181.313C182.437 180.145 181.888 177.82 182.498 176.756Z" fill="#87868C"/>
<path d="M186.366 172.602C186.722 172.745 186.934 172.747 187.052 173.15C187.359 174.194 187.258 175.812 187.404 176.926C187.598 178.406 188.146 180.059 188.151 181.528C188.152 181.903 188.045 182.024 187.849 182.329C187.484 182.163 187.301 182.002 187.124 181.645C186.332 180.052 185.757 174.26 186.366 172.602Z" fill="#87868C"/>
<path d="M191.49 170.57L191.909 170.732C191.983 170.84 192.011 170.864 192.05 171.009C192.14 171.342 192.091 171.856 192.102 172.206C192.153 173.791 192.236 175.355 192.426 176.931C192.56 178.048 192.827 179.218 192.852 180.339C192.86 180.714 192.819 180.972 192.587 181.279L192.039 181.143C191.59 180.787 191.479 179.973 191.387 179.432C191.103 177.759 190.586 171.826 191.49 170.57Z" fill="#87868C"/>
<path d="M142.008 156.764C145.819 159.183 149.931 159.454 154.28 159.919C158.388 160.329 161 160.501 165.087 161.307C167.276 163.847 169.943 166.333 172.65 168.312C173.175 168.092 173.71 167.81 174.285 167.78C175.177 169.791 175.314 183.624 175.463 186.716C175.638 190.83 175.914 194.938 176.292 199.038C176.467 200.178 176.559 201.249 176.831 202.381C173.866 201.603 170.81 201.172 167.833 200.419C161.121 198.722 154.833 196.435 148.482 193.706C147.996 193.913 147.461 194.192 146.944 194.298C146.622 194.365 146.602 194.364 146.316 194.183C145.555 191.84 145.403 188.973 145.042 186.512C144.133 180.307 143.547 174.077 142.972 167.833C142.633 164.151 142.207 160.456 142.008 156.764Z" fill="#171424"/>
<path d="M87.1449 46.0906C87.539 43.3441 88.626 40.6055 90.5689 38.5788C91.862 37.2302 93.5809 36.2524 95.4876 36.25C98.4682 36.2465 101.422 38.159 103.417 40.2374C106.162 43.0972 106.843 45.0365 106.779 49.0187C107.826 49.7571 109.033 50.2484 110.171 50.8294C111.776 51.658 113.374 52.4993 114.965 53.3532C125.891 59.3798 137.082 64.8619 148.54 69.7996C150.859 70.821 153.162 71.903 155.495 72.888C158.111 73.9923 160.87 74.9034 163.295 76.4044C164.636 77.2352 165.577 78.4505 166.291 79.8323C164.232 80.4995 162.287 81.4288 160.258 82.1711C158.247 82.9062 156.146 83.4411 154.059 83.9153C141.457 86.7795 116.007 87.31 103.308 84.8717C99.5 84.1407 101.139 84.3437 95.4468 83.6082C92.0286 89.068 92.1844 95.6264 92.4671 101.839C93.8804 103.066 95.0776 105 96.2267 106.495C99.5638 110.839 103.23 115.193 105.911 119.979C106.706 121.398 107.547 123.107 107.668 124.753C107.781 126.289 107.365 127.756 106.332 128.918C106.256 129.002 106.177 129.085 106.096 129.166C106.016 129.246 105.933 129.325 105.849 129.401C105.764 129.477 105.678 129.552 105.59 129.623C105.501 129.695 105.411 129.765 105.319 129.832C105.227 129.9 105.133 129.964 105.038 130.027C104.943 130.089 104.846 130.149 104.748 130.207C104.649 130.264 104.55 130.319 104.448 130.372C104.347 130.424 104.245 130.474 104.141 130.521C104.037 130.568 103.933 130.612 103.827 130.654C103.721 130.696 103.614 130.735 103.506 130.771C103.398 130.807 103.289 130.84 103.179 130.871C103.069 130.902 102.959 130.929 102.848 130.954C102.737 130.979 102.625 131.001 102.513 131.02C102.4 131.04 102.288 131.056 102.175 131.069C102.061 131.083 101.948 131.093 101.834 131.101C101.721 131.108 101.607 131.113 101.493 131.115C99.2702 131.148 97.3861 129.919 95.2963 129.362C94.9286 139.779 92.8424 152.061 84.8573 159.499C84.3655 159.95 83.8664 160.392 83.36 160.826C83.62 166.312 83.5463 171.626 83.0887 177.103C82.8712 179.705 82.6617 182.418 81.9399 184.936C85.331 184.135 88.1056 184.149 91.1628 186.019C92.9402 187.107 95.2402 189.127 95.8003 191.217C95.9161 191.65 95.9234 192.13 95.6337 192.503C95.1197 193.163 93.9779 193.313 93.205 193.317C91.1628 193.328 89.1289 192.41 87.0855 192.206C84.7365 191.97 82.3608 192.458 80.0473 192.023C79.1563 191.855 78.1732 191.535 77.5208 190.873C77.1417 190.488 77.1097 190.231 77.0297 189.708C76.3077 184.971 76.2057 180.011 75.8157 175.228C75.5371 171.813 74.9573 168.406 74.8271 164.982C71.8262 166.028 68.3258 166.128 65.1766 166.11C65.4108 168.149 65.0778 170.411 64.9691 172.47C64.6908 177.753 64.627 183.213 63.5208 188.403C67.6361 188.323 70.4767 189.15 73.5081 192.064C74.2499 192.777 75.5295 194.062 75.5418 195.131C75.5444 195.367 75.424 195.503 75.3143 195.703C73.8517 196.832 64.6185 195.312 62.4414 195.031C60.8794 194.83 57.9853 194.476 56.9831 193.123C56.6657 192.694 56.6352 192.112 56.6069 191.6C56.5261 190.124 56.7195 188.585 56.7665 187.105C56.8988 182.96 57.1374 178.809 57.0575 174.661C56.999 171.642 56.6472 168.611 56.3718 165.604C47.7476 163.417 42.5223 159.562 37.0896 152.61C33.0884 156.055 29.1251 158.023 23.9869 159.221C22.2556 159.625 20.3956 159.982 18.6082 159.843C17.649 159.768 16.4256 159.541 15.7846 158.744C15.2812 158.118 15.151 157.304 15.2565 156.523C15.285 156.311 15.3417 156.108 15.3967 155.901C14.466 155.583 13.4688 155.56 12.526 155.29C9.11671 154.312 4.1263 151.465 2.5458 148.17C2.16199 147.37 1.98654 146.401 2.29482 145.548C2.42119 145.197 2.61985 144.876 2.81499 144.561C-0.00422215 139.929 -0.639597 134.502 0.612636 129.254C1.25565 126.559 2.58782 122.732 5.07495 121.213C6.01038 120.642 7.17151 120.337 8.25505 120.602C9.04589 120.796 9.66628 121.265 10.0551 121.98C10.6649 123.102 10.9688 124.445 11.4598 125.631C13.3786 130.266 15.9386 133.579 20.8573 135.209C23.9466 136.232 27.3648 136.32 30.5684 135.928C29.8028 131.309 29.2762 126.842 29.3499 122.146C29.6253 104.633 36.7464 81.8057 43.7146 65.7148C45.692 61.1478 49.1444 53.2847 51.548 49.0028L51.9363 49.1661C51.548 50.8204 48.9055 57.5072 48.2119 59.365C46.6098 63.5378 45.0576 67.729 43.555 71.9386C36.2233 93.1458 25.1833 134.61 41.9728 153.382C47.2195 159.249 54.9251 163.273 62.819 163.678C69.4123 164.016 77.7086 161.746 82.6858 157.261C88.8129 151.74 92.3245 139.849 92.7136 131.754C92.7671 130.639 92.689 129.608 92.5138 128.507C91.7206 128.425 90.9104 128.221 90.1242 128.17C89.1491 128.203 88.1582 128.157 87.1816 128.147C86.2817 127.312 85.7554 126.476 85.2041 125.399C84.9487 125.946 84.3312 127.001 83.7852 127.273C83.3749 127.476 83.1704 127.314 82.786 127.154C81.7977 127.708 79.0631 134.018 75.379 135.928C73.5925 136.855 71.587 136.955 69.6783 136.361C63.4864 134.432 53.2784 125.366 49.4879 120.241C48.8611 119.393 48.4067 118.398 47.916 117.469C47.8781 117.397 47.8384 117.326 47.8005 117.254C47.4578 116.601 47.1428 115.3 47.4363 114.59C47.5172 114.394 47.5295 114.447 47.7523 114.359C48.4261 114.753 49.06 116.319 49.5479 117.009C50.3043 118.077 51.1839 119.057 52.0932 119.997C56.4803 124.529 61.3728 128.903 66.6486 132.383C68.4234 133.554 70.9531 134.883 73.1381 134.362C77.1399 133.407 79.814 126.42 81.7903 123.176C82.4016 122.172 83.3279 120.817 84.5337 120.562C84.8782 120.489 84.8905 120.526 85.1688 120.277L85.1209 120.063C82.4965 118.147 81.5003 121.829 79.5927 122.063C79.4078 121.941 79.2635 121.913 79.2033 121.684C79.0743 121.195 79.3305 120.676 79.5586 120.253C80.3391 118.807 81.5482 117.992 83.0711 117.511L83.0038 117.35C82.858 117.304 82.8442 117.292 82.6667 117.277C78.334 116.899 76.6248 124.681 73.7617 127.08C73.2113 127.541 72.5912 127.921 71.8477 127.838C68.6041 127.476 61.4663 117.533 59.2566 114.898C57.9855 113.383 56.4524 111.986 55.2419 110.453C54.9827 110.125 54.7523 109.523 54.8725 109.1C54.9912 108.681 55.1008 108.645 55.4564 108.45C56.0924 108.447 56.5067 108.651 56.9931 109.062C58.4616 110.3 59.7873 112.192 60.9934 113.69C63.7051 117.058 66.2848 120.499 69.3591 123.553C70.0847 124.273 70.8552 125.195 71.7022 125.754C71.9694 125.93 71.9973 125.966 72.3164 125.893C74.0692 124.147 75.0986 121.133 76.3876 118.993C77.5008 117.146 79.0704 115.323 81.2581 114.832C82.8659 114.472 83.8619 114.768 85.2426 115.634C85.634 116.31 85.9235 117.072 86.2438 117.785C86.6685 117.849 87.0414 117.965 87.4464 118.107C87.9422 118.244 88.41 118.474 88.8794 118.682L89.2367 118.225C90.0135 117.226 90.6568 116.685 91.7785 116.14C91.273 112.196 90.491 108.29 90.0628 104.335C89.3123 97.3989 89.56 89.023 92.86 82.77C87.9868 81.3569 72 76.5004 74.274 69.1603C74.5687 68.832 74.9781 68.6996 75.3963 68.7255L75.5612 68.9779C75.56 69.3118 75.5612 69.6486 75.6115 69.9796C75.9215 72.018 78.0178 73.549 79.5774 74.6837C85.3589 78.8894 91.7344 80.3174 98.5801 81.6436C104.012 82.6956 109.443 83.6111 114.971 83.9874C117.399 84.1524 119.872 84.0824 122.307 84.0865C131.271 84.1012 140.37 83.6202 149.224 82.1996C148.05 81.3679 147.147 80.4998 146.506 79.1906C145.833 77.8191 145.492 76.0181 146.027 74.5436C146.512 73.2051 147.381 72.6344 148.613 72.0804C143.69 69.9534 138.906 67.5452 134.11 65.1514C128.6 62.4022 123.128 59.6639 117.731 56.6923C115.292 55.349 112.852 53.9463 110.496 52.458C109.255 51.6737 107.988 50.5867 106.645 50.0118C106.549 51.0506 106.256 52.0482 105.841 53.0023C104.596 55.8665 102.132 58.6275 99.1532 59.7207C99.0231 59.7675 98.8918 59.8111 98.7594 59.8513C98.6271 59.8917 98.4939 59.9286 98.3597 59.9622C98.2255 59.9957 98.0905 60.0258 97.9548 60.0525C97.819 60.0794 97.6826 60.1027 97.5457 60.1225C97.4087 60.1423 97.2715 60.1587 97.1339 60.1716C96.9962 60.1848 96.8582 60.1943 96.7198 60.2002C96.5817 60.2063 96.4435 60.2088 96.3052 60.2078C96.1669 60.2069 96.0286 60.2024 95.8905 60.1946C95.7524 60.1868 95.6146 60.1754 95.477 60.1605C95.3395 60.1456 95.2024 60.1272 95.0659 60.1055C94.9291 60.0837 94.7932 60.0585 94.658 60.0299C94.5226 60.0014 94.388 59.9694 94.2542 59.9339C94.1206 59.8986 93.9878 59.8599 93.856 59.8177C93.7241 59.7758 93.5934 59.7304 93.4639 59.6815C93.3344 59.6329 93.2062 59.581 93.0792 59.5259C92.9525 59.4708 92.8271 59.4125 92.7031 59.3512C91.3168 58.6798 90.372 57.2436 89.8988 55.8179C89.726 55.2975 89.5647 54.8692 89.8195 54.3614C90.6794 54.2996 91.9866 56.6829 92.9723 57.3107C94.3773 58.2053 96.1668 58.313 97.7561 57.9299C100.751 57.208 102.846 54.6891 104.383 52.185C103.676 52.1471 102.979 52.1215 102.324 51.8229C101.167 51.296 100.326 50.2604 99.9279 49.066C99.4568 47.6513 99.4518 45.842 100.16 44.5029C100.759 43.3699 101.558 42.8681 102.742 42.483C101.128 40.4731 99.0051 38.5606 96.3787 38.104C94.7973 37.8289 93.4146 38.2711 92.1529 39.2345C89.5903 41.1915 88.1206 45.0306 88.331 48.2126C88.4133 49.4558 88.9434 50.4776 88.7692 51.747C88.2531 55.5064 86.8295 59.3815 83.6747 61.687C80.8011 63.7869 77.0262 65.004 73.4755 64.41C70.6766 63.942 68.163 62.4219 66.5346 60.0755C64.5932 57.278 64.1365 53.267 64.781 49.9818C65.4649 46.4963 67.7069 43.2064 70.6586 41.2427C73.0626 39.6432 76.0664 39.1739 78.8806 39.7717C82.6746 40.5772 85.0883 42.9454 87.1449 46.0906Z" fill="#87868C"/>
<path d="M91.393 118.747C91.7948 118.731 92.1967 118.721 92.5988 118.716C93.9012 118.702 95.393 118.816 96.3478 119.82C96.8301 120.327 97.116 121.001 97.104 121.702C96.8019 121.511 96.7584 121.213 96.6246 120.889C96.4151 120.651 96.1882 120.436 95.9193 120.266C94.6368 119.456 92.6196 120.004 91.2651 120.363C90.9383 120.1 90.6738 119.869 90.4258 119.524C90.62 119.081 90.9815 118.984 91.393 118.747Z" fill="#171424"/>
<path d="M81.56 187.277C84.0795 187.239 85.9606 187.079 88.2259 188.37C86.9651 188.21 85.7102 188.012 84.4559 188.315C83.0647 188.868 81.555 189.532 80.0448 189.663C79.646 189.697 79.4367 189.714 79.1211 189.462C79.1281 189.305 79.1184 189.289 79.186 189.118C79.5249 188.261 80.7871 187.679 81.56 187.277Z" fill="#171424"/>
<path d="M63.1514 190.587C64.6846 190.377 65.9116 191.473 67.073 192.325C65.3817 192.282 63.726 192.357 62.0388 192.469C60.8039 192.586 59.5937 192.599 58.3535 192.585L59.0003 191.212C60.3302 190.765 61.7625 190.701 63.1514 190.587Z" fill="#171424"/>
<path d="M81.5541 161.986C81.6532 162.068 81.7155 162.191 81.7349 162.319C82.1225 164.861 80.172 185.102 79.1064 186.723C79.0811 186.762 79.0479 186.795 79.0185 186.831L79.1995 186.682L78.9012 186.47C78.8701 185.846 78.819 185.225 78.7619 184.604C78.2553 178.983 77.8036 169.8 75.834 164.685C77.7986 163.935 79.6789 162.933 81.5541 161.986Z" fill="#171424"/>
<path d="M58.0156 165.812C60.0434 165.795 62.0647 165.986 64.0852 166.14C63.1157 169.213 62.9787 172.816 62.6634 176.018C62.3366 179.503 61.9205 182.977 61.4153 186.44C61.3427 187.223 61.189 188.005 61.0649 188.782C60.3646 188.917 59.6881 189.085 59.0019 189.276C59.2535 182.08 59.7986 172.77 58.0156 165.812Z" fill="#171424"/>
<path d="M92.7496 105.469C95.9135 108.867 105.33 120.778 105.337 125.261C105.339 126.266 104.567 127.482 103.847 128.154C102.989 128.954 101.937 129.327 100.774 129.235C97.3021 128.963 94.6022 126.115 91.0939 126.01C91.4944 125.679 91.9702 125.219 92.2324 124.769C92.543 124.236 92.4892 123.647 92.3235 123.085C92.0284 122.771 92.0064 122.763 91.5829 122.68C90.0377 123.108 88.9168 125.067 87.969 126.261C87.7595 126.22 87.6355 126.24 87.4841 126.071C86.4382 124.905 87.5564 122.746 87.6745 121.466C87.6813 121.389 87.6854 121.313 87.691 121.237C88.451 121.227 89.1851 121.182 89.9404 121.1L90.9757 122.351C92.292 122.4 93.5804 122.242 94.8829 122.065C95.4004 122.916 96.4152 124.461 97.417 124.722C97.7917 124.82 98.1379 124.815 98.4647 124.582C99.054 124.162 99.2394 123.302 99.2606 122.623C99.3088 121.087 98.7098 119.361 97.6486 118.238C96.7094 117.245 95.5967 116.773 94.3119 116.394C93.5563 114.252 92.9594 107.961 92.7496 105.469Z" fill="#171424"/>
<path d="M75.8003 41.279C76.2511 41.2549 76.7163 41.294 77.1665 41.3234C80.3258 41.5296 82.7206 43.8167 84.6838 46.0651L82.8244 46.0872C81.3908 47.006 80.2285 48.3389 79.736 49.9932C79.3709 51.2182 79.4556 52.4946 80.0901 53.6164C80.1298 53.6864 80.1714 53.7553 80.2147 53.8232C80.2582 53.8911 80.3033 53.9577 80.3502 54.0232C80.397 54.0888 80.4456 54.153 80.4959 54.2159C80.5461 54.2789 80.5979 54.3405 80.6514 54.4007C80.7049 54.4609 80.7599 54.5197 80.8166 54.5772C80.873 54.6345 80.931 54.6903 80.9905 54.7446C81.0499 54.7989 81.1107 54.8516 81.173 54.9026C81.2351 54.9538 81.2986 55.0032 81.3635 55.0508C81.4283 55.0987 81.4944 55.1448 81.5616 55.1891C81.6288 55.2332 81.6971 55.2757 81.7667 55.3165C81.836 55.3573 81.9065 55.3961 81.978 55.433C82.0495 55.4701 82.122 55.5052 82.1955 55.5383C82.2687 55.5717 82.3429 55.6029 82.4179 55.6322C82.4928 55.6616 82.5684 55.6889 82.6448 55.7142C82.7212 55.7395 82.7982 55.7629 82.8758 55.7843C82.9536 55.8054 83.0317 55.8247 83.1103 55.8419C84.5721 56.1764 85.6062 55.8163 86.815 55.0535C85.6536 57.7297 84.0654 59.2174 81.5757 60.6545C80.1427 61.2997 78.6909 61.9001 77.1239 62.1184C74.6765 62.4591 71.9004 61.8207 69.9317 60.3051C67.8437 58.697 66.719 56.2141 66.4207 53.6364C66.3988 53.4418 66.3817 53.2469 66.3696 53.0515C66.3572 52.8562 66.3499 52.6607 66.3475 52.4649C66.3452 52.2692 66.3476 52.0736 66.3549 51.878C66.3623 51.6825 66.3747 51.4872 66.3919 51.2923C66.409 51.0973 66.431 50.9029 66.458 50.7089C66.4849 50.5151 66.5166 50.3221 66.5533 50.1297C66.5897 49.9375 66.631 49.7462 66.6773 49.556C66.7233 49.3657 66.7742 49.1769 66.8298 48.9894C66.8854 48.8017 66.9457 48.6155 67.0105 48.4307C67.0756 48.2462 67.1451 48.0633 67.2192 47.8821C67.2933 47.701 67.3718 47.5219 67.4549 47.3446C67.538 47.1675 67.6254 46.9925 67.7173 46.8197C67.809 46.647 67.905 46.4765 68.0053 46.3084C68.1058 46.1406 68.2104 45.9752 68.3189 45.8124C68.4276 45.6497 68.5403 45.4897 68.6569 45.3326C68.7734 45.1755 68.8939 45.0215 69.0184 44.8705C70.8196 42.6382 72.9673 41.5682 75.8003 41.279Z" fill="#171424"/>
<path d="M16.6673 144.343C17.8003 144.292 19.021 144.424 20.1205 144.709C20.7626 144.876 21.3301 145.069 21.676 145.667C21.6819 146.088 21.6877 146.164 21.4788 146.524C20.4907 146.677 19.3672 146.711 18.3739 146.584C17.7647 146.506 16.9885 146.314 16.6485 145.744C16.3702 145.278 16.5192 144.816 16.6673 144.343Z" fill="#171424"/>
<path d="M29.1438 141.602C29.4768 141.572 29.7709 141.579 30.1033 141.626C30.6255 141.7 31.0728 141.798 31.4064 142.242C31.4434 142.594 31.4273 142.686 31.1904 142.985C30.6341 143.686 29.3207 143.683 28.5069 143.765C28.045 143.817 27.5589 143.893 27.0943 143.843C26.5908 143.789 26.2088 143.614 25.8946 143.212C25.8746 142.869 25.8937 142.762 26.1306 142.475C26.8468 141.608 28.1349 141.664 29.1438 141.602Z" fill="#171424"/>
<path d="M16.0368 150.545C17.2326 150.462 19.8682 150.17 20.9064 150.729C21.2615 150.92 21.2926 150.999 21.3934 151.357C21.2532 151.79 21.1386 152.006 20.8377 152.348C19.5581 152.669 17.5347 152.727 16.2819 152.261C15.8787 152.111 15.6395 151.905 15.4717 151.515C15.5672 151.073 15.7235 150.867 16.0368 150.545Z" fill="#171424"/>
<path d="M31.0301 149.219C31.1432 149.208 31.2567 149.196 31.3701 149.189C31.9887 149.151 32.4936 149.258 32.9606 149.684C33.0376 149.923 33.0775 150.018 32.9709 150.256C32.4448 151.428 30.4447 151.832 29.3502 152.158C29.029 152.225 28.744 152.214 28.4301 152.1C28.0801 151.973 27.9425 151.789 27.7859 151.468C27.7774 151.208 27.7656 151.009 27.9014 150.774C28.4333 149.85 30.0849 149.533 31.0301 149.219Z" fill="#171424"/>
<path d="M9.48376 135.455C10.4815 135.711 11.3899 136.911 12.062 137.661C12.5742 138.233 13.5296 139.315 13.358 140.132C13.2713 140.543 13.0039 140.653 12.6871 140.877C11.4002 140.377 10.234 139.429 9.37913 138.348C8.96799 137.829 8.47427 137.013 8.67029 136.315C8.8093 135.821 9.09231 135.712 9.48376 135.455Z" fill="#171424"/>
</svg>
