<svg width="24" height="24" viewBox="0 0 24 24" fill="none" xmlns="http://www.w3.org/2000/svg">
<path d="M15.73 3.87519L15.73 3.87519V3.88V4.82C15.73 5.58386 15.1139 6.2 14.35 6.2H9.64001C8.87615 6.2 8.26001 5.58386 8.26001 4.82V3.88C8.26001 3.11959 8.88269 2.5 9.65001 2.5H14.35C15.1183 2.5 15.7373 3.11947 15.73 3.87519Z" fill="#C41341" stroke="#C41341"/>
<path d="M14.35 8.21047C16.2162 8.21047 17.74 6.68661 17.74 4.82047C17.74 4.65393 17.9252 4.51968 18.1077 4.61323C19.3589 5.27991 20.21 6.60276 20.21 8.12047V17.5305C20.21 19.7143 18.4239 21.5005 16.24 21.5005H7.76004C5.57618 21.5005 3.79004 19.7143 3.79004 17.5305V8.12047C3.79004 6.60275 4.64117 5.2799 5.89236 4.61323C6.0749 4.51969 6.26004 4.65393 6.26004 4.82047C6.26004 6.68661 7.7839 8.21047 9.65004 8.21047H14.35ZM8.00004 17.4505H12.38C13.0662 17.4505 13.63 16.8866 13.63 16.2005C13.63 15.5143 13.0662 14.9505 12.38 14.9505H8.00004C7.3139 14.9505 6.75004 15.5143 6.75004 16.2005C6.75004 16.8866 7.3139 17.4505 8.00004 17.4505ZM8.00004 13.4505H15C15.6862 13.4505 16.25 12.8866 16.25 12.2005C16.25 11.5143 15.6862 10.9505 15 10.9505H8.00004C7.3139 10.9505 6.75004 11.5143 6.75004 12.2005C6.75004 12.8866 7.3139 13.4505 8.00004 13.4505Z" fill="#C41341" stroke="#C41341"/>
</svg>
