<svg width="24" height="24" viewBox="0 0 24 24" fill="none" xmlns="http://www.w3.org/2000/svg">
<path d="M16.02 5.57002V6.07002H16.52H16.76C18.7613 6.07002 20.0079 6.52885 20.7191 7.31529C21.5053 8.18516 21.5499 9.36635 21.4727 10.3566C21.4674 10.3967 21.4644 10.4313 21.4624 10.4549L21.4619 10.4605C21.4594 10.4895 21.4583 10.4993 21.4568 10.5078L21.4544 10.5224L21.4528 10.5371L21.4031 11.0048L21.4028 11.0071L21.3874 11.1459C21.0214 11.4098 20.6276 11.6736 20.254 11.8847L20.2539 11.8846L20.2428 11.8913C20.2242 11.9024 20.2076 11.9129 20.1944 11.9214L20.1618 11.9423C20.1453 11.9527 20.1358 11.9581 20.1264 11.9628L20.1119 11.9701L20.0978 11.9783C18.3706 12.9874 16.459 13.6763 14.4802 13.9964L14.0898 14.0596L14.0613 14.454C14.03 14.8883 13.9227 15.2614 13.6548 15.5319C13.3917 15.7975 12.8873 16.05 11.87 16.05C10.8546 16.05 10.3547 15.7959 10.0933 15.5312C9.82548 15.2599 9.71858 14.8886 9.67776 14.4624L9.64099 14.0783L9.26014 14.0165C7.40385 13.7152 5.57857 13.1031 3.9209 12.1919L3.92092 12.1918L3.91533 12.1888C3.76204 12.1071 3.63035 12.0365 3.51042 11.9594L3.4969 11.9507L3.48286 11.9429C3.26183 11.8201 2.87811 11.5733 2.63509 11.4143L2.55779 10.6026L2.55667 10.5909L2.55501 10.5793L2.54656 10.5201C2.44847 9.52036 2.45066 8.2483 3.28126 7.32498C3.99269 6.53852 5.22952 6.08002 7.24004 6.08002H7.48004H7.98004V5.58002V5.53002C7.98004 4.66039 7.99427 3.8797 8.37065 3.29411C8.71067 2.76508 9.44542 2.27002 11.24 2.27002H12.76C14.5556 2.27002 15.29 2.76312 15.6296 3.29069C16.0057 3.8748 16.02 4.65499 16.02 5.53002V5.57002ZM10.63 12.08H10.13V12.58V13.84L10.13 13.8635C10.13 14.0988 10.13 14.3274 10.1528 14.5186C10.1766 14.7188 10.2329 14.958 10.4082 15.1575C10.5874 15.3615 10.8256 15.4507 11.0532 15.4951C11.2767 15.5388 11.5484 15.55 11.86 15.55C12.1692 15.55 12.4395 15.5407 12.6609 15.5003C12.8856 15.4593 13.1271 15.3749 13.3095 15.1702C13.488 14.97 13.5438 14.7275 13.5674 14.526C13.5901 14.3325 13.5901 14.0987 13.59 13.854L13.59 13.83V12.58V12.08H13.09H10.63ZM15.09 6.08002H15.59V5.58002V5.53002V5.50666C15.5901 5.10304 15.5901 4.72042 15.5499 4.39229C15.5085 4.05365 15.4184 3.71107 15.1922 3.42265C14.9599 3.12663 14.6325 2.94789 14.2346 2.84295C13.8452 2.74027 13.3581 2.70002 12.76 2.70002H11.24C10.6424 2.70002 10.1556 2.7396 9.76659 2.84126C9.36912 2.94513 9.04116 3.12257 8.8084 3.41826C8.58161 3.70638 8.49153 4.04914 8.45013 4.38816C8.41001 4.71672 8.41002 5.10054 8.41004 5.50653L8.41004 5.53002V5.57002V5.58002V6.08002H8.91004H15.09Z" fill="#C41341" stroke="#C41341"/>
<path d="M21.0884 14.1856C21.0912 14.1843 21.0923 14.1842 21.092 14.1843L21.0916 14.1843L21.0915 14.1843C21.0915 14.1843 21.0914 14.1843 21.0915 14.1843C21.0918 14.1843 21.0945 14.1848 21.098 14.1872C21.0995 14.1883 21.1005 14.1892 21.1012 14.1899C21.1011 14.1902 21.1011 14.1905 21.1011 14.1909L20.7425 18.1411C20.6414 19.1008 20.4018 19.9653 19.7477 20.6016C19.0959 21.2356 17.941 21.73 15.8101 21.73H8.19009C6.05924 21.73 4.90403 21.2356 4.25219 20.6025C3.59819 19.9674 3.35878 19.1054 3.2577 18.151L2.91732 14.4069C2.91728 14.4065 2.91726 14.4061 2.91724 14.4058C2.91782 14.4051 2.91873 14.4043 2.92007 14.4033C2.92279 14.4014 2.92496 14.4008 2.92572 14.4006C2.92622 14.4008 2.92724 14.4011 2.92882 14.4018C4.06055 14.9138 6.20268 15.8475 7.54997 16.2003C7.55942 16.2028 7.57883 16.2129 7.59287 16.2429C8.30893 17.7743 9.84773 18.52 11.8701 18.52C13.8802 18.52 15.4311 17.7432 16.1471 16.2133C16.1611 16.1833 16.1807 16.1728 16.1909 16.1701C17.6239 15.793 19.9056 14.7485 21.0884 14.1856ZM2.92535 14.4005C2.92535 14.4005 2.92537 14.4005 2.92542 14.4006L2.92541 14.4006C2.92538 14.4006 2.92535 14.4005 2.92535 14.4005Z" fill="#C41341" stroke="#C41341"/>
</svg>
