<svg width="19" height="18" viewBox="0 0 19 18" fill="none" xmlns="http://www.w3.org/2000/svg">
<path d="M18.47 12.55H17.04C15.14 12.55 13.54 11.12 13.38 9.3C13.29 8.26 13.67 7.22 14.43 6.48C15.07 5.82 15.96 5.45 16.92 5.45H18.47C18.76 5.45 19 5.21 18.97 4.92C18.75 2.49 17.14 0.83 14.75 0.55C14.51 0.51 14.26 0.5 14 0.5H5C4.72 0.5 4.45 0.52 4.19 0.56C1.64 0.88 0 2.78 0 5.5V12.5C0 15.26 2.24 17.5 5 17.5H14C16.8 17.5 18.73 15.75 18.97 13.08C19 12.79 18.76 12.55 18.47 12.55ZM11 6.75H5C4.59 6.75 4.25 6.41 4.25 6C4.25 5.59 4.59 5.25 5 5.25H11C11.41 5.25 11.75 5.59 11.75 6C11.75 6.41 11.41 6.75 11 6.75Z" fill="#FFFF"/>
</svg>
