<svg width="24" height="24" viewBox="0 0 24 24" fill="none" xmlns="http://www.w3.org/2000/svg">
<path fill-rule="evenodd" clip-rule="evenodd" d="M10.58 0.25613C8.36876 0.536162 6.27786 1.4206 4.57025 2.79816C3.93176 3.31322 2.99581 4.28485 2.51792 4.92868C1.47603 6.33249 0.760857 7.91218 0.423873 9.55426C0.299935 10.158 0.157857 11.1913 0.194279 11.224C0.20342 11.2322 1.63264 11.8236 3.37039 12.5383L6.52986 13.8377L6.86258 13.6724C7.29575 13.4572 7.67061 13.3521 8.12895 13.3173L8.50011 13.2892L9.93767 11.2032L11.3752 9.11729L11.404 8.69541C11.5364 6.75647 12.9798 5.09654 14.9163 4.65619C15.467 4.53099 16.4105 4.55124 16.9744 4.70044C17.7176 4.89708 18.3553 5.2501 18.9176 5.77608C19.5311 6.34993 19.9699 7.08633 20.1903 7.91204C20.3569 8.53613 20.366 9.47335 20.2115 10.0959C19.8389 11.5973 18.6878 12.8438 17.2499 13.303C16.8809 13.4209 16.5453 13.4847 16.0781 13.526L15.7265 13.557L13.6768 15.0168L11.6271 16.4767L11.626 16.6483C11.6254 16.7427 11.5952 16.9748 11.5587 17.1639C11.3338 18.3329 10.5671 19.2427 9.46892 19.6434C8.2729 20.0799 6.94245 19.7873 6.04765 18.891C5.67612 18.5188 5.46153 18.1718 5.25125 17.6031L5.1304 17.2765L2.93576 16.3693C1.72869 15.8703 0.729591 15.4735 0.715576 15.4876C0.701513 15.5017 0.747638 15.6772 0.818045 15.8777C2.19626 19.8016 5.56484 22.7496 9.61123 23.5728C10.4664 23.7467 10.9305 23.7885 11.9999 23.7878C13.0622 23.7871 13.4987 23.7478 14.348 23.5764C16.6041 23.1212 18.6852 21.9986 20.3422 20.3427C22.1978 18.4885 23.3442 16.1469 23.7267 13.4298C23.8043 12.8784 23.803 11.1196 23.7246 10.547C23.334 7.69477 21.9665 5.06588 19.9286 3.24947C18.1369 1.65254 16.069 0.668865 13.7343 0.302865C13.0597 0.197115 11.2569 0.170396 10.58 0.25613ZM15.1671 6.12207C14.5656 6.26757 13.9628 6.64983 13.5484 7.14854C13.3168 7.42726 13.0167 8.03321 12.9362 8.38477C12.8578 8.72654 12.8692 9.4306 12.9587 9.77354C13.1706 10.5863 13.7899 11.3501 14.5312 11.713C15.4308 12.1533 16.3077 12.153 17.2025 11.7119C17.5144 11.5581 17.6818 11.4339 17.9774 11.1368C18.5764 10.5349 18.8437 9.88739 18.8437 9.03835C18.8437 8.17646 18.5814 7.55396 17.958 6.93638C17.5091 6.49168 17.0854 6.24652 16.5468 6.11996C16.1706 6.03155 15.5373 6.03254 15.1671 6.12207ZM15.3438 6.86068C14.7587 7.00979 14.1813 7.4491 13.9116 7.95015C13.2447 9.18933 13.8674 10.744 15.1992 11.1651C15.6001 11.2918 16.1927 11.2891 16.5665 11.1589C17.315 10.898 17.8682 10.2861 18.0471 9.52107C18.1272 9.17827 18.0835 8.57907 17.9533 8.23491C17.7335 7.65408 17.1718 7.11108 16.5937 6.92063C16.2587 6.81024 15.6551 6.78132 15.3438 6.86068ZM8.08587 14.0661C7.93118 14.0813 7.72268 14.121 7.62251 14.1542L7.4404 14.2147L8.26714 14.5568C9.22184 14.9518 9.33997 15.0181 9.60781 15.3086C10.5979 16.3828 10.0189 18.0891 8.56517 18.381C8.15553 18.4633 7.86537 18.3997 6.94236 18.0255C6.47557 17.8363 6.09368 17.6933 6.09368 17.7078C6.09368 17.7947 6.4242 18.2231 6.65918 18.4407C7.20378 18.9449 7.97478 19.1911 8.68475 19.0876C9.43325 18.9786 10.1532 18.499 10.5342 17.8557C10.8368 17.3449 10.9457 16.5951 10.8043 15.9957C10.5137 14.7629 9.35604 13.9411 8.08587 14.0661Z" fill="white"/>
</svg>
