<svg width="286" height="259" viewBox="0 0 286 259" fill="none" xmlns="http://www.w3.org/2000/svg">
<path d="M166.712 250.869C167.106 250.859 167.565 250.89 167.912 251.106C168.417 251.419 168.756 252.17 168.826 252.748C168.892 253.295 168.724 253.797 168.371 254.213C167.723 254.976 166.634 255.366 165.698 255.632C162.583 256.516 159.142 256.735 155.931 257.145C150.683 257.837 145.426 258.456 140.161 259C139.675 258.962 139.223 258.911 138.774 258.707C138.281 258.483 137.98 258.161 137.831 257.639C137.711 257.215 137.788 256.613 138.019 256.237C138.401 255.615 138.902 255.422 139.571 255.245C141.8 254.657 144.417 254.597 146.72 254.326C153.419 253.538 160.27 252.933 166.712 250.869Z" fill="white" fill-opacity="0.5"/>
<path d="M196.13 44.6681C197.93 44.5214 199.867 44.7877 201.38 45.8374C202.74 46.7806 203.54 48.2731 203.82 49.8806C204.116 51.5856 203.813 53.362 202.743 54.7528C201.336 56.5814 199.372 56.8669 197.242 57.1475C195.626 57.0229 194.069 56.9205 192.572 56.232C191.177 55.5902 189.979 54.5095 189.495 53.0223C189.007 51.5248 189.349 49.9424 190.101 48.5953C191.497 46.0955 193.53 45.3615 196.13 44.6681Z" fill="white" fill-opacity="0.5"/>
<path d="M196.395 47.832C197.214 47.9279 198.199 48.0052 198.881 48.5115C198.957 48.567 199.03 48.6262 199.1 48.689C199.17 48.7516 199.237 48.8176 199.301 48.887C199.365 48.9561 199.425 49.0284 199.481 49.1038C199.538 49.1789 199.591 49.2567 199.639 49.3371C199.688 49.4173 199.733 49.4998 199.774 49.5846C199.814 49.6695 199.851 49.756 199.883 49.8444C199.915 49.9328 199.943 50.0224 199.966 50.1134C199.989 50.2044 200.008 50.2964 200.022 50.3894C200.038 50.4969 200.048 50.6049 200.053 50.7133C200.058 50.8217 200.058 50.9301 200.052 51.0385C200.046 51.1469 200.034 51.2547 200.017 51.362C200.001 51.4693 199.978 51.5755 199.951 51.6806C199.923 51.7857 199.89 51.8892 199.852 51.991C199.815 52.0925 199.772 52.1921 199.724 52.2897C199.676 52.3871 199.623 52.4818 199.566 52.5739C199.508 52.6663 199.446 52.7554 199.379 52.8413C198.617 53.8308 197.665 54.1131 196.471 54.2595C195.423 54.2314 194.562 54.2809 193.673 53.6216C193.069 53.1728 192.677 52.5138 192.614 51.7596C192.54 50.856 192.914 49.9419 193.493 49.2608C194.317 48.2921 195.152 47.9044 196.395 47.832Z" fill="#171424"/>
<path d="M245.368 197.7C247.255 197.575 249.227 197.699 250.878 198.719C252.013 199.42 252.761 200.467 253.058 201.763C253.483 203.615 253.021 205.537 252.038 207.136C250.167 210.179 246.887 212.102 243.479 212.921L243.342 212.955C241.576 213.364 239.54 212.987 238.03 211.984C236.666 211.079 235.826 209.652 235.533 208.06C235.143 205.94 235.781 203.941 237.026 202.22C238.975 199.527 242.181 198.22 245.368 197.7Z" fill="white" fill-opacity="0.5"/>
<path d="M245.975 200.681C246.766 200.712 247.574 200.756 248.329 201.011C249.076 201.262 249.722 201.616 250.038 202.369C250.398 203.231 249.947 204.432 249.527 205.188C248.225 207.536 245.344 208.833 242.869 209.535C241.536 209.619 240.183 209.636 239.041 208.828C238.503 208.448 238.162 207.889 238.086 207.235C237.946 206.032 238.555 204.696 239.303 203.786C240.96 201.769 243.477 200.968 245.975 200.681Z" fill="#171424"/>
<path d="M47.1087 203.82C48.3075 203.648 49.8114 203.938 50.8771 204.505C52.6924 205.47 53.7371 207.481 54.3417 209.373C55.1026 211.754 54.819 214.063 53.6676 216.26C51.8695 219.691 49.2559 221.856 45.5766 223.011C43.919 223.232 42.216 222.969 40.8155 222.016C38.9919 220.776 38.0902 218.508 37.7517 216.401C37.2905 213.529 37.9494 210.154 39.7124 207.801C41.5644 205.33 44.1545 204.298 47.1087 203.82Z" fill="white" fill-opacity="0.5"/>
<path d="M45.5702 205.609C46.2714 205.559 47.1161 205.45 47.8081 205.584C49.0348 205.823 50.2475 206.578 50.9408 207.62C51.8379 208.968 52.1267 210.93 51.7388 212.493C51.0157 215.406 48.634 217.873 46.0995 219.318C46.0349 219.343 45.9723 219.375 45.9054 219.392C44.8821 219.667 43.7754 219.787 42.8068 219.285C41.6878 218.705 41.0359 217.53 40.657 216.376C39.8679 213.971 39.9636 211.039 41.2062 208.809C42.2165 206.996 43.6227 206.137 45.5702 205.609Z" fill="#171424"/>
<path d="M8.76298 145.313C10.202 145.231 11.5571 145.283 12.8828 145.919C15.09 146.978 17.1226 149.712 17.8606 152.021C18.8783 155.206 17.8404 157.646 16.4051 160.45C17.1478 162.148 18.4042 164.432 20.2248 165.134C20.9311 165.406 21.7565 165.491 22.4972 165.648C23.2191 165.801 23.9356 165.905 24.5729 166.292C24.711 166.701 24.6047 166.718 24.4358 167.095C24.0879 167.401 23.7776 167.538 23.3191 167.589C21.3077 167.814 19.2334 167.255 17.6837 165.962C16.3879 164.685 15.4895 163.322 14.556 161.766C13.0846 162.965 11.199 163.89 9.31386 164.193C7.35811 164.509 5.44577 164.102 3.83662 162.928C1.92649 161.534 0.895015 159.048 0.587145 156.759C0.190696 153.811 1.17334 150.948 2.99701 148.634C4.44951 146.791 6.42347 145.586 8.76298 145.313Z" fill="white" fill-opacity="0.5"/>
<path d="M178.98 239.514C179.721 239.387 180.359 239.314 181.03 239.732C181.551 240.057 181.931 240.683 182.017 241.284C182.096 241.831 181.958 242.357 181.61 242.79C181.002 243.548 179.884 243.739 178.979 243.903C174.391 244.733 169.583 244.99 164.948 245.611C146.208 248.121 127.384 249.864 108.691 252.729C108.276 252.815 107.818 252.827 107.398 252.771C106.657 252.673 106.166 252.143 105.767 251.553C105.456 251.093 105.49 250.799 105.6 250.276C106.234 249.416 107.156 249.143 108.171 248.933C110.007 248.555 111.992 248.485 113.858 248.308C117.6 247.952 121.369 247.623 125.093 247.103C132.61 246.054 140.057 244.448 147.585 243.443C158.028 242.048 168.589 241.218 178.98 239.514Z" fill="white" fill-opacity="0.5"/>
<path d="M118.428 0.0873273C118.484 0.0764211 118.54 0.0618795 118.597 0.0549392C121.936 -0.362474 127.399 1.67502 130.117 3.57799C133.341 5.83592 135.242 8.7479 135.906 12.6269C135.96 12.9444 136.005 13.263 136.043 13.5827C136.081 13.9026 136.11 14.2232 136.132 14.5444C136.153 14.8657 136.167 15.1872 136.172 15.5091C136.178 15.831 136.175 16.1528 136.165 16.4745C136.154 16.7964 136.136 17.1178 136.109 17.4386C136.082 17.7593 136.047 18.0793 136.005 18.3983C135.962 18.7176 135.912 19.0355 135.853 19.3521C135.794 19.6687 135.728 19.9837 135.654 20.297C135.579 20.6103 135.497 20.9215 135.407 21.2306C135.317 21.5398 135.22 21.8466 135.114 22.151C135.009 22.4553 134.896 22.7568 134.776 23.0556C134.656 23.3544 134.528 23.65 134.393 23.9423C134.258 24.2347 134.115 24.5234 133.966 24.8085C133.816 25.0939 133.66 25.3753 133.496 25.653C133.332 25.9304 133.162 26.2036 132.984 26.4726C132.807 26.7416 132.623 27.006 132.433 27.2658C129.008 31.976 123.783 34.7607 118.101 35.6583C118.073 35.6629 118.045 35.6692 118.018 35.6725C113.342 36.2056 108.804 35.6586 105.066 32.5884C102.288 30.307 100.791 26.9716 100.484 23.4416C99.9637 17.4676 101.99 11.8714 105.844 7.32777C109.202 3.3688 113.166 0.535807 118.428 0.0873273Z" fill="white" fill-opacity="0.5"/>
<path d="M118.298 3.2323C121.329 3.15397 124.885 4.30078 127.424 5.91821C129.594 7.30133 131.135 9.30412 131.684 11.8446C132.492 15.5828 131.274 19.0897 129.235 22.2095C126.137 26.9505 122.009 30.0472 116.421 31.2062C115.51 31.3695 114.589 31.5189 113.67 31.6266C111.066 31.9317 108.497 31.6775 106.396 29.9385C104.353 28.2483 103.536 25.7581 103.321 23.209C102.897 18.164 104.436 12.9227 107.747 9.05195C110.319 6.04446 114.302 3.57237 118.298 3.2323Z" fill="#171424"/>
<path d="M112.611 8.79268C114.954 8.73683 116.387 10.0958 118.157 11.3877C119.132 10.5783 120.368 9.79672 121.607 9.47382C122.146 9.33336 122.947 9.2362 123.417 9.61428C123.735 9.87009 123.843 10.2521 123.849 10.6441C123.874 12.2321 122.176 13.7851 121.145 14.8196C122.168 15.9208 123.575 16.8316 124.296 18.1784C124.53 18.6159 124.682 19.1378 124.467 19.6167C124.285 20.0238 123.989 20.1957 123.609 20.3867C122.891 20.4707 122.234 20.118 121.577 19.8609C120.23 19.3807 118.956 18.7633 117.667 18.1486C116.513 19.2085 114.935 20.9985 113.242 20.9922C113.176 20.9922 113.11 20.9888 113.045 20.9819C112.979 20.9753 112.915 20.9652 112.85 20.9515C112.786 20.9381 112.723 20.9213 112.66 20.9013C112.597 20.8812 112.536 20.858 112.476 20.8316C112.416 20.8051 112.357 20.7757 112.3 20.7433C112.243 20.7107 112.188 20.6753 112.134 20.6372C112.081 20.5991 112.029 20.5582 111.98 20.5146C111.931 20.471 111.884 20.425 111.84 20.3768C111.337 19.8338 111.111 19.0763 111.144 18.3456C111.215 16.7989 112.246 15.8834 113.344 14.9547C112.106 14.2961 109.681 13.3072 109.204 11.9234C109.048 11.4723 109.054 11.1593 109.265 10.729C109.777 9.68534 111.598 9.18564 112.611 8.79268Z" fill="white" fill-opacity="0.5"/>
<path d="M43.3364 32.6338C44.1397 32.5049 45.0288 32.5366 45.841 32.5571C49.9864 32.6612 54.7455 34.0086 57.6593 37.0832C61.1206 40.7355 63.1346 46.2376 62.9889 51.2442C62.8004 57.7182 60.0937 62.0414 55.5021 66.3196C56.6238 68.1208 62.535 76.1753 62.3827 77.6675C62.1173 78.2488 61.8493 78.5277 61.2315 78.7621C57.2313 80.2807 51.9335 78.0128 48.3191 76.3557C46.1918 75.2922 44.1585 73.8988 42.1303 72.6539C40.623 72.9526 39.1085 73.2841 37.5867 73.4996C33.7094 74.0486 29.61 73.4309 26.4455 71.0064C22.6775 68.1185 20.7694 63.4255 20.1616 58.8343C19.3596 52.7813 20.9556 47.0529 24.6965 42.2611C29.3172 36.3413 36.0129 33.5096 43.3364 32.6338Z" fill="white" fill-opacity="0.5"/>
<path d="M45.3659 36.2789C45.4093 36.2756 45.4527 36.2709 45.4964 36.2693C48.965 36.1384 52.4972 36.6312 55.1449 39.0725C57.6092 41.3447 58.8381 44.5713 58.9286 47.8745C59.1465 55.8527 55.723 59.9835 50.555 65.4026C52.3518 69.2452 55.347 72.2659 57.47 75.8977C53.4873 75.0685 50.2874 73.6398 46.7353 71.716C45.1075 70.8369 43.5874 69.6927 42.0222 68.7026C39.9227 68.771 37.8477 69.2594 35.7482 69.3781C32.6168 69.5546 29.391 68.8007 27.0139 66.6684C24.4221 64.344 23.2193 60.7962 23.058 57.3924C22.8059 52.0748 24.6911 46.3047 28.3134 42.3573C32.7228 37.5516 39.181 36.5826 45.3659 36.2789Z" fill="#171424"/>
<path d="M42.1632 43.8598C42.9397 43.8387 43.6844 43.8516 44.3949 44.2078C44.9276 44.4752 45.3228 44.926 45.5056 45.4928C46.141 47.4615 44.5062 50.3577 43.6821 52.0848C45.2062 52.8192 47.3736 53.5734 48.2746 55.0986C48.5684 55.5956 48.7639 56.2332 48.5217 56.7937C48.0646 57.8503 46.7035 58.2845 45.6911 58.5717C44.1438 58.1319 42.787 57.4206 41.3821 56.6509C40.8197 57.7432 40.2459 58.9346 39.49 59.9073C38.5731 61.0868 37.7297 61.6265 36.2457 61.8026C35.8107 61.41 35.345 60.8356 35.1906 60.2629C34.6586 58.2885 36.4703 55.6641 37.3776 53.9683C35.6004 52.7032 33.4797 50.8607 32.3859 48.9531C32.0069 48.2924 31.7727 47.5197 32.0271 46.7708C32.3378 45.8563 33.265 45.5288 34.0756 45.1785C36.0333 46.1673 37.7012 47.3112 39.429 48.6454C40.1373 47.0124 40.765 45.0344 42.1632 43.8598Z" fill="white" fill-opacity="0.5"/>
<path d="M161.272 35.7111C161.363 35.7124 161.667 35.7025 161.792 35.7432C162.04 35.8238 164.099 37.7308 164.659 38.1264C166.302 39.288 168.117 40.2389 169.82 41.3163C171.332 42.2692 172.799 43.2864 174.222 44.3677C175.645 45.4491 177.017 46.5905 178.34 47.792C179.151 48.5326 180.203 49.3889 180.727 50.3682C181.117 51.0985 181.291 52.0448 181.511 52.8416C182.138 55.1121 182.692 57.6367 183.842 59.7006C183.88 59.7684 183.919 59.8355 183.958 59.9029C184.636 59.6425 185.33 59.4147 186.049 59.3014C189.092 58.8228 192.388 59.8956 194.819 61.7044C198.695 64.5876 200.469 68.3476 201.179 73.0112C204.076 69.5516 205.719 65.2486 210.496 63.9333C212.572 63.3615 214.57 63.6305 216.415 64.7284C221.754 67.9061 224.318 75.4162 225.724 81.0776C232.622 77.9961 237.969 78.8973 244.926 81.4084C245.69 79.4109 246.43 78.281 248.34 77.2796C248.673 74.9443 248.67 72.5449 248.949 70.1941C249.122 68.7347 249.704 63.0872 250.636 62.3575L251.004 62.4176C251.09 62.5382 251.201 62.6443 251.263 62.7795C251.572 63.461 250.214 74.7652 250.013 76.7904C250.113 76.8155 250.213 76.843 250.314 76.8661C251.055 77.036 251.453 77.1675 251.952 77.7796C253.76 79.9969 253.133 84.0484 252.929 86.6999C254.447 87.9119 255.855 89.3284 257.12 90.7987C268.091 103.549 286.798 135.448 285.429 152.691C285.397 153.095 285.355 153.498 285.303 153.9C285.251 154.302 285.189 154.702 285.117 155.1C285.045 155.499 284.963 155.896 284.871 156.291C284.779 156.685 284.677 157.077 284.565 157.467C284.453 157.856 284.332 158.243 284.201 158.626C284.07 159.01 283.929 159.389 283.779 159.766C283.629 160.143 283.47 160.515 283.301 160.883C283.132 161.252 282.954 161.616 282.767 161.976C282.58 162.335 282.384 162.69 282.18 163.04C281.975 163.39 281.761 163.734 281.539 164.073C281.317 164.412 281.087 164.746 280.848 165.074C280.609 165.401 280.362 165.723 280.107 166.038C279.852 166.353 279.59 166.662 279.319 166.965C279.049 167.267 278.771 167.562 278.485 167.851C278.2 168.139 277.908 168.42 277.609 168.694C277.309 168.968 277.003 169.234 276.691 169.492C273.775 171.942 270.391 173.793 266.891 175.268C259.021 178.584 243.77 182.19 235.417 181.384C234.905 181.335 234.17 181.312 233.828 180.896C234.14 180.204 234.95 179.952 235.639 179.73C238.578 178.786 241.913 178.281 244.957 177.665C250.389 176.567 255.92 175.379 261.169 173.579C266.113 171.884 271.1 169.647 275.011 166.117C275.274 165.878 275.53 165.632 275.78 165.379C276.031 165.127 276.274 164.869 276.512 164.604C276.749 164.34 276.98 164.07 277.203 163.794C277.427 163.518 277.644 163.237 277.854 162.95C278.064 162.664 278.267 162.372 278.462 162.075C278.657 161.778 278.845 161.477 279.025 161.171C279.206 160.865 279.378 160.555 279.543 160.24C279.708 159.926 279.865 159.607 280.014 159.285C280.163 158.962 280.303 158.637 280.436 158.307C280.569 157.978 280.693 157.645 280.81 157.31C280.925 156.974 281.033 156.636 281.133 156.295C281.232 155.954 281.322 155.611 281.404 155.266C281.487 154.92 281.56 154.573 281.625 154.224C281.69 153.875 281.746 153.525 281.793 153.173C281.841 152.821 281.879 152.468 281.909 152.115C281.939 151.761 281.959 151.407 281.972 151.052C282.088 148.27 281.692 145.48 281.031 142.783C278.305 131.655 271.803 118.681 265.557 109.052C264.167 106.909 262.827 104.78 261.087 102.893C261.088 107.689 260.823 112.411 260.045 117.149C259.708 119.197 259.154 121.195 258.801 123.239C259.432 124.654 260.076 126.03 260.294 127.581C260.383 128.21 260.387 128.643 260.004 129.162C259.809 129.226 259.757 129.257 259.532 129.264C257.697 129.321 255.979 125.322 254.651 124.194C252.84 122.655 246.552 119.114 244.255 118.459C243.681 118.295 243.05 118.276 242.459 118.33C240.692 118.49 238.258 119.515 237.038 120.856C236.556 121.387 236.348 122.136 235.865 122.644C235.619 122.903 235.546 122.889 235.213 122.891C234.935 122.636 234.807 122.435 234.786 122.045C234.664 119.863 237.132 117.118 238.469 115.64C238.901 112.92 239.094 110.154 239.523 107.425C240.694 99.9792 242.295 92.3953 244.375 85.1522C243.286 84.6977 242.182 84.2786 241.066 83.895C237.098 82.5357 232.75 81.9246 228.875 83.855C225.503 85.5349 223.553 88.0873 222.396 91.6038C223.134 93.6591 224.851 99.0111 224.026 100.886C223.67 101.158 223.64 101.148 223.187 101.158C222.791 100.927 222.686 100.874 222.499 100.437C221.917 99.0779 221.73 97.4436 221.331 96.0106C220.707 93.7738 219.903 91.5377 219.068 89.3697C216.496 82.6835 212.497 75.8013 205.682 72.7806C204.755 73.9766 204.055 75.3326 203.257 76.6149C200.784 80.5895 197.928 83.1726 193.567 84.8951C201.35 103.602 206.986 123.11 211.836 142.756C214.049 151.72 216.211 160.754 218.015 169.809C218.577 172.43 221.58 185.691 220.954 187.088C220.381 188.365 216.643 190.381 215.35 191.195C206.554 196.658 197.55 201.756 188.339 206.49C182.906 209.248 177.317 211.729 171.907 214.514C168.544 216.246 165.349 218.343 162.011 220.138C157.605 222.506 153.056 224.596 148.596 226.856C158.637 226.424 168.676 225.942 178.713 225.409L200.447 224.534C208.695 224.154 216.903 223.466 225.173 223.563C227.426 223.59 232.379 223.372 234.181 224.639C234.686 224.995 234.748 225.396 234.838 225.959C234.728 226.475 234.56 226.746 234.151 227.07C231.985 228.785 224.606 229.224 221.606 229.573C215.922 230.234 210.174 230.809 204.465 231.225C199.738 231.569 194.998 231.74 190.27 232.1C180.053 232.88 169.835 233.919 159.632 234.875C149.964 235.694 140.308 236.635 130.664 237.698C118.207 239.098 105.793 240.745 93.288 241.696C80.3188 242.58 67.3432 243.357 54.3613 244.025C48.2979 244.325 42.3025 244.587 36.2286 244.587C33.767 244.587 31.2425 244.693 28.7912 244.448C27.8703 244.356 26.8364 244.272 26.2256 243.52L26.2892 243.134C26.7115 242.577 27.2869 242.382 27.9481 242.221C31.5181 241.352 37.4741 241.005 41.2938 240.559C50.0375 239.485 58.7938 238.526 67.5629 237.682C72.5947 237.191 77.7136 236.959 82.7149 236.255C78.9982 231.492 76.1991 225.802 73.7932 220.272C70.5382 212.789 67.645 205.17 65.1136 197.414C61.8476 187.372 58.7543 177.278 55.8337 167.132C53.0717 157.823 50.1901 148.532 47.6672 139.155C46.0547 132.917 44.5658 126.65 43.2005 120.354C42.1912 115.794 40.9404 111.006 40.628 106.342C40.5684 105.45 40.5704 104.394 40.9434 103.567C41.7072 101.871 47.4088 98.5788 49.2149 97.317C55.0403 93.2454 61.0934 89.445 67.1011 85.647C72.6646 82.1299 78.2181 78.4568 83.8786 75.1079C91.2758 70.824 98.7569 66.6914 106.322 62.7101C112.762 59.2667 119.179 55.8001 125.667 52.445C137.279 46.4393 148.867 39.95 161.272 35.7111Z" fill="white" fill-opacity="0.5"/>
<path d="M249.083 79.641C249.233 79.6334 249.514 79.6135 249.656 79.631C250.048 79.68 250.295 79.909 250.481 80.2425C251.15 81.4369 251.02 83.319 250.741 84.6113L250.558 84.6618L249.887 84.1571C249.22 83.7467 248.44 83.3392 247.863 82.8104C247.469 82.4492 247.306 82.1084 247.288 81.5687C247.577 80.6381 248.3 80.1569 249.083 79.641Z" fill="#171424"/>
<path d="M246.244 85.9824C246.785 86.1999 247.647 86.4904 248.022 86.9392C248.381 87.3695 248.395 87.7506 248.374 88.2863C248.29 90.4461 247.647 92.7271 247.188 94.8353C246.157 99.5677 244.941 104.272 243.954 109.009C243.57 110.783 243.317 112.576 243.195 114.388L243.089 114.685C242.778 114.864 242.52 114.939 242.17 115.014C240.961 113.222 245.692 89.5868 246.244 85.9824Z" fill="#171424"/>
<path d="M249.463 89.4092C249.488 89.4131 249.512 89.4178 249.537 89.4214C249.74 89.4488 249.828 89.4478 250.011 89.5034C252.045 90.1204 257.322 96.7891 258.339 98.7982C258.033 101.623 258.061 104.48 257.866 107.314C257.542 111.818 256.975 116.292 256.164 120.734L255.927 120.528C255.363 120.027 255.041 119.702 254.955 118.923C254.798 117.513 255.33 115.171 255.528 113.718C255.914 110.878 256.182 108.026 256.48 105.176C256.706 103.019 257.102 100.788 256.931 98.6147C256.876 97.929 256.802 97.0512 256.248 96.5756L255.977 96.6047C255.444 97.072 255.238 97.6788 255.085 98.355C254.711 100.013 254.765 101.798 254.519 103.484C253.859 107.991 252.929 112.451 252.519 116.996C252.524 117.351 252.57 117.754 252.443 118.091C252.369 118.287 252.217 118.287 252.038 118.361C251.111 118.265 250.248 117.34 249.552 116.751C251.288 111.34 252.632 106.045 253.594 100.445C253.921 98.5387 254.331 96.5627 254.288 94.623C253.939 94.1204 253.6 93.5826 253.073 93.2469C252.684 92.9993 252.231 92.8853 251.79 93.0687C251.428 93.2198 251.226 93.543 251.099 93.8956C250.258 96.2365 250.134 99.0216 249.677 101.477C249.102 104.562 248.339 107.617 247.728 110.697C247.423 112.232 247.261 114.036 246.659 115.472C246.25 115.569 246.236 115.545 245.849 115.372L245.963 114.628L245.887 114.876C246.686 106.383 248.796 98.0503 249.463 89.4092Z" fill="#171424"/>
<path d="M89.4775 75.8975C89.6061 76.1179 89.5809 76.0194 89.6001 76.2782C90.0284 82.0681 91.4286 87.7691 91.6605 93.5643C78.7006 101.215 65.6289 108.67 52.4453 115.93C51.0835 116.685 47.2776 119.339 46.205 119.609L46.0421 119.292C45.5929 116.798 42.8047 106.602 43.3211 105.093C44.396 101.952 70.5197 86.7158 74.5342 84.4106C79.4838 81.5684 84.7101 79.019 89.4775 75.8975Z" fill="#171424"/>
<path d="M158.466 40.6589L158.883 40.6553C158.966 40.7382 159.09 40.7947 159.13 40.9045C159.36 41.5317 159.271 45.1837 159.357 46.2271C159.709 50.5069 160.557 54.7224 160.909 58.99C150.179 62.956 139.898 68.4973 129.673 73.5978C121.47 77.6254 113.356 81.8258 105.332 86.1989C101.731 88.122 98.0199 89.911 94.5192 92.0109L94.0647 92.1461C93.694 91.4121 92.3233 76.0478 92.3647 74.4009C94.279 72.3089 107.989 65.3732 111.759 63.3565C122.628 57.5422 133.428 51.4469 144.598 46.2188C149.095 44.1139 153.779 42.2912 158.466 40.6589Z" fill="#171424"/>
<path d="M198.098 174.805C198.997 175.084 199.549 175.702 200.141 176.402C198.633 177.875 197.255 179.459 196.008 181.157C195.438 181.937 194.413 183.223 194.57 184.222L194.927 184.472C196.919 184.481 201.675 180.196 203.285 178.837C204.018 179.413 204.699 180.031 205.385 180.662C203.218 182.202 196.174 187.331 195.573 189.651L195.851 189.969L195.663 189.881C195.725 189.902 195.784 189.93 195.848 189.944C197.867 190.387 205.973 184.421 208.04 183.155C208.697 183.606 209.25 184.083 209.822 184.632C207.242 186.851 204.033 188.51 201.092 190.201C198.796 191.52 196.533 192.895 194.246 194.229C181.98 201.393 169.511 208.187 156.84 214.612C151.723 217.165 146.403 219.328 141.256 221.842C137.213 223.812 133.181 225.804 129.16 227.818C125.77 229.54 122.411 231.357 118.941 232.915C110.716 235.029 98.3825 237.357 90.0325 237.674C87.7121 236.085 85.9031 233.861 84.3203 231.569C90.3717 230.969 95.8077 229.193 101.418 226.93C110.827 223.136 119.68 217.856 128.725 213.299C132.413 211.441 136.171 209.723 139.86 207.866C146.485 204.467 153.064 200.983 159.599 197.414C164.319 194.824 168.839 191.929 173.524 189.292C181.825 184.619 190.212 180.164 198.098 174.805Z" fill="#171424"/>
<path d="M129.36 220.46C129.732 220.456 130.142 220.434 130.501 220.54C130.974 220.679 131.475 221.048 131.677 221.506C131.894 221.998 131.786 222.567 131.562 223.035C131.128 223.944 130.324 224.301 129.415 224.602C129.015 224.623 128.574 224.615 128.181 224.538C127.641 224.432 127.059 224.099 126.821 223.584C126.608 223.121 126.707 222.613 126.916 222.171C127.407 221.13 128.341 220.81 129.36 220.46Z" fill="white" fill-opacity="0.5"/>
<path d="M152.055 203.2C152.589 203.326 153.228 203.448 153.605 203.873C153.926 204.235 153.853 204.896 153.784 205.337C153.451 207.483 152.36 211.456 150.574 212.775C150.277 212.755 150.004 212.736 149.725 212.617C149.308 212.439 149.099 212.155 148.961 211.733C148.402 210.024 151.08 204.765 152.055 203.2Z" fill="white" fill-opacity="0.5"/>
<path d="M160.766 198.267C161.15 198.385 161.374 198.484 161.679 198.747C162.052 199.471 162.035 200.17 161.934 200.968C161.66 203.115 160.458 208.256 158.744 209.581C158.363 209.388 157.899 209.194 157.581 208.907C157.314 208.666 157.23 208.351 157.207 208.005C157.075 206.052 159.506 199.74 160.766 198.267Z" fill="white" fill-opacity="0.5"/>
<path d="M167.252 195.627C167.507 195.645 167.845 195.641 168.086 195.723C168.461 195.85 168.646 196.015 168.844 196.346C169.796 197.941 168.986 201.928 168.506 203.638C168.195 204.752 167.933 205.59 166.887 206.171C166.403 206.115 165.915 206.105 165.517 205.794C165.238 205.576 165.14 205.182 165.107 204.842C164.92 202.935 166.06 196.997 167.252 195.627Z" fill="white" fill-opacity="0.5"/>
<path d="M161.643 41.1562C161.918 41.3364 162.19 41.5221 162.448 41.725C163.846 42.8239 165.118 44.1142 166.484 45.2577C168.177 46.6742 173.114 49.9768 174.035 51.58C175.089 53.4149 175.541 56.1471 176.18 58.179C177.388 62.0118 178.668 65.8204 180.021 69.6048C184.44 81.7597 189.283 93.7288 193.365 106.011C196.297 115.007 198.979 124.077 201.41 133.221C203.842 142.364 206.019 151.568 207.941 160.831C209.296 167.203 211.16 173.637 211.995 180.091C209.661 178.202 207.337 176.299 205.023 174.383C203.847 173.418 202.358 172.424 201.376 171.265C199.948 169.58 199.116 166.532 198.297 164.46C196.282 159.369 194.252 154.223 192.458 149.05C191.182 145.37 190.082 141.628 188.836 137.937C186.91 132.235 184.81 126.591 182.847 120.901C181.516 117.044 180.335 113.14 179.041 109.271C176.026 100.36 173.157 91.4025 170.433 82.3985C168.648 76.2778 167.235 70.1055 165.686 63.9279C164.277 58.3108 163.064 52.7896 162.212 47.0615C161.933 45.1889 161.534 43.0411 161.643 41.1562Z" fill="#171424"/>
<path d="M184.168 91.2261C184.821 91.1619 185.423 91.0939 185.981 91.5245C186.314 91.7816 186.481 92.1395 186.46 92.5599C186.424 93.247 185.991 93.6866 185.547 94.1565C185.34 94.1687 185.132 94.1749 184.924 94.1754C184.41 94.1741 183.942 93.9609 183.614 93.5531C183.337 93.207 183.217 92.8452 183.295 92.4023C183.393 91.8517 183.766 91.5625 184.168 91.2261Z" fill="white" fill-opacity="0.5"/>
<path d="M171.46 62.3141C171.985 62.2638 172.629 62.2252 173.051 62.591C174.31 63.68 174.471 67.6148 174.526 69.2888C174.555 70.1795 174.466 70.5053 173.842 71.162C173.733 71.1756 173.624 71.1957 173.514 71.2027C173.051 71.2331 172.691 71.207 172.332 70.8857C171.292 69.9574 171.104 67.3293 170.958 66.003C170.814 64.6939 170.581 63.3987 171.46 62.3141Z" fill="white" fill-opacity="0.5"/>
<path d="M199.917 150.7C200.045 150.692 200.251 150.672 200.374 150.692C200.873 150.775 201.13 151.219 201.343 151.634C201.967 152.855 203.566 157.654 203.171 158.862C202.793 159.257 202.477 159.337 201.97 159.474C199.639 158.053 198.826 154.724 198.182 152.257C198.724 151.656 199.276 151.188 199.917 150.7Z" fill="white" fill-opacity="0.5"/>
<path d="M196.863 136.656C197.067 136.664 197.358 136.655 197.561 136.716C198.393 136.968 198.826 137.93 199.141 138.666C199.705 139.986 201.34 143.498 200.828 144.781C200.413 145.147 199.882 145.168 199.356 145.256C198.71 145.079 198.363 144.761 197.965 144.24C196.727 142.62 195.108 139.823 195.393 137.737C195.782 137.228 196.316 136.971 196.863 136.656Z" fill="white" fill-opacity="0.5"/>
<path d="M186.571 102.783C187.008 102.775 187.484 102.727 187.843 103.025C188.761 103.786 191.185 112.544 191.206 113.99C190.959 114.54 190.557 114.764 190.07 115.095C189.535 115.027 189.042 115.005 188.646 114.595C187.739 113.658 185.142 105.493 185.361 104.213C185.486 103.486 186.014 103.178 186.571 102.783Z" fill="white" fill-opacity="0.5"/>
<path d="M161.121 61.8164L161.604 61.8369C162.683 62.3538 163.377 66.3567 163.679 67.5379C167.502 82.5158 172.483 97.1719 177.066 111.927C179.595 120.096 182.195 128.242 184.867 136.366C186.645 141.922 188.312 147.528 190.2 153.047C192.346 159.173 194.658 165.235 197.134 171.235C190.445 175.801 183.428 179.953 176.448 184.058C168.41 188.785 160.387 193.605 152.158 197.997C143.694 202.515 135.015 206.641 126.46 210.981C116.895 215.834 106.602 221.906 96.5491 225.564C92.0725 227.192 87.4498 228.365 82.6545 228.275C82.5455 228.24 82.476 228.225 82.3759 228.157C81.4063 227.491 79.9021 224.151 79.2803 222.951C70.5752 206.147 65.548 188.103 59.9008 170.144C55.018 154.616 49.8305 139.12 46.627 123.136C48.8639 121.615 50.9187 119.837 53.1928 118.358C62.0616 112.588 71.3686 107.685 80.5868 102.518C83.8639 100.681 87.0453 98.6763 90.3235 96.8345C98.7016 92.1023 107.171 87.5391 115.733 83.1451C125.11 78.2426 134.542 73.6497 144.14 69.1937C149.749 66.5897 155.276 63.8645 161.121 61.8164Z" fill="#171424"/>
<path d="M114.74 171.476C115.176 171.526 115.333 171.616 115.616 171.92C115.695 172.994 113.181 178.434 112.491 179.404L111.994 179.18C111.508 178.597 111.372 178.037 111.443 177.279C111.632 175.265 113.169 172.733 114.74 171.476Z" fill="white" fill-opacity="0.5"/>
<path d="M111.344 169.633C111.454 169.654 111.59 169.672 111.687 169.729C111.881 169.844 112.054 170.008 112.098 170.231C112.147 170.48 112.127 170.667 112.042 170.904C111.495 172.437 110.53 173.914 109.819 175.39C108.512 178.105 107.467 180.917 105.916 183.513L105.491 183.516C105.21 183.258 105.17 183.211 105.174 182.796C105.181 182.048 105.495 181.116 105.676 180.395C106.624 176.632 108.352 172.263 111.344 169.633Z" fill="white" fill-opacity="0.5"/>
<path d="M136.923 88.3721C137.358 88.4131 137.574 88.5076 137.943 88.7389C138.171 89.1854 138.232 89.3923 138.141 89.8933C137.728 92.1585 136.601 94.5202 135.822 96.6975C134.504 100.338 133.256 104.002 132.08 107.689C134.493 109.128 137.503 110.15 140.167 111.038C142.045 111.665 144.784 111.895 146.282 113.207C146.656 113.535 146.799 113.804 146.816 114.294C146.582 114.594 146.353 114.756 146.002 114.895C142.76 116.19 134.398 112.158 131.234 110.799C129.729 114.558 129.035 118.205 126.686 121.638C126.327 122.078 125.857 122.628 125.338 122.875C125.012 123.031 125.007 123.027 124.657 122.895C124.519 122.518 124.494 122.423 124.598 122.02C124.931 120.724 125.552 119.409 126 118.139C126.944 115.465 127.807 112.781 128.48 110.026C125.744 108.959 123.041 107.815 120.37 106.593C118.952 105.956 116.606 105.238 116.015 103.682C116.055 103.202 116.103 103.121 116.378 102.72L116.357 102.948C116.479 102.65 116.485 102.588 116.781 102.432C117.157 102.233 117.426 102.242 117.828 102.325C121.117 103 125.677 105.616 129.425 106.668C130.884 102.162 133.415 93.0039 135.871 89.346C136.143 88.9399 136.53 88.6546 136.923 88.3721Z" fill="white" fill-opacity="0.5"/>
<path d="M84.9235 116.195C85.2319 116.279 85.7053 116.398 85.8762 116.691C86.7325 118.154 83.7469 129.819 83.2493 132.131C86.0462 134.584 91.5049 137.225 95.0332 138.418C96.3546 138.865 97.7889 139.064 99.0778 139.592C99.5628 139.79 100.005 140.088 100.173 140.613C100.292 140.986 100.238 141.42 100.025 141.75C99.8192 142.068 99.4816 142.268 99.1169 142.352C96.4046 142.971 85.4274 137.122 82.5583 135.265C81.7574 138.076 81.1717 140.92 80.1915 143.682C79.7347 145.224 78.8516 148.257 77.4361 149.16C77.0022 149.181 77.0253 149.198 76.6991 148.915C76.2499 145.621 79.1235 137.885 79.5727 133.979L79.6015 133.717C77.1367 132.122 69.7615 128.976 68.8526 126.416C68.7009 125.989 68.7943 125.788 68.9814 125.4C69.2623 125.169 69.4879 125.018 69.841 124.913C70.2031 124.805 70.4476 124.779 70.8176 124.899C72.0588 125.3 73.3421 126.326 74.4617 127.017C76.4069 128.218 78.3785 129.415 80.4234 130.441C80.756 128.406 83.0324 118.211 83.7529 116.814C83.9712 116.391 84.4988 116.314 84.9235 116.195Z" fill="white" fill-opacity="0.5"/>
<path d="M161.324 144.728C161.583 144.718 161.852 144.695 162.11 144.729C162.703 144.807 163.228 145.436 163.57 145.88C165.162 147.947 165.867 151.295 165.54 153.857C165.359 155.281 164.85 156.746 163.659 157.64C159.359 160.871 150.744 153.435 146.872 151.39C144.452 150.11 141.91 149.225 139.177 148.931C136.874 148.683 134.601 148.892 132.318 149.217C129.11 149.673 125.95 150.436 122.954 151.686C115.79 154.678 108.386 160.93 105.05 167.965C104.675 168.754 104.343 169.561 104.053 170.385C103.763 171.209 103.516 172.046 103.313 172.895C102.408 176.732 102.182 183.604 98.814 186.135C97.6417 187.016 96.2067 187.199 94.7899 186.934C92.4856 186.503 91.1325 185.331 89.8459 183.461C89.3669 182.467 88.5768 180.858 88.7633 179.741C88.8349 179.31 89.2688 178.756 89.5984 178.482C89.924 178.211 90.3023 178.069 90.7303 178.165C92.3965 178.535 92.104 180.66 92.7881 181.863C93.2515 182.678 94.2238 183.221 95.1225 183.41C95.7409 183.54 96.415 183.501 96.945 183.128C98.7547 181.851 99.4563 175.129 99.8942 172.934C101.795 163.406 107.557 156.812 115.5 151.533C121.058 147.84 129.813 145.1 136.594 145.368C137.155 145.39 137.715 145.429 138.274 145.485C138.834 145.54 139.39 145.612 139.945 145.701C140.5 145.789 141.052 145.894 141.601 146.015C142.149 146.136 142.694 146.273 143.234 146.426C143.775 146.579 144.31 146.748 144.841 146.933C145.371 147.118 145.896 147.318 146.414 147.534C146.933 147.749 147.444 147.98 147.949 148.226C148.454 148.472 148.951 148.733 149.441 149.008C152.72 150.813 156.759 154.249 160.435 154.878C160.953 154.967 161.405 154.948 161.801 154.552C163.365 152.986 160.534 147.989 160.54 146.164C160.541 145.514 160.746 145.247 161.204 144.833C161.243 144.798 161.284 144.763 161.324 144.728Z" fill="white" fill-opacity="0.5"/>
</svg>
